<svg aria-hidden="true" style="position: absolute; width: 0; height: 0; overflow: hidden;" version="1.1" xmlns="http://www.w3.org/2000/svg" xmlns:xlink="http://www.w3.org/1999/xlink">
<defs>
<symbol id="icon-apple-pay2" viewBox="0 0 36 32">
<path d="M18.887 13.65c0 1.075-0.656 1.694-1.813 1.694h-1.519v-3.387h1.525c1.15 0 1.806 0.613 1.806 1.694zM21.856 17.563c0 0.519 0.45 0.856 1.156 0.856 0.9 0 1.575-0.569 1.575-1.369v-0.481l-1.469 0.094c-0.831 0.056-1.262 0.363-1.262 0.9zM36 4.938v22c0 1.656-1.344 3-3 3h-30c-1.656 0-3-1.344-3-3v-22c0-1.656 1.344-3 3-3h30c1.656 0 3 1.344 3 3zM7.987 12.325c0.525 0.044 1.050-0.262 1.381-0.65 0.325-0.4 0.537-0.938 0.481-1.481-0.463 0.019-1.037 0.306-1.369 0.706-0.3 0.344-0.556 0.9-0.494 1.425zM11.775 16.981c-0.012-0.012-1.225-0.475-1.238-1.875-0.012-1.169 0.956-1.731 1-1.762-0.55-0.813-1.4-0.9-1.694-0.919-0.762-0.044-1.412 0.431-1.775 0.431-0.369 0-0.919-0.412-1.519-0.4-0.781 0.012-1.513 0.456-1.906 1.162-0.819 1.412-0.213 3.5 0.581 4.65 0.388 0.569 0.856 1.194 1.469 1.169 0.581-0.025 0.813-0.375 1.512-0.375 0.706 0 0.906 0.375 1.519 0.369 0.637-0.012 1.031-0.569 1.425-1.137 0.431-0.65 0.613-1.275 0.625-1.313zM20.238 13.644c0-1.662-1.156-2.8-2.806-2.8h-3.2v8.525h1.325v-2.913h1.831c1.675 0 2.85-1.15 2.85-2.813zM25.863 15.125c0-1.231-0.988-2.025-2.5-2.025-1.406 0-2.444 0.806-2.481 1.906h1.194c0.1-0.525 0.587-0.869 1.25-0.869 0.813 0 1.262 0.375 1.262 1.075v0.469l-1.65 0.1c-1.538 0.094-2.369 0.725-2.369 1.819 0 1.106 0.856 1.837 2.087 1.837 0.831 0 1.6-0.419 1.95-1.087h0.025v1.025h1.225v-4.25zM32.25 13.181h-1.344l-1.556 5.037h-0.025l-1.556-5.037h-1.394l2.244 6.206-0.119 0.375c-0.2 0.637-0.531 0.887-1.119 0.887-0.106 0-0.306-0.012-0.387-0.019v1.025c0.075 0.025 0.406 0.031 0.506 0.031 1.294 0 1.9-0.494 2.431-1.988l2.319-6.519z"></path>
</symbol>
<symbol id="icon-discover2" viewBox="0 0 36 32">
<path d="M32.525 12.256c0-0.494-0.344-0.756-0.975-0.756h-0.306v1.556h0.294c0.644 0 0.988-0.275 0.988-0.8zM33 2h-30c-1.656 0-3 1.344-3 3v22c0 1.656 1.344 3 3 3h30c1.656 0 3-1.344 3-3v-22c0-1.656-1.344-3-3-3zM30.244 10.681c1.413 0 3.306-0.256 3.306 1.525 0 0.787-0.413 1.294-1.169 1.45l1.612 2.15h-1.225l-1.387-2.050h-0.137v2.050h-1zM26.75 10.688h2.831v0.875h-1.831v1.137h1.769v0.863h-1.769v1.387h1.831v0.863h-2.831zM22.456 10.688l1.369 3.45 1.387-3.45h1.094l-2.219 5.262h-0.538l-2.188-5.262zM18.962 10.5c1.544 0 2.788 1.25 2.788 2.787 0 1.544-1.25 2.787-2.788 2.787-1.544 0-2.788-1.25-2.788-2.787 0-1.544 1.25-2.787 2.788-2.787zM15.881 10.881v1.188c-1.256-1.256-2.925-0.294-2.925 1.188 0 1.563 1.719 2.406 2.925 1.2v1.188c-1.856 0.894-3.956-0.356-3.956-2.388 0-1.95 2.069-3.313 3.956-2.375zM9.806 15.025c0.713 0 1.4-0.956-0.206-1.525-0.938-0.344-1.262-0.713-1.262-1.419 0-1.45 1.912-1.963 3.106-0.894l-0.525 0.675c-0.65-0.725-1.556-0.387-1.556 0.156 0 0.275 0.169 0.431 0.769 0.644 1.137 0.412 1.475 0.781 1.475 1.6 0 1.844-2.425 2.338-3.537 0.706l0.644-0.619c0.231 0.444 0.619 0.675 1.094 0.675zM3.462 15.813h-1.462v-5.125h1.462c1.631 0 2.756 1.063 2.756 2.569 0 1.156-0.825 2.556-2.756 2.556zM7.681 15.813h-1v-5.125h1zM34 27.063c0 0.512-0.425 0.938-0.938 0.938h-25.063c11.85-2.225 23.919-8.7 26-10zM4.631 11.975c-0.325-0.306-0.725-0.412-1.369-0.412h-0.263v3.387h0.263c0.644 0 1.062-0.125 1.369-0.4 0.356-0.325 0.556-0.8 0.556-1.294s-0.2-0.969-0.556-1.281z"></path>
</symbol>
<symbol id="icon-google-pay2" viewBox="0 0 40 32">
<path d="M6.607 13.438v2.578h3.569c-0.153 0.853-0.637 1.571-1.311 2.031l-0.011 0.007c-0.596 0.409-1.357 0.642-2.25 0.642-1.725 0-3.183-1.182-3.706-2.764-0.13-0.383-0.205-0.823-0.205-1.281s0.075-0.899 0.214-1.31l-0.008 0.029c0.523-1.591 1.981-2.773 3.706-2.773 0.020-0 0.043-0.001 0.066-0.001 0.96 0 1.831 0.384 2.467 1.006l-0.001-0.001 1.893-1.914c-1.132-1.077-2.668-1.74-4.358-1.74-0.022 0-0.045 0-0.067 0l0.003-0c-2.577 0.010-4.804 1.496-5.881 3.656l-0.017 0.038c-0.447 0.876-0.709 1.91-0.709 3.006s0.262 2.13 0.726 3.044l-0.018-0.038v0.009c1.095 2.197 3.323 3.681 5.898 3.688h0.001c1.779 0 3.284-0.596 4.375-1.619 1.25-1.163 1.963-2.884 1.963-4.932 0-0.004 0-0.009 0-0.013 0-0.476-0.040-0.943-0.116-1.397l0.007 0.049zM30.946 13.188c-0.633-0.586-1.496-0.884-2.587-0.884-1.404 0-2.459 0.521-3.156 1.554l1.303 0.829q0.716-1.063 1.954-1.063c0.548 0.001 1.047 0.21 1.424 0.551l-0.002-0.002c0.372 0.324 0.605 0.798 0.606 1.327v0.344c-0.569-0.317-1.284-0.484-2.165-0.484-1.027 0-1.853 0.242-2.468 0.736s-0.926 1.144-0.926 1.973c-0.001 0.019-0.001 0.042-0.001 0.065 0 0.755 0.337 1.431 0.869 1.887l0.003 0.003c0.578 0.521 1.313 0.782 2.174 0.782 1.018 0 1.826-0.456 2.438-1.368h0.063v1.107h1.413v-4.919c0.004-1.034-0.308-1.854-0.941-2.438zM29.744 18.769c-0.423 0.43-1.011 0.697-1.66 0.698h-0c-0.009 0-0.019 0-0.030 0-0.424 0-0.813-0.147-1.119-0.394l0.003 0.003c-0.296-0.224-0.486-0.575-0.486-0.971 0-0.002 0-0.004 0-0.006v0c0-0.438 0.201-0.801 0.596-1.089s0.908-0.438 1.504-0.438c0.823-0.010 1.466 0.177 1.925 0.549 0 0.633-0.247 1.182-0.734 1.648zM23.891 9.894c-0.63-0.63-1.5-1.019-2.462-1.019-0.025 0-0.049 0-0.074 0.001l0.004-0h-3.917v11.671h1.477v-4.727h2.438c1 0 1.844-0.335 2.532-0.996 0.055-0.056 0.11-0.112 0.166-0.168 0.554-0.603 0.894-1.412 0.894-2.299 0-0.969-0.405-1.844-1.056-2.464l-0.001-0.001zM22.854 13.783c-0.35 0.373-0.847 0.606-1.398 0.606-0.021 0-0.043-0-0.064-0.001l0.003 0h-2.477v-4.076h2.477c0.002 0 0.005 0 0.007 0 0.548 0 1.044 0.22 1.405 0.577l-0-0c0.377 0.376 0.61 0.895 0.61 1.469 0 0.551-0.215 1.052-0.565 1.423l0.001-0.001zM38.394 12.563l-2.284 5.731h-0.028l-2.339-5.731h-1.606l3.237 7.472-1.834 4.020h1.522l4.938-11.492z"></path>
</symbol>
<symbol id="icon-mastercard2" viewBox="0 0 36 32">
<path d="M30.181 25.644c0 0.425-0.288 0.731-0.7 0.731-0.425 0-0.7-0.325-0.7-0.731s0.275-0.731 0.7-0.731c0.413 0 0.7 0.325 0.7 0.731zM10.756 24.913c-0.444 0-0.7 0.325-0.7 0.731s0.256 0.731 0.7 0.731c0.406 0 0.681-0.306 0.681-0.731-0.006-0.406-0.275-0.731-0.681-0.731zM18.1 24.894c-0.337 0-0.544 0.219-0.594 0.544h1.194c-0.056-0.356-0.275-0.544-0.6-0.544zM24.837 24.913c-0.425 0-0.681 0.325-0.681 0.731s0.256 0.731 0.681 0.731c0.425 0 0.7-0.306 0.7-0.731 0-0.406-0.275-0.731-0.7-0.731zM31.456 26.544c0 0.019 0.019 0.031 0.019 0.069 0 0.019-0.019 0.031-0.019 0.069-0.019 0.019-0.019 0.031-0.031 0.050-0.019 0.019-0.031 0.031-0.069 0.031-0.019 0.019-0.031 0.019-0.069 0.019-0.019 0-0.031 0-0.069-0.019-0.019 0-0.031-0.019-0.050-0.031-0.019-0.019-0.031-0.031-0.031-0.050-0.019-0.031-0.019-0.050-0.019-0.069 0-0.031 0-0.050 0.019-0.069 0-0.031 0.019-0.050 0.031-0.069 0.019-0.019 0.031-0.019 0.050-0.031 0.031-0.019 0.050-0.019 0.069-0.019 0.031 0 0.050 0 0.069 0.019 0.031 0.019 0.050 0.019 0.069 0.031s0.012 0.038 0.031 0.069zM31.319 26.631c0.031 0 0.031-0.019 0.050-0.019 0.019-0.019 0.019-0.031 0.019-0.050s0-0.031-0.019-0.050c-0.019 0-0.031-0.019-0.069-0.019h-0.1v0.219h0.050v-0.087h0.019l0.069 0.087h0.050l-0.069-0.081zM36 5.063v22c0 1.656-1.344 3-3 3h-30c-1.656 0-3-1.344-3-3v-22c0-1.656 1.344-3 3-3h30c1.656 0 3 1.344 3 3zM4 13.787c0 4.781 3.881 8.656 8.656 8.656 1.7 0 3.369-0.512 4.781-1.444-4.556-3.706-4.525-10.7 0-14.406-1.413-0.938-3.081-1.444-4.781-1.444-4.775-0.006-8.656 3.875-8.656 8.637zM18 20.587c4.406-3.438 4.387-10.137 0-13.594-4.387 3.456-4.406 10.163 0 13.594zM9.106 25.356c0-0.544-0.356-0.9-0.919-0.919-0.287 0-0.594 0.087-0.8 0.406-0.15-0.256-0.406-0.406-0.763-0.406-0.237 0-0.475 0.087-0.662 0.337v-0.275h-0.513v2.294h0.513c0-1.181-0.156-1.887 0.563-1.887 0.638 0 0.513 0.637 0.513 1.887h0.494c0-1.144-0.156-1.887 0.562-1.887 0.637 0 0.512 0.625 0.512 1.887h0.512v-1.438zM11.912 24.5h-0.494v0.275c-0.169-0.206-0.406-0.337-0.731-0.337-0.644 0-1.137 0.512-1.137 1.206 0 0.7 0.494 1.206 1.137 1.206 0.325 0 0.563-0.119 0.731-0.337v0.288h0.494v-2.3zM14.444 26.1c0-0.938-1.431-0.512-1.431-0.95 0-0.356 0.744-0.3 1.156-0.069l0.206-0.406c-0.588-0.381-1.887-0.375-1.887 0.512 0 0.894 1.431 0.519 1.431 0.938 0 0.394-0.844 0.363-1.294 0.050l-0.219 0.394c0.7 0.475 2.037 0.375 2.037-0.469zM16.656 26.681l-0.137-0.425c-0.238 0.131-0.762 0.275-0.762-0.256v-1.038h0.819v-0.462h-0.819v-0.7h-0.512v0.7h-0.475v0.456h0.475v1.044c0 1.1 1.081 0.9 1.412 0.681zM17.488 25.844h1.719c0-1.012-0.462-1.413-1.087-1.413-0.663 0-1.137 0.494-1.137 1.206 0 1.281 1.413 1.494 2.113 0.887l-0.238-0.375c-0.488 0.4-1.225 0.363-1.369-0.306zM21.181 24.5c-0.288-0.125-0.725-0.113-0.95 0.275v-0.275h-0.512v2.294h0.512v-1.294c0-0.725 0.594-0.631 0.8-0.525l0.15-0.475zM21.844 25.644c0-0.712 0.725-0.944 1.294-0.525l0.238-0.406c-0.725-0.569-2.044-0.256-2.044 0.938 0 1.238 1.4 1.488 2.044 0.938l-0.238-0.406c-0.575 0.406-1.294 0.163-1.294-0.538zM26.012 24.5h-0.512v0.275c-0.519-0.688-1.869-0.3-1.869 0.869 0 1.2 1.4 1.544 1.869 0.869v0.288h0.512v-2.3zM28.119 24.5c-0.15-0.075-0.688-0.181-0.95 0.275v-0.275h-0.494v2.294h0.494v-1.294c0-0.688 0.563-0.644 0.8-0.525l0.15-0.475zM30.637 23.569h-0.494v1.206c-0.512-0.681-1.869-0.319-1.869 0.869 0 1.212 1.406 1.538 1.869 0.869v0.288h0.494v-3.231zM31.113 18.875v0.288h0.050v-0.288h0.119v-0.050h-0.288v0.050h0.119zM31.525 26.613c0-0.031 0-0.069-0.019-0.1-0.019-0.019-0.031-0.050-0.050-0.069s-0.050-0.031-0.069-0.050c-0.031 0-0.069-0.019-0.1-0.019-0.019 0-0.050 0.019-0.087 0.019-0.031 0.019-0.050 0.031-0.069 0.050-0.031 0.019-0.050 0.050-0.050 0.069-0.019 0.031-0.019 0.069-0.019 0.1 0 0.019 0 0.050 0.019 0.087 0 0.019 0.019 0.050 0.050 0.069 0.019 0.019 0.031 0.031 0.069 0.050 0.031 0.019 0.069 0.019 0.087 0.019 0.031 0 0.069 0 0.1-0.019 0.019-0.019 0.050-0.031 0.069-0.050s0.031-0.050 0.050-0.069c0.019-0.038 0.019-0.069 0.019-0.087zM31.725 18.819h-0.087l-0.1 0.219-0.1-0.219h-0.087v0.337h0.050v-0.256l0.1 0.219h0.069l0.087-0.219v0.256h0.069v-0.337zM32 13.787c0-4.763-3.881-8.644-8.656-8.644-1.7 0-3.369 0.513-4.781 1.444 4.506 3.706 4.575 10.719 0 14.406 1.413 0.938 3.094 1.444 4.781 1.444 4.775 0.006 8.656-3.869 8.656-8.65z"></path>
</symbol>
<symbol id="icon-visa2" viewBox="0 0 36 32">
<path d="M29.381 14.456s0.475 2.325 0.581 2.813h-2.087c0.206-0.556 1-2.719 1-2.719-0.012 0.019 0.206-0.569 0.331-0.931l0.175 0.838zM36 5v22c0 1.656-1.344 3-3 3h-30c-1.656 0-3-1.344-3-3v-22c0-1.656 1.344-3 3-3h30c1.656 0 3 1.344 3 3zM9.531 20.7l3.95-9.7h-2.656l-2.456 6.625-0.269-1.344-0.875-4.463c-0.144-0.619-0.588-0.794-1.138-0.819h-4.044l-0.044 0.194c0.988 0.25 1.869 0.613 2.638 1.069l2.237 8.438h2.656zM15.431 20.712l1.575-9.713h-2.512l-1.569 9.713h2.506zM24.175 17.538c0.012-1.106-0.663-1.95-2.106-2.644-0.881-0.444-1.419-0.744-1.419-1.2 0.012-0.412 0.456-0.838 1.444-0.838 0.819-0.019 1.419 0.175 1.869 0.369l0.225 0.106 0.344-2.1c-0.494-0.194-1.281-0.412-2.25-0.412-2.481 0-4.225 1.325-4.238 3.213-0.019 1.394 1.25 2.169 2.2 2.638 0.969 0.475 1.3 0.788 1.3 1.206-0.012 0.65-0.788 0.95-1.506 0.95-1 0-1.538-0.156-2.356-0.519l-0.331-0.156-0.35 2.181c0.587 0.269 1.675 0.506 2.8 0.519 2.637 0.006 4.356-1.3 4.375-3.313zM33 20.712l-2.025-9.713h-1.944c-0.6 0-1.056 0.175-1.313 0.806l-3.731 8.906h2.637s0.431-1.2 0.525-1.456h3.225c0.075 0.344 0.3 1.456 0.3 1.456h2.325z"></path>
</symbol>
<symbol id="icon-apple-pay1" viewBox="0 0 32 32">
<path d="M6.065 10.946c0.372-0.479 0.638-1.117 0.559-1.756-0.559 0.027-1.224 0.372-1.623 0.825-0.346 0.399-0.665 1.064-0.585 1.676 0.638 0.080 1.25-0.266 1.649-0.745zM6.623 11.85c-0.904-0.053-1.676 0.505-2.101 0.505s-1.091-0.479-1.809-0.479c-0.931 0.027-1.782 0.532-2.261 1.383-0.958 1.676-0.266 4.15 0.692 5.506 0.452 0.665 1.011 1.41 1.729 1.383 0.692-0.027 0.958-0.452 1.782-0.452s1.064 0.452 1.809 0.426 1.224-0.665 1.676-1.357c0.532-0.771 0.745-1.516 0.745-1.543-0.027-0.027-1.463-0.559-1.463-2.208-0.027-1.383 1.117-2.048 1.17-2.075-0.612-0.958-1.623-1.064-1.968-1.091z"></path>
<path d="M14.444 9.962c1.968 0 3.325 1.357 3.325 3.298 0 1.968-1.383 3.325-3.378 3.325h-2.155v3.431h-1.569v-10.055h3.777zM12.236 15.282h1.782c1.357 0 2.128-0.745 2.128-1.995 0-1.277-0.771-1.995-2.128-1.995h-1.809v3.99h0.027zM18.168 17.968c0-1.277 0.984-2.075 2.74-2.181l2.022-0.106v-0.559c0-0.825-0.559-1.303-1.463-1.303-0.878 0-1.41 0.426-1.543 1.064h-1.436c0.080-1.33 1.224-2.314 3.032-2.314 1.782 0 2.926 0.931 2.926 2.421v5.054h-1.436v-1.197h-0.027c-0.426 0.825-1.357 1.33-2.314 1.33-1.49 0-2.5-0.904-2.5-2.208zM22.929 17.303v-0.585l-1.809 0.106c-0.904 0.053-1.41 0.452-1.41 1.091s0.532 1.064 1.33 1.064c1.064 0 1.889-0.718 1.889-1.676zM25.776 22.756v-1.224c0.106 0.027 0.372 0.027 0.479 0.027 0.692 0 1.064-0.293 1.303-1.037 0-0.027 0.133-0.452 0.133-0.452l-2.66-7.342h1.623l1.862 5.985h0.027l1.862-5.985h1.596l-2.74 7.741c-0.638 1.782-1.357 2.341-2.873 2.341-0.106-0.027-0.479-0.027-0.612-0.053z"></path>
</symbol>
<symbol id="icon-discover1" viewBox="0 0 32 32">
<path fill="#f47216" style="fill: var(--color1, #f47216)" d="M16.796 13.836c1.269 0 2.298 0.967 2.298 2.162v0.001c0 1.195-1.029 2.164-2.298 2.164s-2.298-0.969-2.298-2.164v-0.001c0-1.195 1.029-2.162 2.298-2.162z"></path>
<path fill="#000" style="fill: var(--color2, #000)" d="M13.187 13.864c0.363 0 0.667 0.073 1.037 0.25v0.933c-0.351-0.323-0.655-0.458-1.057-0.458-0.79 0-1.412 0.616-1.412 1.397 0 0.824 0.602 1.403 1.451 1.403 0.382 0 0.68-0.128 1.018-0.445v0.934c-0.383 0.17-0.694 0.237-1.057 0.237-1.283 0-2.28-0.927-2.28-2.123-0-1.183 1.024-2.129 2.3-2.129zM9.203 13.89c0.474 0 0.907 0.153 1.269 0.451l-0.441 0.543c-0.22-0.232-0.427-0.329-0.679-0.329-0.363 0-0.628 0.195-0.628 0.451 0 0.22 0.148 0.336 0.654 0.512 0.959 0.33 1.243 0.623 1.243 1.269 0 0.787-0.614 1.336-1.49 1.336-0.641 0-1.107-0.238-1.496-0.774l0.544-0.494c0.194 0.353 0.518 0.542 0.92 0.542 0.376 0 0.654-0.244 0.654-0.574 0-0.171-0.084-0.317-0.253-0.421-0.085-0.049-0.253-0.122-0.583-0.232-0.791-0.268-1.063-0.555-1.063-1.115-0-0.666 0.583-1.166 1.348-1.166zM18.832 13.961h0.92l1.152 2.732 1.167-2.732h0.914l-1.866 4.172h-0.453l-1.833-4.172zM6.475 13.967h0.843v4.067h-0.843v-4.067zM23.366 13.967h2.39v0.689h-1.548v0.903h1.491v0.689h-1.491v1.098h1.548v0.689h-2.39v-4.067zM28.109 16.321c0.635-0.122 0.984-0.53 0.984-1.153 0-0.762-0.557-1.201-1.529-1.201h-1.249v4.067h0.842v-1.634h0.11l1.166 1.634h1.036l-1.36-1.713zM27.402 15.839h-0.246v-1.232h0.26c0.525 0 0.81 0.207 0.81 0.603 0 0.409-0.285 0.629-0.823 0.629zM3.768 13.967h-1.237v4.067h1.23c0.654 0 1.127-0.145 1.541-0.47 0.493-0.384 0.784-0.963 0.784-1.561 0-1.2-0.953-2.037-2.319-2.037zM4.752 17.023c-0.265 0.225-0.609 0.323-1.153 0.323h-0.226v-2.69h0.226c0.544 0 0.875 0.092 1.153 0.329 0.291 0.244 0.467 0.623 0.467 1.013s-0.175 0.78-0.467 1.025z"></path>
</symbol>
<symbol id="icon-menu" viewBox="0 0 32 32">
<path d="M1 7h30c0.552 0 1-0.448 1-1s-0.448-1-1-1h-30c-0.552 0-1 0.448-1 1s0.448 1 1 1z"></path>
<path d="M31 15h-30c-0.552 0-1 0.448-1 1s0.448 1 1 1h30c0.552 0 1-0.448 1-1s-0.448-1-1-1z"></path>
<path d="M31 25h-30c-0.552 0-1 0.448-1 1s0.448 1 1 1h30c0.552 0 1-0.448 1-1s-0.448-1-1-1z"></path>
</symbol>
<symbol id="icon-bag" viewBox="0 0 32 32">
<path d="M29.063 29.756l-2.778-21.11c-0.077-0.582-0.376-1.1-0.804-1.471l-3.282-3.282c-0.131-0.131-0.309-0.205-0.494-0.205h-1.027c-0.509-2.113-2.413-3.688-4.68-3.688s-4.171 1.575-4.68 3.688h-1.028c-0.185 0-0.363 0.074-0.494 0.205l-3.307 3.307c-0.412 0.369-0.701 0.877-0.776 1.446l-2.778 21.11c-0.076 0.581 0.092 1.156 0.463 1.579s0.919 0.665 1.505 0.665h22.191c0.586 0 1.134-0.242 1.505-0.665s0.54-0.998 0.463-1.578zM22.916 6.585h-2.102v-1.499h0.603l1.499 1.499zM15.999 1.398c1.884 0 3.416 1.533 3.416 3.416v1.771h-6.833v-1.771c0-1.884 1.533-3.416 3.416-3.416zM10.581 5.086h0.605v1.499h-2.104l1.499-1.499zM7.1 8.828c0.059-0.451 0.51-0.846 0.965-0.846h3.121v2.551c0 0.386 0.313 0.699 0.699 0.699s0.699-0.313 0.699-0.699v-2.551h6.833v2.551c0 0.386 0.313 0.699 0.699 0.699s0.699-0.313 0.699-0.699v-2.551h3.122c0.238 0 0.474 0.109 0.655 0.277l0.005 0.005c0.002 0.002 0.004 0.003 0.006 0.005 0.158 0.152 0.272 0.349 0.299 0.559l2.322 17.645h-22.444l2.322-17.645zM27.55 30.413c-0.107 0.122-0.268 0.189-0.454 0.189h-22.191c-0.186 0-0.347-0.067-0.454-0.189s-0.152-0.29-0.128-0.475l0.272-2.067h22.811l0.272 2.067c0.024 0.184-0.021 0.353-0.128 0.475z"></path>
</symbol>
<symbol id="icon-apple-pay" viewBox="0 0 32 32">
<path fill="#000" style="fill: var(--color2, #000)" d="M29.138 5.752h-26.876c-0.193 0-0.406 0.019-0.599 0.058s-0.387 0.097-0.58 0.193c-0.174 0.077-0.348 0.213-0.483 0.348s-0.271 0.309-0.348 0.483c-0.097 0.174-0.155 0.367-0.193 0.58-0.039 0.193-0.039 0.406-0.058 0.599v15.952c0 0.193 0.019 0.406 0.058 0.599s0.097 0.387 0.193 0.58c0.097 0.174 0.213 0.348 0.348 0.483s0.309 0.271 0.483 0.348c0.174 0.097 0.367 0.155 0.58 0.193 0.193 0.039 0.406 0.039 0.599 0.058h27.476c0.193 0 0.406-0.019 0.599-0.058s0.387-0.097 0.58-0.193c0.174-0.097 0.348-0.213 0.483-0.348s0.271-0.309 0.348-0.483c0.097-0.174 0.155-0.367 0.193-0.58 0.039-0.193 0.039-0.406 0.058-0.599v-15.952c0-0.193-0.019-0.406-0.058-0.599s-0.097-0.387-0.193-0.58c-0.097-0.174-0.213-0.348-0.348-0.483s-0.309-0.271-0.483-0.348c-0.174-0.097-0.367-0.155-0.58-0.193-0.193-0.039-0.406-0.039-0.599-0.058h-0.599z"></path>
<path fill="#fff" style="fill: var(--color3, #fff)" d="M29.138 6.429h0.599c0.155 0 0.329 0.019 0.503 0.039 0.155 0.019 0.271 0.058 0.387 0.116s0.213 0.135 0.309 0.232 0.174 0.193 0.232 0.309c0.058 0.116 0.097 0.232 0.116 0.387 0.039 0.174 0.039 0.348 0.039 0.503v15.952c0 0.155-0.019 0.329-0.039 0.503-0.019 0.135-0.058 0.271-0.116 0.387s-0.135 0.213-0.232 0.309-0.193 0.174-0.309 0.232c-0.116 0.058-0.232 0.097-0.387 0.116-0.174 0.039-0.348 0.039-0.503 0.039h-27.476c-0.135 0-0.329-0.019-0.503-0.039-0.135-0.019-0.271-0.058-0.387-0.135-0.116-0.058-0.213-0.135-0.309-0.232s-0.174-0.193-0.232-0.309c-0.058-0.116-0.097-0.232-0.116-0.387-0.039-0.174-0.039-0.348-0.039-0.503v-15.932c0-0.155 0.019-0.329 0.039-0.503 0.019-0.135 0.058-0.271 0.116-0.387s0.135-0.213 0.232-0.309 0.193-0.174 0.309-0.232c0.116-0.058 0.232-0.097 0.387-0.116 0.174-0.039 0.348-0.039 0.503-0.039h26.876z"></path>
<path fill="#000" style="fill: var(--color2, #000)" d="M8.74 12.636c0.271-0.348 0.464-0.812 0.406-1.276-0.406 0.019-0.889 0.271-1.179 0.599-0.251 0.29-0.483 0.773-0.425 1.218 0.464 0.058 0.909-0.193 1.199-0.541zM9.146 13.293c-0.657-0.039-1.218 0.367-1.527 0.367s-0.793-0.348-1.315-0.348c-0.677 0.019-1.295 0.387-1.643 1.005-0.696 1.218-0.193 3.016 0.503 4.002 0.329 0.483 0.735 1.025 1.257 1.005 0.503-0.019 0.696-0.329 1.295-0.329s0.773 0.329 1.315 0.309c0.541-0.019 0.889-0.483 1.218-0.986 0.387-0.561 0.541-1.102 0.541-1.121-0.019-0.019-1.063-0.406-1.063-1.605-0.019-1.005 0.812-1.489 0.851-1.508-0.445-0.696-1.179-0.773-1.431-0.793z"></path>
<path fill="#000" style="fill: var(--color2, #000)" d="M14.83 11.92c1.431 0 2.417 0.986 2.417 2.398 0 1.431-1.005 2.417-2.456 2.417h-1.566v2.494h-1.141v-7.309h2.746zM13.225 15.787h1.295c0.986 0 1.547-0.541 1.547-1.45 0-0.928-0.561-1.45-1.547-1.45h-1.315v2.9zM17.537 17.74c0-0.928 0.715-1.508 1.992-1.585l1.47-0.077v-0.406c0-0.599-0.406-0.947-1.063-0.947-0.638 0-1.025 0.309-1.121 0.773h-1.044c0.058-0.967 0.889-1.682 2.204-1.682 1.295 0 2.127 0.677 2.127 1.76v3.674h-1.044v-0.87h-0.019c-0.309 0.599-0.986 0.967-1.682 0.967-1.083 0-1.818-0.657-1.818-1.605zM20.998 17.257v-0.425l-1.315 0.077c-0.657 0.039-1.025 0.329-1.025 0.793s0.387 0.773 0.967 0.773c0.773 0 1.373-0.522 1.373-1.218zM23.067 21.221v-0.889c0.077 0.019 0.271 0.019 0.348 0.019 0.503 0 0.773-0.213 0.947-0.754 0-0.019 0.097-0.329 0.097-0.329l-1.934-5.337h1.179l1.353 4.35h0.019l1.353-4.35h1.16l-1.992 5.627c-0.464 1.295-0.986 1.701-2.088 1.701-0.077-0.019-0.348-0.019-0.445-0.039z"></path>
</symbol>
<symbol id="icon-arrow" viewBox="0 0 32 32">
<path d="M31.342 5.62h-2.52l-12.309 15.604c-0.125 0.153-0.316 0.243-0.513 0.243-0.202 0-0.389-0.090-0.517-0.243l-12.305-15.604h-2.521c-0.254 0-0.484 0.142-0.591 0.369-0.111 0.227-0.079 0.497 0.074 0.692l15.346 19.452c0.128 0.154 0.315 0.247 0.517 0.247 0.197 0 0.389-0.093 0.513-0.247l15.343-19.453c0.158-0.194 0.183-0.465 0.072-0.692-0.105-0.226-0.337-0.368-0.589-0.368z"></path>
</symbol>
<symbol id="icon-box" viewBox="0 0 32 32">
<path d="M9.457 0.683l-9.457 7.427v23.206h23.204v-0.056l8.779-7.807v-22.741l0.017-0.030h-22.543zM9.767 1.556h9.058l-7.198 6.554h-9.956l8.096-6.554zM22.332 30.444h-21.458v-21.459h21.458v21.459zM22.598 8.111h-9.673l7.199-6.554h9.63l-7.155 6.554zM31.11 23.061l-7.906 7.029v-21.35l7.906-7.242v21.563z"></path>
<path d="M7.865 12.044h7.791v0.873h-7.791v-0.873z"></path>
</symbol>
<symbol id="icon-cart" viewBox="0 0 32 32">
<path d="M6.229 6.933l-0.444-2.667h-1.595c-0.238-0.917-1.066-1.6-2.057-1.6-1.177 0-2.133 0.957-2.133 2.133s0.957 2.133 2.133 2.133c0.991 0 1.819-0.683 2.058-1.6h0.69l0.267 1.6h-0.020l2.758 13.875c-1.315 0.1-2.41 1.113-2.539 2.386-0.076 0.749 0.171 1.5 0.676 2.058 0.506 0.559 1.227 0.881 1.977 0.881h1.067c0 1.765 1.435 3.2 3.2 3.2s3.2-1.435 3.2-3.2h5.867c0 1.765 1.435 3.2 3.2 3.2s3.2-1.435 3.2-3.2h2.133c0.295 0 0.533-0.238 0.533-0.533s-0.238-0.533-0.533-0.533h-2.32c-0.441-1.241-1.623-2.133-3.013-2.133s-2.573 0.892-3.013 2.133h-6.24c-0.441-1.241-1.623-2.133-3.013-2.133s-2.573 0.892-3.013 2.133h-1.253c-0.449 0-0.881-0.193-1.186-0.53-0.308-0.341-0.452-0.779-0.406-1.235 0.081-0.805 0.825-1.435 1.692-1.435h0.422c0.007 0 0.013 0 0.021 0h20.797c1.467-0.001 2.66-1.194 2.66-2.66v-12.274h-25.771zM2.133 5.867c-0.588 0-1.067-0.478-1.067-1.067s0.478-1.067 1.067-1.067 1.067 0.478 1.067 1.067-0.478 1.067-1.067 1.067zM24.533 24c1.177 0 2.133 0.957 2.133 2.133s-0.957 2.133-2.133 2.133-2.133-0.957-2.133-2.133 0.957-2.133 2.133-2.133zM12.267 24c1.177 0 2.133 0.957 2.133 2.133s-0.957 2.133-2.133 2.133-2.133-0.957-2.133-2.133 0.957-2.133 2.133-2.133zM30.933 19.207c0 0.878-0.715 1.593-1.593 1.593h-20.369l-2.544-12.8h24.506v11.207z"></path>
</symbol>
<symbol id="icon-discover" viewBox="0 0 32 32">
<path fill="#fff" style="fill: var(--color3, #fff); stroke: var(--color2, #000)" stroke="#000" stroke-linejoin="miter" stroke-linecap="butt" stroke-miterlimit="4" stroke-width="0.6154" d="M0 5.744h32v20.513h-32v-20.513z"></path>
<path fill="#f47216" style="fill: var(--color1, #f47216)" d="M16.796 13.836c1.269 0 2.298 0.967 2.298 2.162v0.001c0 1.195-1.029 2.164-2.298 2.164s-2.298-0.969-2.298-2.164v-0.001c0-1.195 1.029-2.162 2.298-2.162z"></path>
<path fill="#000" style="fill: var(--color2, #000)" d="M13.187 13.864c0.363 0 0.667 0.073 1.037 0.25v0.933c-0.351-0.323-0.655-0.458-1.057-0.458-0.79 0-1.412 0.616-1.412 1.397 0 0.824 0.602 1.403 1.451 1.403 0.382 0 0.68-0.128 1.018-0.445v0.934c-0.383 0.17-0.694 0.237-1.057 0.237-1.283 0-2.28-0.927-2.28-2.123-0-1.183 1.024-2.129 2.3-2.129zM9.203 13.89c0.474 0 0.907 0.153 1.269 0.451l-0.441 0.543c-0.22-0.232-0.427-0.329-0.679-0.329-0.363 0-0.628 0.195-0.628 0.451 0 0.22 0.148 0.336 0.654 0.512 0.959 0.33 1.243 0.623 1.243 1.269 0 0.787-0.614 1.336-1.49 1.336-0.641 0-1.107-0.238-1.496-0.774l0.544-0.494c0.194 0.353 0.518 0.542 0.92 0.542 0.376 0 0.654-0.244 0.654-0.574 0-0.171-0.084-0.317-0.253-0.421-0.085-0.049-0.253-0.122-0.583-0.232-0.791-0.268-1.063-0.555-1.063-1.115-0-0.666 0.583-1.166 1.348-1.166zM18.832 13.961h0.92l1.152 2.732 1.167-2.732h0.914l-1.866 4.172h-0.453l-1.833-4.172zM6.475 13.967h0.843v4.067h-0.843v-4.067zM23.366 13.967h2.39v0.689h-1.548v0.903h1.491v0.689h-1.491v1.098h1.548v0.689h-2.39v-4.067zM28.109 16.321c0.635-0.122 0.984-0.53 0.984-1.153 0-0.762-0.557-1.201-1.529-1.201h-1.249v4.067h0.842v-1.634h0.11l1.166 1.634h1.036l-1.36-1.713zM27.402 15.839h-0.246v-1.232h0.26c0.525 0 0.81 0.207 0.81 0.603 0 0.409-0.285 0.629-0.823 0.629zM3.768 13.967h-1.237v4.067h1.23c0.654 0 1.127-0.145 1.541-0.47 0.493-0.384 0.784-0.963 0.784-1.561 0-1.2-0.953-2.037-2.319-2.037zM4.752 17.023c-0.265 0.225-0.609 0.323-1.153 0.323h-0.226v-2.69h0.226c0.544 0 0.875 0.092 1.153 0.329 0.291 0.244 0.467 0.623 0.467 1.013s-0.175 0.78-0.467 1.025z"></path>
</symbol>
<symbol id="icon-economy" viewBox="0 0 32 32">
<path d="M16.956 15.132v-3.396c1.595 0.28 1.596 1.271 1.596 1.632h1.912c0-1.994-1.293-3.28-3.508-3.56v-1.358h-1.912v1.358c-2.215 0.28-3.508 1.566-3.508 3.56s1.293 3.28 3.508 3.56v3.396c-1.595-0.28-1.596-1.271-1.596-1.632h-1.912c0 1.994 1.293 3.28 3.508 3.56v1.358h1.912v-1.358c2.215-0.28 3.508-1.566 3.508-3.56s-1.293-3.28-3.508-3.56zM15.044 14.999c-1.595-0.28-1.596-1.271-1.596-1.632s0-1.352 1.596-1.632v3.264zM16.956 20.324v-3.264c1.595 0.28 1.596 1.271 1.596 1.632s-0 1.352-1.596 1.632z"></path>
<path d="M22.587 2.572h-13.174c-3.772 0-6.841 3.069-6.841 6.841v3.228l-1.22-1.22-1.352 1.352 3.528 3.528 3.528-3.528-1.352-1.352-1.22 1.22v-3.228c0-2.718 2.211-4.929 4.929-4.929h13.174c2.718 0 4.929 2.211 4.929 4.929v4.899h1.912v-4.899c0-3.772-3.069-6.841-6.841-6.841z"></path>
<path d="M28.472 16.225l-3.528 3.528 1.352 1.352 1.22-1.22v2.703c0 2.718-2.211 4.929-4.929 4.929h-13.174c-2.718 0-4.929-2.211-4.929-4.929v-4.373h-1.912v4.373c0 3.772 3.069 6.841 6.841 6.841h13.174c3.772 0 6.841-3.069 6.841-6.841v-2.703l1.22 1.22 1.352-1.352-3.528-3.528z"></path>
</symbol>
<symbol id="icon-envelope" viewBox="0 0 32 32">
<path d="M31.319 5.106h-30.638c-0.005 0-0.009 0-0.014 0.001l0 0c-0.37 0.007-0.667 0.308-0.667 0.68v20.426c0 0.376 0.305 0.681 0.681 0.681h30.638c0.376 0 0.681-0.305 0.681-0.681v-20.426c0-0.376-0.305-0.681-0.681-0.681zM29.676 6.468l-9.050 9.050c-0 0-0 0-0 0l-4.625 4.625-4.625-4.625c-0-0-0.001-0-0.001-0.001l-9.050-9.050h27.351zM1.362 7.431l8.569 8.569-8.569 8.569v-17.138zM2.325 25.532l8.569-8.569 4.625 4.625c0.237 0.237 0.608 0.355 0.963 0l4.625-4.625 8.569 8.569h-27.351zM30.638 24.569l-8.569-8.569 8.569-8.569v17.138z"></path>
</symbol>
<symbol id="icon-eye" viewBox="0 0 32 32">
<path d="M31.45 15.305c-0.065-0.082-1.615-2.027-4.273-3.98-3.552-2.61-7.417-3.989-11.177-3.989s-7.625 1.379-11.177 3.989c-2.658 1.953-4.209 3.898-4.273 3.98l-0.55 0.695 0.55 0.695c0.065 0.082 1.615 2.027 4.273 3.98 3.552 2.61 7.417 3.989 11.177 3.989s7.625-1.379 11.177-3.989c2.658-1.953 4.209-3.898 4.273-3.98l0.55-0.695-0.55-0.695zM16 22.070c-3.347 0-6.070-2.723-6.070-6.070 0-0.524 0.067-1.033 0.192-1.519l-1.386-0.233c-0.136 0.562-0.208 1.149-0.208 1.752 0 2.162 0.923 4.112 2.396 5.477-1.896-0.7-3.508-1.683-4.724-2.572-1.507-1.101-2.637-2.214-3.281-2.906 0.644-0.692 1.774-1.805 3.281-2.906 1.217-0.889 2.829-1.871 4.724-2.572l0.93 1.048c1.086-1.017 2.544-1.64 4.145-1.64 3.347 0 6.069 2.723 6.069 6.070s-2.723 6.070-6.069 6.070zM25.799 18.906c-1.217 0.889-2.829 1.871-4.724 2.572 1.473-1.365 2.396-3.315 2.396-5.477s-0.923-4.112-2.396-5.477c1.896 0.7 3.508 1.683 4.724 2.572 1.507 1.101 2.637 2.214 3.281 2.906-0.644 0.692-1.774 1.805-3.281 2.906z"></path>
<path d="M12.137 14.82c-0.114 0.373-0.176 0.769-0.176 1.18 0 2.23 1.808 4.038 4.038 4.038s4.038-1.808 4.038-4.038-1.808-4.038-4.038-4.038c-1.086 0-2.072 0.43-2.797 1.127l1.992 2.245-3.057-0.514z"></path>
</symbol>
<symbol id="icon-facebook" viewBox="0 0 32 32">
<path d="M12.264 28.667h5.333v-10.68h4.805l0.528-5.307h-5.333v-2.68c0-0.736 0.597-1.333 1.333-1.333h4v-5.333h-4c-3.682 0-6.667 2.985-6.667 6.667v2.68h-2.667l-0.528 5.307h3.195v10.68z"></path>
</symbol>
<symbol id="icon-gift" viewBox="0 0 32 32">
<path d="M31.482 7.602h-6.271c0.075-0.065 0.149-0.132 0.219-0.203 0.799-0.799 1.239-1.861 1.239-2.99s-0.44-2.192-1.239-2.99-1.861-1.239-2.99-1.239c-1.126 0-2.185 0.437-2.983 1.232-0.931 0.868-2.575 3.673-3.458 5.457-0.883-1.783-2.527-4.588-3.458-5.457-0.798-0.794-1.857-1.232-2.983-1.232-1.13 0-2.191 0.44-2.99 1.239s-1.239 1.861-1.239 2.99c0 1.13 0.44 2.192 1.239 2.99 0.071 0.071 0.145 0.138 0.219 0.203h-6.271c-0.286 0-0.518 0.232-0.518 0.518v5.838c0 0.286 0.232 0.518 0.518 0.518h1.607v16.827c0 0.286 0.232 0.518 0.518 0.518h26.714c0.286 0 0.518-0.232 0.518-0.518v-16.827h1.608c0.286 0 0.518-0.232 0.518-0.518v-5.838c-0-0.286-0.232-0.518-0.518-0.518zM25.365 5.693c-0.157 0.359-0.381 0.689-0.667 0.974-0.602 0.603-1.404 0.935-2.255 0.935-0.001 0-0.002 0-0.003 0h-3.082c0.616-1.242 1.773-3.188 2.31-3.685 0.005-0.005 0.010-0.009 0.014-0.014 0.845-0.845 2.219-0.845 3.064 0 0.475 0.475 0.698 1.124 0.618 1.79zM6.634 5.693c-0.080-0.665 0.143-1.314 0.618-1.79 0.845-0.845 2.219-0.845 3.064 0 0.005 0.005 0.009 0.009 0.014 0.014 0.537 0.497 1.694 2.442 2.31 3.685h-3.082c-0.001 0-0.002-0-0.003-0-0.852-0.001-1.653-0.333-2.255-0.935-0.285-0.285-0.509-0.615-0.667-0.974zM3.161 30.784v-16.309h9.765v16.309h-9.765zM12.926 13.44h-11.89v-4.802h11.89v4.802zM11.042 3.165c-1.197-1.19-3.107-1.236-4.361-0.142 0.154-0.319 0.362-0.614 0.62-0.872 0.603-0.603 1.405-0.935 2.258-0.935s1.655 0.332 2.258 0.935c0.005 0.005 0.010 0.009 0.014 0.014 0.857 0.793 2.583 3.781 3.375 5.437h-1.42c-0.551-1.218-1.975-3.718-2.744-4.438zM18.039 30.784h-4.078v-16.309h4.078v16.309zM18.039 13.44h-4.078v-4.802h4.078v4.802zM16.794 7.602c0.791-1.657 2.517-4.644 3.375-5.437 0.005-0.005 0.010-0.009 0.015-0.014 0.603-0.603 1.405-0.935 2.258-0.935s1.655 0.332 2.258 0.935c0.258 0.258 0.466 0.553 0.62 0.872-1.254-1.095-3.164-1.048-4.361 0.142-0.769 0.719-2.194 3.22-2.744 4.438h-1.42zM19.074 30.784v-16.309h9.765v16.309h-9.765zM19.074 13.44v-4.802h11.89v4.802h-11.89z"></path>
</symbol>
<symbol id="icon-google-pay" viewBox="0 0 32 32">
<path fill="#5f6368" style="fill: var(--color4, #5f6368)" d="M15.137 15.855v3.724h-1.182v-9.199h3.134c0.756-0.016 1.487 0.271 2.030 0.796 0.55 0.495 0.859 1.203 0.847 1.941 0.016 0.744-0.294 1.457-0.847 1.953-0.548 0.523-1.225 0.784-2.030 0.783l-1.952 0.001zM15.137 11.513v3.212h1.981c0.44 0.013 0.863-0.16 1.169-0.476 0.621-0.603 0.635-1.597 0.031-2.217-0.011-0.011-0.020-0.021-0.031-0.031-0.302-0.323-0.728-0.5-1.169-0.488h-1.981zM22.69 13.080c0.874 0 1.563 0.233 2.069 0.7s0.757 1.107 0.757 1.92v3.88h-1.13v-0.874h-0.051c-0.489 0.72-1.141 1.079-1.953 1.079-0.693 0-1.274-0.205-1.74-0.617-0.453-0.382-0.71-0.948-0.7-1.542 0-0.652 0.247-1.169 0.739-1.554s1.149-0.578 1.972-0.578c0.701 0 1.28 0.129 1.733 0.385v-0.271c0.003-0.405-0.177-0.788-0.488-1.046-0.312-0.282-0.72-0.436-1.141-0.43-0.66 0-1.182 0.279-1.567 0.835l-1.040-0.656c0.571-0.822 1.418-1.232 2.54-1.232v0zM21.16 17.653c-0.001 0.306 0.145 0.593 0.391 0.771 0.261 0.205 0.586 0.315 0.918 0.308 0.499-0.001 0.977-0.2 1.33-0.552 0.391-0.369 0.587-0.8 0.587-1.298-0.369-0.294-0.882-0.441-1.542-0.441-0.48 0-0.881 0.115-1.201 0.347-0.323 0.236-0.484 0.521-0.484 0.865v0zM32.004 13.285l-3.945 9.069h-1.22l1.464-3.173-2.595-5.896h1.284l1.875 4.522h0.025l1.825-4.522h1.287z"></path>
<path fill="#4285f4" style="fill: var(--color5, #4285f4)" d="M10.36 15.051c0-0.361-0.030-0.72-0.091-1.075h-4.984v2.035h2.854c-0.118 0.657-0.499 1.237-1.055 1.606v1.322h1.704c0.997-0.918 1.573-2.279 1.573-3.888v0z"></path>
<path fill="#34a853" style="fill: var(--color6, #34a853)" d="M5.285 20.216c1.426 0 2.628-0.468 3.503-1.276l-1.704-1.322c-0.475 0.322-1.085 0.505-1.799 0.505-1.378 0-2.548-0.929-2.967-2.181h-1.755v1.362c0.897 1.786 2.724 2.912 4.722 2.912z"></path>
<path fill="#fbbc04" style="fill: var(--color7, #fbbc04)" d="M2.318 15.942c-0.221-0.656-0.221-1.367 0-2.023v-1.362h-1.755c-0.751 1.493-0.751 3.254 0 4.747l1.755-1.362z"></path>
<path fill="#ea4335" style="fill: var(--color8, #ea4335)" d="M5.285 11.738c0.753-0.012 1.481 0.272 2.027 0.792l1.509-1.508c-0.957-0.898-2.224-1.392-3.537-1.377-1.998 0-3.825 1.127-4.722 2.912l1.755 1.362c0.418-1.252 1.589-2.181 2.967-2.181z"></path>
</symbol>
<symbol id="icon-heart" viewBox="0 0 32 32">
<path d="M16.054 30.756c-0.24 0-0.478-0.083-0.669-0.252-0.571-0.49-14.004-12.133-15.182-19.311-0.529-3.25-0.029-5.802 1.487-7.582 1.298-1.528 3.292-2.368 5.613-2.368 0.201 0 0.404 0.005 0.605 0.020 0.142-0.007 0.282-0.010 0.421-0.010 2.567 0 5.738 1.129 7.614 5.929 1.053-2.929 3.211-5.92 8.151-5.92 2.78 0 4.955 0.838 6.297 2.417 1.462 1.717 1.927 4.244 1.394 7.514-1.173 7.173-14.494 18.819-15.060 19.309-0.191 0.171-0.431 0.255-0.671 0.255z"></path>
</symbol>
<symbol id="icon-heart1" viewBox="0 0 32 32">
<path d="M14.519 29.605c0.398 0.398 0.933 0.62 1.494 0.62 0.555 0 1.103-0.228 1.494-0.62l11.726-11.726c1.781-1.781 2.76-4.15 2.767-6.662 0-2.519-0.979-4.887-2.76-6.669s-4.144-2.76-6.662-2.76c-2.473 0-4.803 0.946-6.571 2.669-1.775-1.729-4.111-2.682-6.591-2.682-2.512 0-4.874 0.979-6.656 2.754-1.781 1.781-2.76 4.15-2.76 6.669 0 2.512 0.985 4.881 2.767 6.662l11.752 11.745zM3.896 5.664c1.475-1.475 3.439-2.29 5.527-2.29s4.059 0.816 5.54 2.297l0.483 0.483c0.15 0.15 0.352 0.235 0.568 0.235v0c0.209 0 0.418-0.085 0.568-0.235l0.47-0.47c1.481-1.481 3.445-2.297 5.54-2.297 2.088 0 4.052 0.816 5.527 2.29 1.481 1.481 2.29 3.445 2.29 5.533s-0.816 4.052-2.297 5.533l-11.732 11.732c-0.189 0.189-0.535 0.189-0.731 0l-11.745-11.745c-1.481-1.481-2.297-3.445-2.297-5.533s0.816-4.052 2.29-5.533z"></path>
</symbol>
<symbol id="icon-instagram" viewBox="0 0 32 32">
<path d="M16 0c-4.347 0-4.889 0.020-6.596 0.096-1.704 0.080-2.864 0.348-3.884 0.744-1.052 0.408-1.945 0.956-2.835 1.845s-1.439 1.781-1.845 2.835c-0.396 1.020-0.665 2.18-0.744 3.884-0.080 1.707-0.096 2.249-0.096 6.596s0.020 4.889 0.096 6.596c0.080 1.703 0.348 2.864 0.744 3.884 0.408 1.051 0.956 1.945 1.845 2.835 0.889 0.888 1.781 1.439 2.835 1.845 1.021 0.395 2.181 0.665 3.884 0.744 1.707 0.080 2.249 0.096 6.596 0.096s4.889-0.020 6.596-0.096c1.703-0.080 2.864-0.349 3.884-0.744 1.051-0.408 1.945-0.957 2.835-1.845 0.888-0.889 1.439-1.78 1.845-2.835 0.395-1.020 0.665-2.181 0.744-3.884 0.080-1.707 0.096-2.249 0.096-6.596s-0.020-4.889-0.096-6.596c-0.080-1.703-0.349-2.865-0.744-3.884-0.408-1.052-0.957-1.945-1.845-2.835-0.889-0.889-1.78-1.439-2.835-1.845-1.020-0.396-2.181-0.665-3.884-0.744-1.707-0.080-2.249-0.096-6.596-0.096zM16 2.88c4.271 0 4.78 0.021 6.467 0.095 1.56 0.073 2.407 0.332 2.969 0.553 0.749 0.289 1.28 0.636 1.843 1.195 0.559 0.56 0.905 1.092 1.195 1.841 0.219 0.563 0.48 1.409 0.551 2.969 0.076 1.688 0.093 2.195 0.093 6.467s-0.020 4.78-0.099 6.467c-0.081 1.56-0.341 2.407-0.561 2.969-0.299 0.749-0.639 1.28-1.199 1.843-0.559 0.559-1.099 0.905-1.84 1.195-0.56 0.219-1.42 0.48-2.98 0.551-1.699 0.076-2.199 0.093-6.479 0.093-4.281 0-4.781-0.020-6.479-0.099-1.561-0.081-2.421-0.341-2.981-0.561-0.759-0.299-1.28-0.639-1.839-1.199-0.561-0.559-0.92-1.099-1.2-1.84-0.22-0.56-0.479-1.42-0.56-2.98-0.060-1.68-0.081-2.199-0.081-6.459 0-4.261 0.021-4.781 0.081-6.481 0.081-1.56 0.34-2.419 0.56-2.979 0.28-0.76 0.639-1.28 1.2-1.841 0.559-0.559 1.080-0.919 1.839-1.197 0.56-0.221 1.401-0.481 2.961-0.561 1.7-0.060 2.2-0.080 6.479-0.080l0.060 0.040zM16 7.784c-4.54 0-8.216 3.68-8.216 8.216 0 4.54 3.68 8.216 8.216 8.216 4.54 0 8.216-3.68 8.216-8.216 0-4.54-3.68-8.216-8.216-8.216zM16 21.333c-2.947 0-5.333-2.387-5.333-5.333s2.387-5.333 5.333-5.333 5.333 2.387 5.333 5.333-2.387 5.333-5.333 5.333zM26.461 7.46c0 1.060-0.861 1.92-1.92 1.92-1.060 0-1.92-0.861-1.92-1.92s0.861-1.919 1.92-1.919c1.057-0.001 1.92 0.86 1.92 1.919z"></path>
</symbol>
<symbol id="icon-location" viewBox="0 0 32 32">
<path d="M25.333 12c0-5.155-4.179-9.333-9.333-9.333s-9.333 4.179-9.333 9.333c0 1.849 0.547 3.569 1.473 5.020h-0.011c3.147 4.927 7.871 12.313 7.871 12.313l7.871-12.313h-0.009c0.925-1.451 1.472-3.171 1.472-5.020zM16 16c-2.209 0-4-1.791-4-4s1.791-4 4-4 4 1.791 4 4-1.791 4-4 4z"></path>
</symbol>
<symbol id="icon-mail" viewBox="0 0 32 32">
<path d="M0 10.2v11.738l8.384-5.45z"></path>
<path d="M32 21.938v-11.738l-8.384 6.288z"></path>
<path d="M16 22.2l-5.571-4.179-10.429 6.779v2.4h32v-2.4l-10.429-6.779z"></path>
<path d="M0 7.2l16 12 16-12v-2.4h-32z"></path>
</symbol>
<symbol id="icon-mastercard" viewBox="0 0 32 32">
<path fill="#ea001b" style="fill: var(--color9, #ea001b)" d="M18.667 16c0 5.155-4.179 9.333-9.333 9.333s-9.333-4.179-9.333-9.333c0-5.155 4.179-9.333 9.333-9.333s9.333 4.179 9.333 9.333z"></path>
<path fill="#ffa200" style="fill: var(--color10, #ffa200)" opacity="0.8" d="M32 16c0 5.155-4.179 9.333-9.333 9.333s-9.333-4.179-9.333-9.333c0-5.155 4.179-9.333 9.333-9.333s9.333 4.179 9.333 9.333z"></path>
</symbol>
<symbol id="icon-pencil" viewBox="0 0 32 32">
<path d="M4.425 21.976l6.628 5.943 14.059-15.668-6.629-5.946-14.058 15.671zM16.822 13.579l-7.893 8.799c-0.099 0.109-0.237 0.177-0.385 0.185-0.148 0.009-0.294-0.043-0.403-0.143l-0.392-0.352c-0.229-0.205-0.248-0.558-0.043-0.787l7.893-8.799c0.099-0.11 0.237-0.177 0.385-0.185s0.294 0.044 0.403 0.142l0.392 0.351c0.229 0.207 0.247 0.559 0.043 0.789zM19.118 9.395l0.391 0.35c0.231 0.205 0.249 0.559 0.044 0.787l-0.686 0.765c-0.101 0.11-0.238 0.176-0.386 0.185-0.148 0.008-0.293-0.043-0.403-0.142l-0.392-0.351c-0.109-0.099-0.176-0.237-0.186-0.386-0.008-0.148 0.044-0.294 0.144-0.403l0.686-0.765c0.206-0.229 0.56-0.248 0.788-0.041zM20.751 3.778l6.627 5.945-1.628 1.815-6.626-5.945 1.627-1.815zM30.043 3.864l-3.756-3.371c-0.793-0.712-2.010-0.645-2.721 0.148l-2.215 2.47 6.628 5.944 2.215-2.468c0.34-0.381 0.519-0.882 0.488-1.392-0.028-0.511-0.258-0.99-0.639-1.331zM27.843 6.577l-4.017-3.602 1.16-1.292 4.016 3.601-1.159 1.293zM1.352 30.774c-0.102 0.354 0.007 0.736 0.28 0.98 0.273 0.246 0.664 0.314 1.004 0.175l7.621-3.122-6.626-5.945-2.28 7.911zM8.089 28.431l-2.994 1.226-1.751-1.571 0.896-3.108 3.849 3.454z"></path>
</symbol>
<symbol id="icon-phone" viewBox="0 0 32 32">
<path d="M29.82 21.281c-1.625-1.306-3.117-1.941-4.559-1.941-2.086 0-3.588 1.327-4.948 2.686-0.156 0.156-0.346 0.229-0.596 0.229-1.146 0-3.162-1.435-5.991-4.265-3.329-3.329-4.588-5.447-3.741-6.293 2.294-2.294 3.011-4.593-0.502-8.961-1.258-1.565-2.488-2.326-3.761-2.326-1.717 0-3.023 1.373-4.175 2.584-0.199 0.209-0.387 0.407-0.572 0.592-1.302 1.302-1.301 4.141 0.002 7.596 1.43 3.79 4.253 7.914 7.949 11.61 2.858 2.858 5.969 5.168 8.994 6.719 2.642 1.354 5.204 2.080 7.215 2.080 0 0 0 0 0.001 0 1.259 0 2.281-0.275 2.956-0.833 1.371-1.134 3.924-3.234 3.907-5.729-0.009-1.338-0.743-2.592-2.18-3.747z"></path>
</symbol>
<symbol id="icon-phone1" viewBox="0 0 32 32">
<path d="M21.684 22.587c-0.325-0.323-0.776-0.501-1.271-0.501-0.522 0-1.025 0.204-1.381 0.56l-2.25 2.248-0.607-0.336c-1.337-0.742-3.167-1.758-5.101-3.694-1.941-1.939-2.958-3.774-3.702-5.117l-0.331-0.591 2.252-2.252c0.745-0.747 0.771-1.937 0.056-2.653l-4.161-4.16c-0.324-0.324-0.775-0.502-1.27-0.502-0.522 0-1.024 0.204-1.381 0.561l-1.022 1.028-0.095 0.156c-0.381 0.488-0.692 1.036-0.924 1.634-0.216 0.569-0.351 1.11-0.413 1.653-0.536 4.459 1.52 8.553 7.099 14.131 6.61 6.609 12.135 7.124 13.671 7.124 0.264 0 0.423-0.015 0.467-0.020 0.568-0.069 1.11-0.206 1.659-0.417 0.591-0.231 1.138-0.54 1.625-0.92l0.233-0.183 0.956-0.938c0.744-0.744 0.768-1.933 0.054-2.647l-4.161-4.164zM25.273 28.883l-0.736 0.728c-0.348 0.335-0.947 0.806-1.823 1.148-0.494 0.191-0.979 0.312-1.479 0.372-0.027 0.003-0.14 0.011-0.322 0.011-1.48 0-6.807-0.498-13.216-6.905-6.31-6.312-7.318-9.973-6.89-13.53 0.056-0.486 0.177-0.969 0.368-1.476 0.348-0.885 0.819-1.484 1.152-1.828l0.725-0.735c0.224-0.224 0.54-0.353 0.867-0.353 0.297 0 0.565 0.104 0.754 0.294l4.162 4.159c0.429 0.431 0.405 1.159-0.057 1.622l-2.65 2.649 0.144 0.244c0.145 0.245 0.298 0.52 0.464 0.82 0.766 1.379 1.813 3.267 3.823 5.277 2.015 2.014 3.895 3.056 5.27 3.818 0.312 0.173 0.583 0.324 0.825 0.468l0.245 0.146 2.649-2.651c0.223-0.222 0.538-0.35 0.866-0.35 0.298 0 0.567 0.104 0.756 0.294l4.16 4.157c0.429 0.434 0.404 1.16-0.055 1.621z"></path>
<path d="M13.46 14.206l-0.073 0.156 0.169 0.044c1.018 0.257 1.949 0.782 2.688 1.523 0.706 0.705 1.221 1.589 1.491 2.551l0.029 0.102 0.163 0.005c0.041 0.001 0.083 0.003 0.126 0.006 0.101 0.009 0.2 0.019 0.298 0.031 0.088 0.011 0.176 0.021 0.264 0.029l0.2 0.018-0.046-0.196c-0.293-1.238-0.921-2.364-1.813-3.257-0.846-0.846-1.91-1.456-3.077-1.761l-0.136-0.036-0.039 0.134c-0.069 0.231-0.15 0.45-0.242 0.651z"></path>
<path d="M13.85 10.168l0.013 0.104 0.105 0.021c1.991 0.368 3.786 1.307 5.195 2.715 1.617 1.618 2.604 3.68 2.854 5.968l0.012 0.108 0.315 0.046c0.101 0.008 0.2 0.008 0.3 0.008 0.075-0.002 0.149 0 0.223 0.003l0.164 0.006-0.016-0.164c-0.253-2.573-1.34-4.883-3.142-6.686-1.613-1.613-3.674-2.666-5.96-3.043l-0.197-0.033 0.031 0.197c0.040 0.251 0.075 0.501 0.103 0.75z"></path>
<path d="M23.046 9.125c-2.678-2.678-6.246-4.272-10.047-4.489l-0.18-0.012 0.030 0.178c0.039 0.24 0.086 0.485 0.133 0.735l0.022 0.107 0.109 0.007c3.489 0.239 6.763 1.724 9.222 4.183 2.42 2.42 3.9 5.657 4.165 9.114l0.011 0.143 0.142-0.009c0.158-0.010 0.315-0.022 0.472-0.036l0.392-0.032-0.012-0.144c-0.283-3.692-1.867-7.152-4.46-9.745z"></path>
<path d="M31.988 18.446c-0.379-4.719-2.43-9.157-5.767-12.497-3.564-3.563-8.308-5.631-13.357-5.819l-0.14-0.006-0.011 0.139c-0.011 0.16-0.016 0.319-0.022 0.48l-0.017 0.39 0.144 0.006c4.8 0.178 9.306 2.14 12.69 5.524 3.171 3.171 5.117 7.385 5.479 11.869l0.012 0.147 0.148-0.015c0.213-0.022 0.431-0.039 0.649-0.056l0.204-0.016-0.012-0.145z"></path>
</symbol>
<symbol id="icon-pinterest" viewBox="0 0 32 32">
<path d="M13.787 21.163c-0.842 4.406-1.867 8.63-4.909 10.837-0.938-6.659 1.378-11.659 2.454-16.968-1.835-3.088 0.221-9.299 4.088-7.768 4.76 1.882-4.122 11.475 1.84 12.675 6.226 1.25 8.766-10.8 4.906-14.718-5.576-5.661-16.234-0.133-14.922 7.971 0.318 1.981 2.365 2.581 0.818 5.315-3.57-0.79-4.635-3.606-4.498-7.36 0.221-6.144 5.518-10.443 10.834-11.040 6.722-0.754 13.030 2.469 13.902 8.79 0.981 7.138-3.034 14.869-10.222 14.312-1.949-0.152-2.765-1.118-4.291-2.046z"></path>
</symbol>
<symbol id="icon-plus" viewBox="0 0 32 32">
<path d="M28.867 12.288l-9.865-0.001-0.001-9.154c0.001-1.73-1.403-3.133-3.133-3.133s-3.132 1.403-3.132 3.133v9.155l-9.603-0.001c-1.73 0.001-3.133 1.403-3.133 3.133 0.001 1.73 1.403 3.132 3.133 3.132h9.603v10.315c0 1.732 1.403 3.133 3.133 3.133s3.132-1.403 3.133-3.132v-10.316h9.866c1.729 0 3.132-1.402 3.132-3.131 0.002-1.731-1.403-3.134-3.133-3.133z"></path>
</symbol>
<symbol id="icon-print" viewBox="0 0 32 32">
<path d="M29.548 9.137h-1.716v-5.444c0-0.847-0.689-1.537-1.537-1.537h-20.591c-0.847 0-1.537 0.689-1.537 1.537v5.444h-1.716c-1.354 0-2.452 1.098-2.452 2.452v8.82c0 1.354 1.098 2.452 2.452 2.452h1.716v5.444c0 0.847 0.689 1.537 1.537 1.537h20.591c0.847 0 1.537-0.689 1.537-1.537v-5.444h1.716c1.354 0 2.452-1.098 2.452-2.452v-8.82c-0-1.354-1.098-2.452-2.452-2.452zM6.096 4.084h19.809v5.054h-19.809v-5.054zM6.096 27.916v-11.554h19.809v11.554h-19.809z"></path>
<path d="M22.47 18.93h-12.941c-0.532 0-0.964 0.432-0.964 0.964s0.432 0.964 0.964 0.964h12.941c0.532 0 0.964-0.431 0.964-0.964s-0.431-0.964-0.964-0.964z"></path>
<path d="M22.47 23.087h-12.941c-0.532 0-0.964 0.431-0.964 0.964s0.432 0.964 0.964 0.964h12.941c0.532 0 0.964-0.431 0.964-0.964s-0.431-0.964-0.964-0.964z"></path>
</symbol>
<symbol id="icon-ruler" viewBox="0 0 32 32">
<path d="M26.667 12.114v4.553c0 0.368-0.298 0.667-0.667 0.667s-0.667-0.298-0.667-0.667v-4.667h-2.667v3.333c0 0.368-0.298 0.667-0.667 0.667s-0.667-0.298-0.667-0.667v-3.333h-2.667v4.667c0 0.368-0.298 0.667-0.667 0.667s-0.667-0.298-0.667-0.667v-4.667h-2.667v3.333c0 0.368-0.298 0.667-0.667 0.667s-0.667-0.298-0.667-0.667v-3.333h-2.667v4.667c0 0.368-0.298 0.667-0.667 0.667s-0.667-0.298-0.667-0.667v-4.667h-2.667v3.333c0 0.368-0.298 0.667-0.667 0.667s-0.667-0.298-0.667-0.667v-3.22c-0.777 0.275-1.333 1.015-1.333 1.886v4c0 1.105 0.895 2 2 2h20c1.105 0 2-0.895 2-2v-4c0-0.871-0.557-1.612-1.333-1.886v0zM2.667 14c0-1.841 1.492-3.333 3.333-3.333h20c1.841 0 3.333 1.492 3.333 3.333v4c0 1.841-1.492 3.333-3.333 3.333h-20c-1.841 0-3.333-1.492-3.333-3.333v-4z"></path>
</symbol>
<symbol id="icon-sale" viewBox="0 0 32 32">
<path d="M30.291 1.709c-2.279-2.279-5.986-2.279-8.265 0-0.221 0.221-0.221 0.579 0 0.8s0.579 0.221 0.8 0c1.522-1.522 4.544-2.121 6.665 0 2.083 2.083 1.549 5.116 0 6.665-0.352 0.352-0.747 0.636-1.167 0.853v-0.507c0-3.222-2.622-5.844-5.844-5.844h-6.452c-0.15 0-0.294 0.060-0.4 0.166l-15.463 15.463c-0.221 0.221-0.221 0.579 0 0.8l11.73 11.73c0.11 0.11 0.255 0.166 0.4 0.166s0.29-0.055 0.4-0.166l15.463-15.463c0.106-0.106 0.166-0.25 0.166-0.4v-4.699c0.712-0.283 1.383-0.714 1.967-1.299 2.279-2.279 2.279-5.986 0-8.264zM27.193 10.437c-0.927 0.207-1.904 0.133-2.793-0.224 0.227-0.69 0.101-1.498-0.507-2.106-0.809-0.809-2.124-0.809-2.933 0-0.826 0.826-0.787 2.146 0 2.933 0.689 0.689 1.918 0.865 2.796 0.125 1.076 0.484 2.278 0.633 3.437 0.428v4.145l-14.897 14.897-10.93-10.93 14.897-14.897h6.218c2.599 0 4.713 2.114 4.713 4.713v0.917zM22.36 8.631c0.265-0.018 0.534 0.077 0.733 0.276 0.218 0.218 0.29 0.482 0.27 0.728-0.188-0.138-0.367-0.292-0.537-0.462s-0.325-0.351-0.466-0.543zM22.626 10.494c-0.302 0.065-0.631-0.019-0.866-0.254-0.248-0.248-0.321-0.573-0.256-0.866 0.16 0.21 0.334 0.411 0.522 0.599s0.39 0.362 0.599 0.52z"></path>
<path d="M15.095 9.707l-9.598 9.597c-0.221 0.221-0.221 0.579 0 0.8l6.398 6.398c0.11 0.11 0.255 0.166 0.4 0.166s0.29-0.055 0.4-0.166l9.597-9.597c0.221-0.221 0.221-0.579 0-0.8l-6.398-6.398c-0.221-0.221-0.579-0.221-0.8 0zM12.296 25.303l-5.599-5.599 8.798-8.798 5.599 5.599-8.798 8.798z"></path>
</symbol>
<symbol id="icon-search" viewBox="0 0 32 32">
<path d="M31.238 30.977l-8.977-9.336c2.29-2.296 3.708-5.462 3.708-8.954 0-6.996-5.691-12.687-12.687-12.687s-12.687 5.691-12.687 12.687 5.691 12.687 12.687 12.687c3.071 0 5.889-1.098 8.086-2.919l8.999 9.359c0.118 0.124 0.277 0.185 0.436 0.185 0.151 0 0.301-0.056 0.419-0.169 0.24-0.231 0.248-0.614 0.017-0.854zM13.281 24.166c-6.33 0-11.479-5.149-11.479-11.479s5.149-11.479 11.479-11.479 11.479 5.149 11.479 11.479-5.15 11.479-11.479 11.479z"></path>
</symbol>
<symbol id="icon-snapchat" viewBox="0 0 32 32">
<path d="M16.018 1.231c0.053-0.001 0.116-0.002 0.178-0.002 1.654 0 3.194 0.492 4.48 1.338l-0.031-0.018c2.225 1.359 3.689 3.774 3.689 6.53 0 0.215-0.009 0.43-0.027 0.641l0.001-0.027q0 0.903-0.174 3.673c0.156 0.082 0.341 0.133 0.538 0.135h0.001c0.363-0.030 0.697-0.122 1.002-0.267l-0.017 0.007c0.288-0.138 0.622-0.231 0.975-0.26l0.010-0.001c0.404 0.005 0.777 0.134 1.083 0.351l-0.006-0.004c0.31 0.18 0.516 0.508 0.519 0.886-0.010 0.441-0.247 0.823-0.599 1.035l-0.006 0.004c-0.379 0.268-0.822 0.476-1.3 0.599l-0.028 0.006c-0.503 0.127-0.945 0.319-1.348 0.569l0.020-0.011c-0.346 0.17-0.585 0.512-0.606 0.911v0.002c0.027 0.305 0.11 0.586 0.236 0.841l-0.006-0.014c0.513 1.114 1.174 2.068 1.972 2.887l-0.002-0.002c0.767 0.814 1.691 1.471 2.725 1.922l0.053 0.021c0.434 0.176 0.95 0.33 1.483 0.433l0.054 0.009c0.306 0.041 0.542 0.3 0.542 0.615 0 0.021-0.001 0.041-0.002 0.060v-0.002q0 1.346-4.212 1.982c-0.112 0.218-0.188 0.473-0.212 0.742v0.007c-0.039 0.332-0.135 0.635-0.276 0.91l0.007-0.015c-0.113 0.214-0.335 0.357-0.59 0.357-0.016 0-0.032 0-0.048-0.001h0.002c-0.433-0.016-0.844-0.060-1.246-0.133l0.053 0.007c-0.361-0.066-0.785-0.111-1.217-0.124h-0.014c-0.026 0-0.057 0-0.087 0-0.39 0-0.773 0.036-1.143 0.105l0.038-0.006c-0.455 0.076-0.862 0.228-1.228 0.442l0.017-0.009c-0.428 0.242-0.793 0.484-1.14 0.748l0.025-0.017q-0.519 0.394-1.115 0.779c-0.421 0.265-0.906 0.485-1.42 0.634l-0.041 0.010c-0.55 0.165-1.182 0.26-1.836 0.26-0.025 0-0.048 0-0.071 0h0.004c-0.016 0-0.036 0-0.054 0-0.642 0-1.262-0.095-1.846-0.272l0.046 0.012c-0.549-0.159-1.028-0.379-1.465-0.657l0.022 0.014q-0.591-0.385-1.105-0.779c-0.322-0.246-0.687-0.489-1.067-0.705l-0.048-0.026c-0.346-0.204-0.75-0.354-1.179-0.43l-0.021-0.002c-0.341-0.063-0.732-0.098-1.132-0.098-0.028 0-0.055 0-0.084 0h0.004c-0.454 0.014-0.887 0.065-1.308 0.153l0.049-0.009c-0.327 0.071-0.713 0.123-1.108 0.143l-0.018 0.001c-0.018 0.001-0.041 0.002-0.063 0.002-0.261 0-0.489-0.143-0.608-0.354l-0.001-0.004c-0.135-0.266-0.231-0.575-0.267-0.901l-0.001-0.012c-0.022-0.284-0.098-0.545-0.217-0.782l0.005 0.012q-4.21-0.636-4.21-1.982c-0.001-0.017-0.002-0.038-0.002-0.058 0-0.315 0.234-0.575 0.538-0.615h0.004c0.587-0.113 1.103-0.266 1.596-0.463l-0.058 0.021c1.089-0.469 2.014-1.126 2.774-1.938l0.004-0.005c0.799-0.816 1.46-1.77 1.943-2.822l0.026-0.063c0.122-0.241 0.203-0.522 0.23-0.818l0.001-0.009c-0.021-0.401-0.26-0.743-0.599-0.911l-0.006-0.002c-0.384-0.24-0.83-0.434-1.302-0.56l-0.034-0.007c-0.508-0.134-0.954-0.342-1.35-0.615l0.015 0.010c-0.354-0.206-0.593-0.578-0.606-1.008v-0.001c0.006-0.369 0.203-0.69 0.496-0.873l0.005-0.002c0.292-0.219 0.658-0.352 1.057-0.356h0.001c0.341 0.036 0.654 0.124 0.94 0.257l-0.018-0.007c0.299 0.137 0.645 0.226 1.010 0.25h0.033c0.215 0 0.418-0.050 0.598-0.139l-0.007 0.004q-0.174-2.73-0.174-3.654c-0.009-0.142-0.014-0.308-0.014-0.474 0-1.072 0.194-2.1 0.551-3.047l-0.020 0.059c0.693-1.609 1.836-2.913 3.271-3.787l0.036-0.021c1.417-0.764 3.1-1.212 4.89-1.212 0.066 0 0.133 0.001 0.199 0.002h-0.010z"></path>
</symbol>
<symbol id="icon-star" viewBox="0 0 32 32">
<path d="M31.952 12.325c-0.116-0.357-0.425-0.617-0.796-0.671l-9.861-1.434-4.41-8.935c-0.166-0.337-0.509-0.55-0.884-0.55s-0.718 0.213-0.885 0.55l-4.41 8.935-9.861 1.434c-0.372 0.054-0.68 0.314-0.796 0.671s-0.019 0.749 0.25 1.011l7.136 6.955-1.684 9.821c-0.063 0.37 0.089 0.744 0.392 0.965s0.706 0.25 1.039 0.075l8.82-4.636 8.82 4.636c0.144 0.076 0.302 0.113 0.459 0.113 0.001 0 0.002 0 0.003 0s0 0 0 0c0.545 0 0.986-0.442 0.986-0.986 0-0.083-0.010-0.163-0.029-0.24l-1.672-9.748 7.135-6.955c0.269-0.262 0.366-0.654 0.25-1.011zM22.819 19.241c-0.233 0.227-0.339 0.553-0.284 0.873l1.434 8.362-7.51-3.948c-0.287-0.151-0.631-0.151-0.918 0l-7.51 3.948 1.434-8.362c0.055-0.32-0.051-0.646-0.284-0.873l-6.076-5.922 8.397-1.221c0.321-0.047 0.599-0.248 0.743-0.54l3.755-7.608 3.755 7.608c0.144 0.291 0.421 0.493 0.743 0.54l8.396 1.221-6.076 5.922z"></path>
</symbol>
<symbol id="icon-tiktok" viewBox="0 0 32 32">
<path d="M16.707 0.027c1.747-0.027 3.48-0.013 5.213-0.027 0.107 2.040 0.84 4.12 2.333 5.56 1.493 1.48 3.6 2.16 5.653 2.387v5.373c-1.92-0.067-3.853-0.467-5.6-1.293-0.76-0.347-1.467-0.787-2.16-1.24-0.013 3.893 0.013 7.787-0.027 11.667-0.107 1.867-0.72 3.72-1.8 5.253-1.747 2.56-4.773 4.227-7.88 4.28-1.907 0.107-3.813-0.413-5.44-1.373-2.693-1.587-4.587-4.493-4.867-7.613-0.027-0.667-0.040-1.333-0.013-1.987 0.24-2.533 1.493-4.96 3.44-6.613 2.213-1.92 5.307-2.84 8.2-2.293 0.027 1.973-0.053 3.947-0.053 5.92-1.32-0.427-2.867-0.307-4.027 0.493-0.84 0.547-1.48 1.387-1.813 2.333-0.28 0.68-0.2 1.427-0.187 2.147 0.32 2.187 2.427 4.027 4.667 3.827 1.493-0.013 2.92-0.88 3.693-2.147 0.253-0.44 0.533-0.893 0.547-1.413 0.133-2.387 0.080-4.76 0.093-7.147 0.013-5.373-0.013-10.733 0.027-16.093z"></path>
</symbol>
<symbol id="icon-twitter" viewBox="0 0 32 32">
<path d="M31.937 6.093c-1.177 0.516-2.437 0.871-3.765 1.032 1.355-0.813 2.391-2.099 2.885-3.631-1.271 0.74-2.677 1.276-4.172 1.579-1.192-1.276-2.896-2.079-4.787-2.079-3.625 0-6.563 2.937-6.563 6.557 0 0.521 0.063 1.021 0.172 1.495-5.453-0.255-10.287-2.875-13.52-6.833-0.568 0.964-0.891 2.084-0.891 3.303 0 2.281 1.161 4.281 2.916 5.457-1.073-0.031-2.083-0.328-2.968-0.817v0.079c0 3.181 2.26 5.833 5.26 6.437-0.547 0.145-1.131 0.229-1.724 0.229-0.421 0-0.823-0.041-1.224-0.115 0.844 2.604 3.26 4.5 6.14 4.557-2.239 1.755-5.077 2.801-8.135 2.801-0.521 0-1.041-0.025-1.563-0.088 2.917 1.86 6.36 2.948 10.079 2.948 12.067 0 18.661-9.995 18.661-18.651 0-0.276 0-0.557-0.021-0.839 1.287-0.917 2.401-2.079 3.281-3.396z"></path>
</symbol>
<symbol id="icon-user" viewBox="0 0 32 32">
<path d="M16 0c-4.321 0-7.837 3.516-7.837 7.837s3.516 7.837 7.837 7.837 7.837-3.516 7.837-7.837-3.516-7.837-7.837-7.837zM16 13.714c-3.241 0-5.878-2.637-5.878-5.878s2.637-5.878 5.878-5.878 5.878 2.637 5.878 5.878c0 3.241-2.637 5.878-5.878 5.878z"></path>
<path d="M16 17.633c-7.382 0-13.388 6.006-13.388 13.388v0.98h26.776v-0.98c0-7.382-6.006-13.388-13.388-13.388zM4.613 30.041c0.499-5.845 5.415-10.449 11.387-10.449s10.888 4.604 11.387 10.449h-22.774z"></path>
</symbol>
<symbol id="icon-user1" viewBox="0 0 32 32">
<path d="M22.732 15.463c-0.433 0.545-0.919 1.048-1.477 1.502 3.188 1.828 5.339 5.266 5.339 9.197 0 2.124-4.654 3.788-10.594 3.788s-10.594-1.664-10.594-3.788c0-3.931 2.152-7.368 5.339-9.197-0.558-0.454-1.045-0.957-1.477-1.502-3.55 2.242-5.913 6.199-5.913 10.699 0 1.363 0.746 3.263 4.302 4.572 2.218 0.817 5.181 1.266 8.343 1.266s6.125-0.45 8.343-1.266c3.556-1.309 4.302-3.209 4.302-4.572-0-4.5-2.363-8.457-5.913-10.699z"></path>
<path d="M16 16.814c3.985 0 7.054-3.852 7.054-8.407 0-4.557-3.070-8.407-7.054-8.407-3.985 0-7.054 3.852-7.054 8.407 0 4.557 3.070 8.407 7.054 8.407zM16 2.050c2.759 0 5.003 2.852 5.003 6.357s-2.244 6.357-5.003 6.357-5.003-2.852-5.003-6.357 2.245-6.357 5.003-6.357z"></path>
</symbol>
<symbol id="icon-vimeo" viewBox="0 0 32 32">
<path d="M31.969 8.555c-0.14 3.117-2.319 7.391-6.525 12.812-4.357 5.663-8.035 8.493-11.053 8.493-1.879 0-3.437-1.725-4.737-5.175l-2.557-9.485c-0.959-3.445-1.984-5.171-3.083-5.171-0.239 0-1.075 0.504-2.508 1.509l-1.505-1.943c1.58-1.392 3.135-2.779 4.668-4.171 2.105-1.824 3.687-2.78 4.739-2.879 2.489-0.24 4.021 1.467 4.596 5.117 0.62 3.937 1.052 6.385 1.295 7.343 0.719 3.267 1.508 4.899 2.368 4.899 0.669 0 1.675-1.061 3.020-3.18 1.339-2.119 2.053-3.729 2.149-4.837 0.192-1.828-0.527-2.748-2.152-2.748-0.765 0-1.556 0.161-2.369 0.521 1.581-5.157 4.579-7.676 9.016-7.516 3.297 0.080 4.837 2.219 4.657 6.396l-0.017 0.013z"></path>
</symbol>
<symbol id="icon-visa" viewBox="0 0 32 32">
<path d="M16.55 14.116c-0.018 1.439 1.283 2.243 2.263 2.72 1.007 0.49 1.345 0.804 1.341 1.242-0.008 0.671-0.803 0.967-1.548 0.978-1.299 0.020-2.054-0.351-2.655-0.631l-0.468 2.19c0.603 0.278 1.718 0.52 2.875 0.53 2.715 0 4.492-1.34 4.502-3.419 0.011-2.638-3.649-2.784-3.624-3.963 0.009-0.357 0.35-0.739 1.097-0.836 0.37-0.049 1.391-0.086 2.549 0.447l0.454-2.119c-0.623-0.227-1.423-0.444-2.42-0.444-2.556 0-4.354 1.359-4.368 3.304zM27.705 10.995c-0.496 0-0.914 0.289-1.1 0.733l-3.879 9.262h2.714l0.54-1.492h3.316l0.313 1.492h2.392l-2.087-9.995h-2.208zM28.084 13.695l0.783 3.753h-2.145l1.362-3.753zM13.259 10.995l-2.139 9.995h2.586l2.138-9.995h-2.585zM9.434 10.995l-2.691 6.803-1.089-5.785c-0.128-0.646-0.632-1.019-1.192-1.019h-4.4l-0.061 0.29c0.903 0.196 1.929 0.512 2.551 0.85 0.381 0.207 0.489 0.387 0.614 0.878l2.062 7.976h2.733l4.19-9.995h-2.716z"></path>
</symbol>
</defs>
</svg>
