<svg aria-hidden="true" style="position: absolute; width: 0; height: 0; overflow: hidden;" version="1.1" xmlns="http://www.w3.org/2000/svg" xmlns:xlink="http://www.w3.org/1999/xlink">
<defs>
<symbol id="icon-visa" viewBox="0 0 32 32">
<path fill="#0e4595" style="fill: var(--color1, #0e4595)" d="M1.641 5.744h28.718c0.906 0 1.641 0.735 1.641 1.641v17.231c0 0.906-0.735 1.641-1.641 1.641h-28.718c-0.906 0-1.641-0.735-1.641-1.641v-17.231c0-0.906 0.735-1.641 1.641-1.641z"></path>
<path fill="#fff" style="fill: var(--color2, #fff)" d="M12.029 20.050l1.369-8.031h2.189l-1.37 8.031h-2.188zM22.126 12.192c-0.434-0.163-1.113-0.337-1.962-0.337-2.163 0-3.687 1.089-3.7 2.65-0.012 1.154 1.088 1.798 1.918 2.182 0.852 0.394 1.139 0.645 1.135 0.996-0.005 0.538-0.68 0.784-1.31 0.784-0.876 0-1.342-0.122-2.061-0.422l-0.282-0.128-0.307 1.798c0.511 0.224 1.457 0.418 2.438 0.428 2.301 0 3.795-1.077 3.812-2.744 0.008-0.914-0.575-1.609-1.838-2.182-0.765-0.371-1.234-0.619-1.229-0.996 0-0.334 0.397-0.691 1.254-0.691 0.716-0.011 1.234 0.145 1.638 0.308l0.196 0.093 0.297-1.741zM27.759 12.019h-1.692c-0.524 0-0.916 0.143-1.146 0.666l-3.251 7.36h2.299s0.376-0.99 0.461-1.207c0.251 0 2.484 0.003 2.804 0.003 0.065 0.281 0.266 1.203 0.266 1.203h2.031l-1.772-8.026zM25.075 17.205c0.181-0.463 0.872-2.245 0.872-2.245-0.013 0.021 0.18-0.465 0.29-0.767l0.148 0.692s0.419 1.917 0.507 2.319h-1.817zM10.17 12.019l-2.143 5.477-0.228-1.113c-0.399-1.283-1.642-2.673-3.032-3.369l1.96 7.024 2.316-0.003 3.446-8.016h-2.319z"></path>
<path fill="#f2ae14" style="fill: var(--color3, #f2ae14)" d="M6.027 12.019h-3.53l-0.028 0.167c2.746 0.665 4.563 2.271 5.318 4.201l-0.768-3.691c-0.133-0.508-0.517-0.66-0.992-0.678z"></path>
</symbol>
<symbol id="icon-mastercard" viewBox="0 0 36 32">
<path d="M30.181 25.644c0 0.425-0.288 0.731-0.7 0.731-0.425 0-0.7-0.325-0.7-0.731s0.275-0.731 0.7-0.731c0.413 0 0.7 0.325 0.7 0.731zM10.756 24.913c-0.444 0-0.7 0.325-0.7 0.731s0.256 0.731 0.7 0.731c0.406 0 0.681-0.306 0.681-0.731-0.006-0.406-0.275-0.731-0.681-0.731zM18.1 24.894c-0.337 0-0.544 0.219-0.594 0.544h1.194c-0.056-0.356-0.275-0.544-0.6-0.544zM24.837 24.913c-0.425 0-0.681 0.325-0.681 0.731s0.256 0.731 0.681 0.731c0.425 0 0.7-0.306 0.7-0.731 0-0.406-0.275-0.731-0.7-0.731zM31.456 26.544c0 0.019 0.019 0.031 0.019 0.069 0 0.019-0.019 0.031-0.019 0.069-0.019 0.019-0.019 0.031-0.031 0.050-0.019 0.019-0.031 0.031-0.069 0.031-0.019 0.019-0.031 0.019-0.069 0.019-0.019 0-0.031 0-0.069-0.019-0.019 0-0.031-0.019-0.050-0.031-0.019-0.019-0.031-0.031-0.031-0.050-0.019-0.031-0.019-0.050-0.019-0.069 0-0.031 0-0.050 0.019-0.069 0-0.031 0.019-0.050 0.031-0.069 0.019-0.019 0.031-0.019 0.050-0.031 0.031-0.019 0.050-0.019 0.069-0.019 0.031 0 0.050 0 0.069 0.019 0.031 0.019 0.050 0.019 0.069 0.031s0.012 0.038 0.031 0.069zM31.319 26.631c0.031 0 0.031-0.019 0.050-0.019 0.019-0.019 0.019-0.031 0.019-0.050s0-0.031-0.019-0.050c-0.019 0-0.031-0.019-0.069-0.019h-0.1v0.219h0.050v-0.087h0.019l0.069 0.087h0.050l-0.069-0.081zM36 5.063v22c0 1.656-1.344 3-3 3h-30c-1.656 0-3-1.344-3-3v-22c0-1.656 1.344-3 3-3h30c1.656 0 3 1.344 3 3zM4 13.787c0 4.781 3.881 8.656 8.656 8.656 1.7 0 3.369-0.512 4.781-1.444-4.556-3.706-4.525-10.7 0-14.406-1.413-0.938-3.081-1.444-4.781-1.444-4.775-0.006-8.656 3.875-8.656 8.637zM18 20.587c4.406-3.438 4.387-10.137 0-13.594-4.387 3.456-4.406 10.163 0 13.594zM9.106 25.356c0-0.544-0.356-0.9-0.919-0.919-0.287 0-0.594 0.087-0.8 0.406-0.15-0.256-0.406-0.406-0.763-0.406-0.237 0-0.475 0.087-0.662 0.337v-0.275h-0.513v2.294h0.513c0-1.181-0.156-1.887 0.563-1.887 0.638 0 0.513 0.637 0.513 1.887h0.494c0-1.144-0.156-1.887 0.562-1.887 0.637 0 0.512 0.625 0.512 1.887h0.512v-1.438zM11.912 24.5h-0.494v0.275c-0.169-0.206-0.406-0.337-0.731-0.337-0.644 0-1.137 0.512-1.137 1.206 0 0.7 0.494 1.206 1.137 1.206 0.325 0 0.563-0.119 0.731-0.337v0.288h0.494v-2.3zM14.444 26.1c0-0.938-1.431-0.512-1.431-0.95 0-0.356 0.744-0.3 1.156-0.069l0.206-0.406c-0.588-0.381-1.887-0.375-1.887 0.512 0 0.894 1.431 0.519 1.431 0.938 0 0.394-0.844 0.363-1.294 0.050l-0.219 0.394c0.7 0.475 2.037 0.375 2.037-0.469zM16.656 26.681l-0.137-0.425c-0.238 0.131-0.762 0.275-0.762-0.256v-1.038h0.819v-0.462h-0.819v-0.7h-0.512v0.7h-0.475v0.456h0.475v1.044c0 1.1 1.081 0.9 1.412 0.681zM17.488 25.844h1.719c0-1.012-0.462-1.413-1.087-1.413-0.663 0-1.137 0.494-1.137 1.206 0 1.281 1.413 1.494 2.113 0.887l-0.238-0.375c-0.488 0.4-1.225 0.363-1.369-0.306zM21.181 24.5c-0.288-0.125-0.725-0.113-0.95 0.275v-0.275h-0.512v2.294h0.512v-1.294c0-0.725 0.594-0.631 0.8-0.525l0.15-0.475zM21.844 25.644c0-0.712 0.725-0.944 1.294-0.525l0.238-0.406c-0.725-0.569-2.044-0.256-2.044 0.938 0 1.238 1.4 1.488 2.044 0.938l-0.238-0.406c-0.575 0.406-1.294 0.163-1.294-0.538zM26.012 24.5h-0.512v0.275c-0.519-0.688-1.869-0.3-1.869 0.869 0 1.2 1.4 1.544 1.869 0.869v0.288h0.512v-2.3zM28.119 24.5c-0.15-0.075-0.688-0.181-0.95 0.275v-0.275h-0.494v2.294h0.494v-1.294c0-0.688 0.563-0.644 0.8-0.525l0.15-0.475zM30.637 23.569h-0.494v1.206c-0.512-0.681-1.869-0.319-1.869 0.869 0 1.212 1.406 1.538 1.869 0.869v0.288h0.494v-3.231zM31.113 18.875v0.288h0.050v-0.288h0.119v-0.050h-0.288v0.050h0.119zM31.525 26.613c0-0.031 0-0.069-0.019-0.1-0.019-0.019-0.031-0.050-0.050-0.069s-0.050-0.031-0.069-0.050c-0.031 0-0.069-0.019-0.1-0.019-0.019 0-0.050 0.019-0.087 0.019-0.031 0.019-0.050 0.031-0.069 0.050-0.031 0.019-0.050 0.050-0.050 0.069-0.019 0.031-0.019 0.069-0.019 0.1 0 0.019 0 0.050 0.019 0.087 0 0.019 0.019 0.050 0.050 0.069 0.019 0.019 0.031 0.031 0.069 0.050 0.031 0.019 0.069 0.019 0.087 0.019 0.031 0 0.069 0 0.1-0.019 0.019-0.019 0.050-0.031 0.069-0.050s0.031-0.050 0.050-0.069c0.019-0.038 0.019-0.069 0.019-0.087zM31.725 18.819h-0.087l-0.1 0.219-0.1-0.219h-0.087v0.337h0.050v-0.256l0.1 0.219h0.069l0.087-0.219v0.256h0.069v-0.337zM32 13.787c0-4.763-3.881-8.644-8.656-8.644-1.7 0-3.369 0.513-4.781 1.444 4.506 3.706 4.575 10.719 0 14.406 1.413 0.938 3.094 1.444 4.781 1.444 4.775 0.006 8.656-3.869 8.656-8.65z"></path>
</symbol>
<symbol id="icon-hours" viewBox="0 0 32 32">
<path d="M28.796 15.497c-0.007-0.002-0.014-0.004-0.021-0.006-0.117-0.751-0.768-1.328-1.551-1.328h-0.033v-2.171c0-6.17-5.020-11.19-11.19-11.19s-11.19 5.020-11.19 11.19v2.171h-0.033c-0.783 0-1.434 0.576-1.551 1.327-1.935 0.662-3.225 2.46-3.225 4.518 0 2.049 1.294 3.855 3.225 4.518 0.117 0.751 0.768 1.328 1.551 1.328h1.069c0.866 0 1.57-0.704 1.57-1.57v-8.551c0-0.866-0.704-1.57-1.57-1.57h-0.033v-2.171c0-5.618 4.57-10.188 10.188-10.188s10.188 4.57 10.188 10.188v2.171h-0.033c-0.866 0-1.57 0.704-1.57 1.57v1.67c0 0.277 0.224 0.501 0.501 0.501s0.501-0.224 0.501-0.501v-1.67c0-0.313 0.255-0.568 0.568-0.568h1.069c0.313 0 0.568 0.255 0.568 0.568v8.551c0 0.313-0.255 0.568-0.568 0.568h-1.069c-0.313 0-0.568-0.255-0.568-0.568v-4.81c0-0.277-0.224-0.501-0.501-0.501s-0.501 0.224-0.501 0.501v4.81c0 0.866 0.704 1.57 1.57 1.57h0.033v0.568c0 1.492-1.214 2.706-2.706 2.706h-2.706v-0.033c0-0.571-0.465-1.035-1.035-1.035h-5.344c-0.866 0-1.57 0.704-1.57 1.57s0.704 1.57 1.57 1.57h5.344c0.571 0 1.035-0.465 1.035-1.035v-0.033h2.706c2.044 0 3.708-1.663 3.708-3.708v-0.568h0.033c0.783 0 1.434-0.576 1.551-1.327 1.93-0.662 3.226-2.474 3.226-4.518 0-2.031-1.288-3.844-3.204-4.512zM3.207 23.442c-1.334-0.608-2.205-1.939-2.205-3.434 0-1.501 0.869-2.828 2.205-3.434v6.868zM5.846 15.165c0.313 0 0.568 0.255 0.568 0.568v8.551c0 0.313-0.255 0.568-0.568 0.568h-1.069c-0.313 0-0.568-0.255-0.568-0.568v-8.551c0-0.313 0.255-0.568 0.568-0.568h1.069zM19.775 30.163c0 0.018-0.015 0.033-0.033 0.033h-5.344c-0.313 0-0.568-0.255-0.568-0.568s0.255-0.568 0.568-0.568h5.344c0.018 0 0.033 0.015 0.033 0.033v1.069zM28.793 23.442v-6.866c1.332 0.609 2.205 1.947 2.205 3.433 0 1.491-0.871 2.825-2.205 3.433z"></path>
<path d="M14.397 13.027c0.277 0 0.501-0.224 0.501-0.501v-3.207c0-0.277-0.224-0.501-0.501-0.501h-3.741c-0.277 0-0.501 0.224-0.501 0.501s0.224 0.501 0.501 0.501h3.24v2.205h-3.24c-0.277 0-0.501 0.224-0.501 0.501v3.207c0 0.277 0.224 0.501 0.501 0.501h3.741c0.277 0 0.501-0.224 0.501-0.501s-0.224-0.501-0.501-0.501h-3.24v-2.205h3.24z"></path>
<path d="M21.879 12.025h-1.102v-2.706c0-0.277-0.224-0.501-0.501-0.501s-0.501 0.224-0.501 0.501v2.706h-2.739v-2.706c0-0.277-0.224-0.501-0.501-0.501s-0.501 0.224-0.501 0.501v3.207c0 0.277 0.224 0.501 0.501 0.501h3.24v2.706c0 0.277 0.224 0.501 0.501 0.501s0.501-0.224 0.501-0.501v-2.706h1.102c0.277 0 0.501-0.224 0.501-0.501s-0.224-0.501-0.501-0.501z"></path>
<path d="M16 2.939c-0.277 0-0.501 0.224-0.501 0.501v1.069c0 0.277 0.224 0.501 0.501 0.501s0.501-0.224 0.501-0.501v-1.069c0-0.277-0.224-0.501-0.501-0.501z"></path>
<path d="M10.686 6.503l-0.756-0.756c-0.196-0.196-0.513-0.196-0.709 0s-0.196 0.513 0 0.709l0.756 0.756c0.204 0.204 0.548 0.19 0.735-0.029 0.168-0.196 0.156-0.497-0.027-0.68z"></path>
<path d="M7.983 12.025h-1.069c-0.277 0-0.501 0.224-0.501 0.501s0.224 0.501 0.501 0.501h1.069c0.277 0 0.501-0.224 0.501-0.501s-0.224-0.501-0.501-0.501z"></path>
<path d="M10.686 17.84c-0.196-0.196-0.513-0.196-0.709 0l-0.756 0.756c-0.182 0.182-0.195 0.484-0.027 0.68 0.187 0.219 0.531 0.233 0.735 0.029l0.756-0.756c0.196-0.196 0.196-0.513 0-0.709z"></path>
<path d="M16 20.042c-0.277 0-0.501 0.224-0.501 0.501v1.069c0 0.277 0.224 0.501 0.501 0.501s0.501-0.224 0.501-0.501v-1.069c0-0.277-0.224-0.501-0.501-0.501z"></path>
<path d="M22.779 18.596l-0.756-0.756c-0.196-0.196-0.513-0.196-0.709 0s-0.196 0.513 0 0.709l0.756 0.756c0.204 0.204 0.548 0.19 0.735-0.029 0.168-0.196 0.156-0.497-0.027-0.68z"></path>
<path d="M25.086 12.025h-1.069c-0.277 0-0.501 0.224-0.501 0.501s0.224 0.501 0.501 0.501h1.069c0.277 0 0.501-0.224 0.501-0.501s-0.224-0.501-0.501-0.501z"></path>
<path d="M22.779 5.747c-0.196-0.196-0.513-0.196-0.709 0l-0.756 0.756c-0.182 0.182-0.195 0.484-0.027 0.68 0.187 0.219 0.531 0.233 0.735 0.029l0.756-0.756c0.196-0.196 0.196-0.513 0-0.709z"></path>
</symbol>
<symbol id="icon-basket" viewBox="0 0 32 32">
<path d="M30.965 10.689h-7.435l-5.101-8.835c-0.21-0.363-0.548-0.623-0.953-0.731s-0.828-0.053-1.191 0.157c-0.104 0.060-0.198 0.132-0.284 0.211-0.086-0.080-0.18-0.151-0.284-0.211-0.363-0.21-0.786-0.265-1.191-0.157s-0.744 0.368-0.953 0.731l-5.101 8.835h-7.435c-0.571 0-1.036 0.464-1.036 1.036v2.672c0 0.571 0.465 1.036 1.036 1.036h0.067l0.934 13.539c0.076 1.099 0.998 1.96 2.099 1.96h23.729c1.101 0 2.024-0.861 2.099-1.96l0.934-13.539h0.067c0.571 0 1.035-0.464 1.035-1.036v-2.672c-0-0.571-0.465-1.036-1.036-1.036zM16.521 2.492c0.039-0.146 0.133-0.269 0.265-0.345 0.087-0.050 0.185-0.076 0.283-0.076 0.049 0 0.099 0.006 0.148 0.020 0.146 0.039 0.269 0.133 0.345 0.265l5.344 9.257c0.157 0.271 0.063 0.619-0.208 0.776-0.131 0.076-0.284 0.096-0.431 0.057s-0.269-0.133-0.345-0.265l-5.344-9.257c-0.076-0.131-0.096-0.284-0.057-0.431zM16 3.927l3.904 6.762h-7.808l3.904-6.762zM9.095 11.612l5.344-9.257c0.076-0.131 0.198-0.225 0.345-0.265s0.3-0.019 0.431 0.057c0.131 0.076 0.225 0.198 0.265 0.345s0.019 0.3-0.057 0.431l-5.344 9.257c-0.076 0.131-0.198 0.225-0.345 0.265s-0.3 0.019-0.431-0.057c-0.271-0.157-0.364-0.505-0.208-0.776zM30.998 14.397c0 0.018-0.015 0.033-0.033 0.033h-2.138c-0.277 0-0.501 0.224-0.501 0.501s0.224 0.501 0.501 0.501h1.067l-0.929 13.47c-0.040 0.576-0.523 1.026-1.1 1.026h-23.729c-0.577 0-1.060-0.451-1.1-1.026l-0.929-13.47h24.582c0.277 0 0.501-0.224 0.501-0.501s-0.224-0.501-0.501-0.501h-25.653c-0.018 0-0.033-0.015-0.033-0.033v-2.672c0-0.018 0.015-0.033 0.033-0.033h6.995c-0.080 0.61 0.206 1.238 0.771 1.564 0.242 0.14 0.51 0.211 0.782 0.211 0.136 0 0.274-0.018 0.409-0.054 0.405-0.108 0.744-0.368 0.953-0.731l0.571-0.99h8.965l0.571 0.99c0.21 0.363 0.548 0.623 0.953 0.731 0.135 0.036 0.273 0.054 0.409 0.054 0.272 0 0.541-0.071 0.782-0.211 0.565-0.326 0.851-0.954 0.771-1.564h6.995c0.018 0 0.033 0.015 0.033 0.033v2.672z"></path>
<path d="M17.069 20.309c-0.277 0-0.501 0.224-0.501 0.501v5.879c0 0.313-0.255 0.568-0.568 0.568s-0.568-0.255-0.568-0.568v-8.017c0-0.313 0.255-0.568 0.568-0.568s0.568 0.255 0.568 0.568c0 0.277 0.224 0.501 0.501 0.501s0.501-0.224 0.501-0.501c0-0.866-0.704-1.57-1.57-1.57s-1.57 0.704-1.57 1.57v8.017c0 0.866 0.704 1.57 1.57 1.57s1.57-0.704 1.57-1.57v-5.879c0-0.277-0.224-0.501-0.501-0.501z"></path>
<path d="M21.344 20.309c-0.277 0-0.501 0.224-0.501 0.501v5.879c0 0.313-0.255 0.568-0.568 0.568s-0.568-0.255-0.568-0.568v-8.017c0-0.313 0.255-0.568 0.568-0.568s0.568 0.255 0.568 0.568c0 0.277 0.224 0.501 0.501 0.501s0.501-0.224 0.501-0.501c0-0.866-0.704-1.57-1.57-1.57s-1.57 0.704-1.57 1.57v8.017c0 0.866 0.704 1.57 1.57 1.57s1.57-0.704 1.57-1.57v-5.879c0-0.277-0.224-0.501-0.501-0.501z"></path>
<path d="M25.62 20.309c-0.277 0-0.501 0.224-0.501 0.501v5.879c0 0.313-0.255 0.568-0.568 0.568s-0.568-0.255-0.568-0.568v-8.017c0-0.313 0.255-0.568 0.568-0.568s0.568 0.255 0.568 0.568c0 0.277 0.224 0.501 0.501 0.501s0.501-0.224 0.501-0.501c0-0.866-0.704-1.57-1.57-1.57s-1.57 0.704-1.57 1.57v8.017c0 0.866 0.704 1.57 1.57 1.57s1.57-0.704 1.57-1.57v-5.879c-0-0.277-0.224-0.501-0.501-0.501z"></path>
<path d="M8.518 20.309c-0.277 0-0.501 0.224-0.501 0.501v5.879c0 0.313-0.255 0.568-0.568 0.568s-0.568-0.255-0.568-0.568v-8.017c0-0.313 0.255-0.568 0.568-0.568s0.568 0.255 0.568 0.568c0 0.277 0.224 0.501 0.501 0.501s0.501-0.224 0.501-0.501c0-0.866-0.704-1.57-1.57-1.57s-1.57 0.704-1.57 1.57v8.017c0 0.866 0.704 1.57 1.57 1.57s1.57-0.704 1.57-1.57v-5.879c0-0.277-0.224-0.501-0.501-0.501z"></path>
<path d="M12.793 20.309c-0.277 0-0.501 0.224-0.501 0.501v5.879c0 0.313-0.255 0.568-0.568 0.568s-0.568-0.255-0.568-0.568v-8.017c0-0.313 0.255-0.568 0.568-0.568s0.568 0.255 0.568 0.568c0 0.277 0.224 0.501 0.501 0.501s0.501-0.224 0.501-0.501c0-0.866-0.704-1.57-1.57-1.57s-1.57 0.704-1.57 1.57v8.017c0 0.866 0.704 1.57 1.57 1.57s1.57-0.704 1.57-1.57v-5.879c0-0.277-0.224-0.501-0.501-0.501z"></path>
</symbol>
<symbol id="icon-email" viewBox="0 0 32 32">
<path d="M27.731 14.945c1.063 0 1.982-0.268 2.915-0.739v11.132c0 0.060 0.018 0.12 0.013 0.179l-9.347-8.72 2.996-2.888c0.984 0.653 2.157 1.036 3.423 1.036zM22.854 12.551c-0.837-1.066-1.338-2.408-1.338-3.862 0-1.081 0.28-2.071 0.766-3.003h-20.083c-0.532 0-1.016 0.199-1.39 0.524l14.548 13.556 7.498-7.214zM0 8.229v17.109c0 0.193 0.050 0.38 0.096 0.56l9.281-8.94-9.378-8.728zM16.060 21.861c-0.193 0.186-0.443 0.279-0.693 0.279-0.245 0-0.489-0.089-0.681-0.268l-3.81-3.55-9.43 9.073c0.234 0.090 0.487 0.142 0.753 0.142h26.337c0.389 0 0.753-0.108 1.067-0.292l-9.722-9.059-3.821 3.676zM32 8.705c0 2.339-1.903 4.241-4.242 4.241s-4.241-1.903-4.241-4.241c0-2.339 1.903-4.242 4.241-4.242s4.242 1.903 4.242 4.242zM30.309 6.452c-0.448-0.322-1.072-0.22-1.395 0.227l-1.835 2.55-0.659-0.602c-0.408-0.372-1.040-0.343-1.412 0.064s-0.343 1.040 0.064 1.412l1.488 1.358c0.185 0.169 0.426 0.261 0.674 0.261 0.034 0 0.069-0.002 0.103-0.005 0.284-0.030 0.541-0.179 0.708-0.41l2.49-3.461c0.322-0.448 0.221-1.072-0.227-1.395z"></path>
</symbol>
<symbol id="icon-eye" viewBox="0 0 32 32">
<path d="M31.45 15.305c-0.065-0.082-1.615-2.027-4.273-3.98-3.552-2.61-7.417-3.989-11.177-3.989s-7.625 1.379-11.177 3.989c-2.658 1.953-4.209 3.898-4.273 3.98l-0.55 0.695 0.55 0.695c0.065 0.082 1.615 2.027 4.273 3.98 3.552 2.61 7.417 3.989 11.177 3.989s7.625-1.379 11.177-3.989c2.658-1.953 4.209-3.898 4.273-3.98l0.55-0.695-0.55-0.695zM16 22.070c-3.347 0-6.070-2.723-6.070-6.070 0-0.524 0.067-1.033 0.192-1.519l-1.386-0.233c-0.136 0.562-0.208 1.149-0.208 1.752 0 2.162 0.923 4.112 2.396 5.477-1.896-0.7-3.508-1.683-4.724-2.572-1.507-1.101-2.637-2.214-3.281-2.906 0.644-0.692 1.774-1.805 3.281-2.906 1.217-0.889 2.829-1.871 4.724-2.572l0.93 1.048c1.086-1.017 2.544-1.64 4.145-1.64 3.347 0 6.069 2.723 6.069 6.070s-2.723 6.070-6.069 6.070zM25.799 18.906c-1.217 0.889-2.829 1.871-4.724 2.572 1.473-1.365 2.396-3.315 2.396-5.477s-0.923-4.112-2.396-5.477c1.896 0.7 3.508 1.683 4.724 2.572 1.507 1.101 2.637 2.214 3.281 2.906-0.644 0.692-1.774 1.805-3.281 2.906z"></path>
<path d="M12.137 14.82c-0.114 0.373-0.176 0.769-0.176 1.18 0 2.23 1.808 4.038 4.038 4.038s4.038-1.808 4.038-4.038-1.808-4.038-4.038-4.038c-1.086 0-2.072 0.43-2.797 1.127l1.992 2.245-3.057-0.514z"></path>
</symbol>
<symbol id="icon-facebook" viewBox="0 0 32 32">
<path d="M29.456 0.731h-26.909c-1.409 0-2.547 1.137-2.547 2.544v25.451c0 1.402 1.138 2.543 2.547 2.543h26.909c1.402 0 2.544-1.139 2.544-2.543v-25.451c-0.001-1.407-1.143-2.544-2.544-2.544zM21.51 9.798c-0.662-0.387-1.186-0.693-1.846-0.693-0.646 0-1.197 0.161-1.479 0.433-0.282 0.269-0.422 0.791-0.422 1.562v1.14h3.451l-0.747 3.172h-2.704v10.541h-4.335v-10.541h-2.023v-3.172h2.025v-1.211c0-1.275 0.153-2.038 0.454-2.668 0.3-0.627 0.883-1.326 1.693-1.722 0.809-0.394 2.006-0.593 3.245-0.593 1.27 0 2.262 0.423 3.478 0.764l-0.79 2.987z"></path>
</symbol>
<symbol id="icon-gift" viewBox="0 0 32 32">
<path d="M31.482 7.602h-6.271c0.075-0.065 0.149-0.132 0.219-0.203 0.799-0.799 1.239-1.861 1.239-2.99s-0.44-2.192-1.239-2.99-1.861-1.239-2.99-1.239c-1.126 0-2.185 0.437-2.983 1.232-0.931 0.868-2.575 3.673-3.458 5.457-0.883-1.783-2.527-4.588-3.458-5.457-0.798-0.794-1.857-1.232-2.983-1.232-1.13 0-2.191 0.44-2.99 1.239s-1.239 1.861-1.239 2.99c0 1.13 0.44 2.192 1.239 2.99 0.071 0.071 0.145 0.138 0.219 0.203h-6.271c-0.286 0-0.518 0.232-0.518 0.518v5.838c0 0.286 0.232 0.518 0.518 0.518h1.607v16.827c0 0.286 0.232 0.518 0.518 0.518h26.714c0.286 0 0.518-0.232 0.518-0.518v-16.827h1.608c0.286 0 0.518-0.232 0.518-0.518v-5.838c-0-0.286-0.232-0.518-0.518-0.518zM25.365 5.693c-0.157 0.359-0.381 0.689-0.667 0.974-0.602 0.603-1.404 0.935-2.255 0.935-0.001 0-0.002 0-0.003 0h-3.082c0.616-1.242 1.773-3.188 2.31-3.685 0.005-0.005 0.010-0.009 0.014-0.014 0.845-0.845 2.219-0.845 3.064 0 0.475 0.475 0.698 1.124 0.618 1.79zM6.634 5.693c-0.080-0.665 0.143-1.314 0.618-1.79 0.845-0.845 2.219-0.845 3.064 0 0.005 0.005 0.009 0.009 0.014 0.014 0.537 0.497 1.694 2.442 2.31 3.685h-3.082c-0.001 0-0.002-0-0.003-0-0.852-0.001-1.653-0.333-2.255-0.935-0.285-0.285-0.509-0.615-0.667-0.974zM3.161 30.784v-16.309h9.765v16.309h-9.765zM12.926 13.44h-11.89v-4.802h11.89v4.802zM11.042 3.165c-1.197-1.19-3.107-1.236-4.361-0.142 0.154-0.319 0.362-0.614 0.62-0.872 0.603-0.603 1.405-0.935 2.258-0.935s1.655 0.332 2.258 0.935c0.005 0.005 0.010 0.009 0.014 0.014 0.857 0.793 2.583 3.781 3.375 5.437h-1.42c-0.551-1.218-1.975-3.718-2.744-4.438zM18.039 30.784h-4.078v-16.309h4.078v16.309zM18.039 13.44h-4.078v-4.802h4.078v4.802zM16.794 7.602c0.791-1.657 2.517-4.644 3.375-5.437 0.005-0.005 0.010-0.009 0.015-0.014 0.603-0.603 1.405-0.935 2.258-0.935s1.655 0.332 2.258 0.935c0.258 0.258 0.466 0.553 0.62 0.872-1.254-1.095-3.164-1.048-4.361 0.142-0.769 0.719-2.194 3.22-2.744 4.438h-1.42zM19.074 30.784v-16.309h9.765v16.309h-9.765zM19.074 13.44v-4.802h11.89v4.802h-11.89z"></path>
</symbol>
<symbol id="icon-heart" viewBox="0 0 32 32">
<path d="M28.566 3.339c-1.582-1.206-3.327-1.817-5.188-1.817-2.348 0-4.884 1.002-7.378 2.908-2.494-1.905-5.030-2.908-7.378-2.908-1.861 0-3.606 0.612-5.188 1.817-2.314 1.765-3.469 3.991-3.433 6.619 0.125 8.996 14.733 19.61 15.354 20.058l0.645 0.464 0.645-0.464c0.622-0.447 15.23-11.062 15.354-20.058 0.036-2.627-1.119-4.854-3.433-6.619zM22.642 21.934c-2.704 2.72-5.433 4.885-6.642 5.807-1.209-0.922-3.938-3.087-6.642-5.807-4.633-4.66-7.105-8.813-7.149-12.008-0.026-1.915 0.813-3.496 2.564-4.831 1.188-0.906 2.483-1.365 3.849-1.365 2.585 0 5.054 1.61 6.67 2.96l0.708 0.591 0.708-0.591c1.616-1.35 4.085-2.96 6.67-2.96 1.366 0 2.661 0.459 3.849 1.365 1.752 1.335 2.59 2.916 2.564 4.831-0.044 3.196-2.516 7.348-7.149 12.008z"></path>
</symbol>
<symbol id="icon-instagram" viewBox="0 0 32 32">
<path d="M16 0c-4.347 0-4.889 0.020-6.596 0.096-1.704 0.080-2.864 0.348-3.884 0.744-1.052 0.408-1.945 0.956-2.835 1.845s-1.439 1.781-1.845 2.835c-0.396 1.020-0.665 2.18-0.744 3.884-0.080 1.707-0.096 2.249-0.096 6.596s0.020 4.889 0.096 6.596c0.080 1.703 0.348 2.864 0.744 3.884 0.408 1.051 0.956 1.945 1.845 2.835 0.889 0.888 1.781 1.439 2.835 1.845 1.021 0.395 2.181 0.665 3.884 0.744 1.707 0.080 2.249 0.096 6.596 0.096s4.889-0.020 6.596-0.096c1.703-0.080 2.864-0.349 3.884-0.744 1.051-0.408 1.945-0.957 2.835-1.845 0.888-0.889 1.439-1.78 1.845-2.835 0.395-1.020 0.665-2.181 0.744-3.884 0.080-1.707 0.096-2.249 0.096-6.596s-0.020-4.889-0.096-6.596c-0.080-1.703-0.349-2.865-0.744-3.884-0.408-1.052-0.957-1.945-1.845-2.835-0.889-0.889-1.78-1.439-2.835-1.845-1.020-0.396-2.181-0.665-3.884-0.744-1.707-0.080-2.249-0.096-6.596-0.096zM16 2.88c4.271 0 4.78 0.021 6.467 0.095 1.56 0.073 2.407 0.332 2.969 0.553 0.749 0.289 1.28 0.636 1.843 1.195 0.559 0.56 0.905 1.092 1.195 1.841 0.219 0.563 0.48 1.409 0.551 2.969 0.076 1.688 0.093 2.195 0.093 6.467s-0.020 4.78-0.099 6.467c-0.081 1.56-0.341 2.407-0.561 2.969-0.299 0.749-0.639 1.28-1.199 1.843-0.559 0.559-1.099 0.905-1.84 1.195-0.56 0.219-1.42 0.48-2.98 0.551-1.699 0.076-2.199 0.093-6.479 0.093-4.281 0-4.781-0.020-6.479-0.099-1.561-0.081-2.421-0.341-2.981-0.561-0.759-0.299-1.28-0.639-1.839-1.199-0.561-0.559-0.92-1.099-1.2-1.84-0.22-0.56-0.479-1.42-0.56-2.98-0.060-1.68-0.081-2.199-0.081-6.459 0-4.261 0.021-4.781 0.081-6.481 0.081-1.56 0.34-2.419 0.56-2.979 0.28-0.76 0.639-1.28 1.2-1.841 0.559-0.559 1.080-0.919 1.839-1.197 0.56-0.221 1.401-0.481 2.961-0.561 1.7-0.060 2.2-0.080 6.479-0.080l0.060 0.040zM16 7.784c-4.54 0-8.216 3.68-8.216 8.216 0 4.54 3.68 8.216 8.216 8.216 4.54 0 8.216-3.68 8.216-8.216 0-4.54-3.68-8.216-8.216-8.216zM16 21.333c-2.947 0-5.333-2.387-5.333-5.333s2.387-5.333 5.333-5.333 5.333 2.387 5.333 5.333-2.387 5.333-5.333 5.333zM26.461 7.46c0 1.060-0.861 1.92-1.92 1.92-1.060 0-1.92-0.861-1.92-1.92s0.861-1.919 1.92-1.919c1.057-0.001 1.92 0.86 1.92 1.919z"></path>
</symbol>
<symbol id="icon-location" viewBox="0 0 32 32">
<path d="M25.143 10.609c0-5.357-4.119-9.847-9.516-9.847s-9.531 4.493-9.531 9.851c0 1.768 0.247 3.101 1.084 4.625h-0.016l8.149 15.711c0.306 0.42 0.628-0.024 0.628-0.024-0.275 0.412 8.149-15.687 8.149-15.687h-0.007c0.829-1.524 1.061-2.86 1.061-4.629zM11.239 10.307c0-2.527 1.965-4.574 4.388-4.574s4.389 2.047 4.389 4.574-1.966 4.575-4.389 4.575c-2.423 0-4.388-2.047-4.388-4.575z"></path>
</symbol>
<symbol id="icon-menu" viewBox="0 0 32 32">
<path stroke-linejoin="round" stroke-linecap="round" stroke-miterlimit="4" stroke-width="2.6667" d="M8 10.667h16M8 16h16M8 21.333h16"></path>
</symbol>
<symbol id="icon-money-bag" viewBox="0 0 32 32">
<path d="M17.078 20.085h-1.83c-0.665 0-1.204-0.539-1.204-1.204s0.539-1.204 1.204-1.204h3.22c0.439 0 0.798-0.359 0.798-0.798s-0.359-0.798-0.798-0.798h-1.51v-1.111c0-0.439-0.359-0.798-0.798-0.798s-0.798 0.359-0.798 0.798v1.111h-0.113c-1.543 0-2.801 1.257-2.801 2.801s1.257 2.801 2.801 2.801h1.83c0.665 0 1.204 0.539 1.204 1.204s-0.539 1.204-1.204 1.204h-3.28c-0.439 0-0.798 0.359-0.798 0.798s0.359 0.798 0.798 0.798h1.57v1.138c0 0.439 0.359 0.798 0.798 0.798s0.798-0.359 0.798-0.798v-1.138h0.133c0.007 0 0.013 0 0.020 0 1.53-0.020 2.761-1.271 2.761-2.801 0-1.543-1.257-2.801-2.801-2.801z"></path>
<path d="M28.161 18.275c-0.838-1.929-1.996-3.799-3.459-5.548-1.77-2.129-3.533-3.553-4.431-4.211l3.393-6.294c0.166-0.313 0.113-0.699-0.146-0.945-0.878-0.858-1.81-1.277-2.847-1.277-0.951 0-1.823 0.359-2.581 0.679-0.599 0.246-1.164 0.486-1.623 0.486-0.14 0-0.259-0.020-0.379-0.067-1.583-0.579-2.801-0.938-3.978-0.938-1.49 0-2.761 0.599-4.005 1.876-0.259 0.266-0.299 0.685-0.093 0.998l3.659 5.528c-0.905 0.672-2.635 2.082-4.371 4.165-1.457 1.75-2.621 3.619-3.459 5.548-1.051 2.428-1.583 4.963-1.583 7.531 0 3.413 2.781 6.194 6.194 6.194h15.102c3.413 0 6.194-2.781 6.194-6.194 0-2.568-0.532-5.103-1.583-7.531zM9.713 2.701c0.772-0.665 1.51-0.958 2.395-0.958 0.945 0 2.009 0.319 3.426 0.845 0.293 0.106 0.605 0.16 0.925 0.16 0.778 0 1.523-0.306 2.235-0.605 0.685-0.286 1.337-0.559 1.969-0.559 0.306 0 0.738 0.053 1.284 0.439l-3.193 5.934h-5.562l-3.479-5.256zM23.551 30.403h-15.102c-2.535 0-4.597-2.062-4.597-4.597 0-4.264 1.563-8.309 4.637-12.022 1.943-2.348 3.918-3.805 4.517-4.231h5.974c0.605 0.419 2.575 1.883 4.517 4.231 3.080 3.712 4.637 7.751 4.637 12.022 0.013 2.535-2.049 4.597-4.584 4.597z"></path>
</symbol>
<symbol id="icon-phone" viewBox="0 0 32 32">
<path d="M27.939 4.071c-2.687-2.686-6.457-4.171-10.35-4.055-0.294 0.009-0.526 0.254-0.518 0.548s0.258 0.537 0.548 0.518c3.593-0.093 7.086 1.263 9.566 3.743 2.479 2.479 3.844 5.967 3.743 9.567-0.008 0.294 0.224 0.539 0.518 0.548h0.015c0.287 0 0.524-0.229 0.532-0.518 0.109-3.892-1.369-7.665-4.055-10.35z"></path>
<path d="M28.248 14.939h0.017c0.287 0 0.523-0.228 0.532-0.517 0.092-3.067-1.045-6.015-3.119-8.090-2.029-2.029-4.955-3.155-8.082-3.118-0.294 0.005-0.529 0.247-0.524 0.541 0.005 0.292 0.242 0.525 0.533 0.525h0.009c2.819-0.050 5.485 0.98 7.311 2.806 1.867 1.868 2.89 4.53 2.807 7.304-0.009 0.294 0.223 0.54 0.517 0.549z"></path>
<path d="M17.604 7.478c1.191 0 3.432 0.243 5.059 1.87 1.627 1.628 1.87 3.868 1.87 5.059 0 0.294 0.238 0.533 0.533 0.533s0.533-0.239 0.533-0.533c0-1.355-0.284-3.914-2.182-5.813s-4.457-2.182-5.813-2.182c-0.295 0-0.533 0.239-0.533 0.533s0.238 0.533 0.533 0.533z"></path>
<path d="M22.578 19.471c-0.2-0.2-0.554-0.2-0.754 0l-3.036 3.037c-1.324 1.323-4.069 1.251-7.218-1.898s-3.222-5.894-1.899-7.218c0.208-0.208 0.208-0.546 0-0.754l-4.554-4.555c-0.208-0.208-0.545-0.208-0.754 0s-0.208 0.546 0 0.754l4.205 4.206c-1.339 1.794-1.149 4.924 2.249 8.321 3.67 3.669 7.026 3.597 8.725 1.898l2.66-2.66 5.32 5.321-1.117 1.118c-0.208 0.208-0.208 0.546 0 0.754 0.104 0.104 0.24 0.156 0.377 0.156s0.273-0.052 0.377-0.156l1.493-1.495c0.208-0.208 0.208-0.545 0-0.754l-6.074-6.074z"></path>
<path d="M21.060 24.026c-0.208-0.208-0.545-0.208-0.754 0s-0.208 0.545 0 0.754l4.171 4.171c-2.213 2.022-4.507 2.484-7.013 1.411-0.037-0.014-3.754-1.537-8.931-6.714-5.157-5.157-6.7-8.895-6.733-8.972-1.333-2.666-0.83-4.73 1.798-7.357l2.659-2.66 5.32 5.32-1.142 1.142c-0.208 0.208-0.208 0.545 0 0.754s0.545 0.208 0.754 0l1.519-1.518c0.1-0.1 0.156-0.236 0.156-0.377s-0.056-0.277-0.156-0.377l-6.074-6.074c-0.2-0.2-0.554-0.2-0.754 0l-3.036 3.037c-2.98 2.979-3.559 5.467-2.017 8.547 0.065 0.159 1.621 3.959 6.951 9.289s9.13 6.887 9.278 6.946c1.002 0.43 1.987 0.644 2.952 0.644 1.961 0 3.838-0.887 5.607-2.655 0.1-0.1 0.156-0.236 0.156-0.377s-0.056-0.277-0.156-0.377l-4.555-4.555z"></path>
</symbol>
<symbol id="icon-pinterest" viewBox="0 0 32 32">
<path d="M16 4c-6.629 0-12 5.371-12 12 0 5.086 3.164 9.426 7.629 11.176-0.105-0.949-0.203-2.406 0.039-3.445 0.219-0.934 1.406-5.965 1.406-5.965s-0.355-0.719-0.355-1.781c0-1.668 0.965-2.914 2.168-2.914 1.023 0 1.52 0.77 1.52 1.691 0 1.031-0.656 2.57-0.996 3.996-0.281 1.195 0.602 2.168 1.777 2.168 2.133 0 3.773-2.25 3.773-5.496 0-2.871-2.063-4.879-5.012-4.879-3.414 0-5.418 2.559-5.418 5.207 0 1.031 0.398 2.137 0.895 2.738 0.098 0.117 0.109 0.223 0.082 0.344-0.094 0.379-0.293 1.195-0.332 1.359-0.055 0.223-0.176 0.27-0.402 0.16-1.5-0.695-2.438-2.887-2.438-4.648 0-3.785 2.75-7.262 7.93-7.262 4.164 0 7.398 2.965 7.398 6.934 0 4.133-2.609 7.461-6.227 7.461-1.215 0-2.359-0.629-2.75-1.375 0 0-0.602 2.289-0.75 2.852-0.27 1.043-1 2.348-1.492 3.145 1.125 0.348 2.316 0.535 3.555 0.535 6.629 0 12-5.371 12-12s-5.371-12-12-12z"></path>
</symbol>
<symbol id="icon-plus" viewBox="0 0 32 32">
<path d="M28.867 12.288l-9.865-0.001-0.001-9.154c0.001-1.73-1.403-3.133-3.133-3.133s-3.132 1.403-3.132 3.133v9.155l-9.603-0.001c-1.73 0.001-3.133 1.403-3.133 3.133 0.001 1.73 1.403 3.132 3.133 3.132h9.603v10.315c0 1.732 1.403 3.133 3.133 3.133s3.132-1.403 3.133-3.132v-10.316h9.866c1.729 0 3.132-1.402 3.132-3.131 0.002-1.731-1.403-3.134-3.133-3.133z"></path>
</symbol>
<symbol id="icon-search" viewBox="0 0 32 32">
<path d="M31.597 29.708l-9.181-9.188c1.81-2.171 2.899-4.945 2.899-7.975 0-6.912-5.673-12.532-12.65-12.532s-12.664 5.627-12.664 12.539 5.673 12.532 12.65 12.532c2.964 0 5.692-1.017 7.857-2.715l9.214 9.214c0.538 0.538 1.338 0.538 1.876 0s0.538-1.338 0-1.876zM2.689 12.552c0-5.43 4.473-9.844 9.962-9.844s9.962 4.414 9.962 9.844-4.473 9.844-9.962 9.844-9.962-4.42-9.962-9.844z"></path>
</symbol>
<symbol id="icon-sent" viewBox="0 0 32 32">
<path d="M31.837 1.311c-0.142-0.125-0.345-0.154-0.517-0.074l-31.043 14.424c-0.167 0.078-0.275 0.244-0.277 0.429s0.102 0.353 0.268 0.434l8.785 4.311c0.161 0.079 0.353 0.061 0.497-0.046l8.542-6.384-6.706 6.897c-0.096 0.098-0.144 0.233-0.134 0.37l0.668 8.695c0.015 0.193 0.144 0.357 0.328 0.418 0.049 0.016 0.1 0.024 0.149 0.024 0.137 0 0.27-0.059 0.362-0.166l4.663-5.403 5.764 2.754c0.125 0.060 0.27 0.062 0.397 0.007s0.224-0.163 0.265-0.295l8.129-25.892c0.057-0.181 0.001-0.378-0.141-0.503z"></path>
</symbol>
<symbol id="icon-star" viewBox="0 0 32 32">
<path d="M31.972 12.36c-0.068-0.207-0.247-0.359-0.463-0.39l-10.362-1.506-4.634-9.389c-0.096-0.196-0.296-0.32-0.513-0.32s-0.418 0.124-0.513 0.32l-4.634 9.39-10.362 1.506c-0.216 0.031-0.395 0.182-0.463 0.39-0.067 0.207-0.011 0.435 0.145 0.587l7.498 7.309-1.771 10.32c-0.037 0.215 0.052 0.432 0.227 0.56 0.177 0.129 0.411 0.146 0.603 0.044l9.269-4.872 9.268 4.872c0.084 0.044 0.176 0.066 0.267 0.066 0.119 0 0.237-0.037 0.337-0.109 0.176-0.128 0.265-0.345 0.227-0.56l-1.77-10.32 7.498-7.309c0.156-0.153 0.212-0.38 0.144-0.587z"></path>
</symbol>
<symbol id="icon-tag" viewBox="0 0 32 32">
<path d="M18.203 13.797c0.259 0.259 0.409 0.586 0.454 0.924 1.209 0.906 2.653 1.358 4.096 1.358v-6.832l-11.377 0-11.377 11.377 11.377 11.377 11.377-11.377v-2.131c-2.011-0-4.023-0.65-5.688-1.95-0.412 0-0.825-0.157-1.138-0.47-0.627-0.627-0.627-1.648 0-2.275s1.648-0.627 2.275 0z"></path>
<path d="M29.295 2.705c-3.607-3.607-9.476-3.607-13.083-0-1.163 1.163-1.978 2.581-2.393 4.128l2.535-0c0.338-0.898 0.866-1.723 1.565-2.422 2.666-2.666 7.004-2.666 9.67 0s2.666 7.004 0 9.67c-1.333 1.333-3.084 1.998-4.835 1.997v2.414c2.369 0 4.738-0.901 6.542-2.705 3.607-3.607 3.607-9.476-0-13.083z"></path>
</symbol>
<symbol id="icon-telephone" viewBox="0 0 32 32">
<path d="M31.766 25.646l-6.669-6.669c-0.307-0.307-0.804-0.307-1.111 0l-3.503 3.503c-0.953-0.263-3.484-1.19-6.397-4.101-3.022-3.022-4.246-6.034-4.55-6.886l3.483-3.483c0.148-0.147 0.23-0.347 0.23-0.556s-0.083-0.408-0.23-0.555l-6.669-6.669c-0.307-0.307-0.804-0.307-1.111 0l-3.898 3.899c-0.051 0.050-0.093 0.107-0.129 0.169l-0.007 0.008c-3.104 3.814 0.003 12.341 7.073 19.412 5.032 5.031 11.128 8.282 15.532 8.282 1.572 0 2.867-0.398 3.849-1.184l0.092-0.063c0.040-0.027 0.077-0.058 0.111-0.092l3.904-3.904c0.148-0.148 0.23-0.348 0.23-0.555s-0.083-0.408-0.23-0.555z"></path>
</symbol>
<symbol id="icon-truck" viewBox="0 0 32 32">
<path d="M31.883 14.898l-4.914-7.265c-0.127-0.188-0.338-0.3-0.564-0.3h-7.67v-2.782c0-0.376-0.305-0.681-0.681-0.681h-17.373c-0.376-0-0.681 0.305-0.681 0.681v19.252c0 0.376 0.305 0.681 0.681 0.681h4.886c0.336 2.065 2.131 3.646 4.289 3.646s3.953-1.581 4.289-3.646h6.224c0.336 2.065 2.131 3.646 4.289 3.646s3.953-1.581 4.289-3.646h2.373c0.376 0 0.681-0.305 0.681-0.681v-8.524c-0-0.136-0.041-0.269-0.117-0.381zM9.856 26.768c-1.646 0-2.985-1.339-2.985-2.985s1.339-2.984 2.985-2.984c1.646 0 2.984 1.339 2.984 2.984s-1.339 2.985-2.984 2.985zM17.373 23.122h-3.222c-0.319-2.084-2.124-3.685-4.296-3.685s-3.977 1.601-4.296 3.685h-4.198v-17.89h16.012v17.89zM18.677 8.695h7.367l3.993 5.903h-11.36v-5.903zM24.657 26.768c-1.646 0-2.984-1.339-2.984-2.985s1.339-2.984 2.984-2.984 2.985 1.339 2.985 2.984c0 1.646-1.339 2.985-2.985 2.985zM30.638 23.122h-1.685c-0.319-2.084-2.124-3.685-4.296-3.685s-3.976 1.601-4.296 3.685h-1.685v-7.162h11.962v7.162z"></path>
<path d="M24.716 22.879l0.846 0.846-0.963 0.963-0.846-0.846 0.963-0.963zM8.951 23.842l0.846 0.846 0.963-0.963-0.846-0.846-0.963 0.963z"></path>
</symbol>
<symbol id="icon-twitter" viewBox="0 0 32 32">
<path d="M31.275 5.924c-0.503 0.223-1.020 0.411-1.548 0.564 0.625-0.707 1.102-1.539 1.393-2.45 0.065-0.204-0.002-0.427-0.17-0.561s-0.4-0.15-0.585-0.040c-1.122 0.665-2.332 1.143-3.6 1.423-1.278-1.249-3.014-1.96-4.808-1.96-3.788 0-6.87 3.082-6.87 6.869 0 0.298 0.019 0.595 0.056 0.888-4.7-0.413-9.070-2.723-12.071-6.404-0.107-0.131-0.272-0.202-0.44-0.188s-0.32 0.108-0.406 0.255c-0.609 1.044-0.93 2.239-0.93 3.454 0 1.655 0.591 3.226 1.635 4.453-0.317-0.11-0.625-0.247-0.919-0.411-0.158-0.088-0.35-0.086-0.507 0.003s-0.255 0.255-0.259 0.436c-0.001 0.030-0.001 0.061-0.001 0.092 0 2.471 1.33 4.695 3.363 5.908-0.175-0.017-0.349-0.043-0.523-0.076-0.179-0.034-0.363 0.029-0.483 0.165s-0.161 0.326-0.105 0.5c0.753 2.349 2.69 4.078 5.032 4.604-1.943 1.217-4.164 1.854-6.496 1.854-0.487 0-0.976-0.029-1.455-0.085-0.238-0.028-0.465 0.112-0.546 0.338s0.005 0.479 0.207 0.609c2.996 1.921 6.46 2.936 10.018 2.936 6.994 0 11.369-3.298 13.808-6.065 3.041-3.45 4.785-8.016 4.785-12.528 0-0.188-0.003-0.379-0.009-0.569 1.2-0.904 2.233-1.998 3.073-3.255 0.128-0.191 0.114-0.443-0.034-0.619s-0.394-0.233-0.604-0.14z"></path>
</symbol>
<symbol id="icon-user" viewBox="0 0 32 32">
<path d="M9.997 14.341c0.345 0.593 0.789 1.16 1.33 1.636 0.534 0.476 1.167 0.86 1.838 1.095 0.763 0.28 1.493 0.293 1.981 0.196 0.489-0.13 0.756-0.339 0.704-0.639-0.091-0.561-0.978-0.899-1.968-1.388-0.906-0.443-1.558-1.225-1.988-2.177-0.437-0.952-0.658-2.047-0.782-3.161-0.052-0.45-0.078-0.906-0.085-1.362-0.007-0.228-0.007-0.456 0-0.678l0.013-0.332 0.026-0.378 0.052-0.652c0.007-0.222 0.078-0.417 0.111-0.632l0.059-0.313 0.098-0.293c0.072-0.196 0.111-0.404 0.215-0.574 0.326-0.743 0.847-1.362 1.525-1.799 0.671-0.45 1.512-0.704 2.36-0.789 0.763 0.046 1.538 0.215 2.203 0.508 0.671 0.293 1.238 0.697 1.662 1.212 0.43 0.515 0.717 1.147 0.913 1.838 0.052 0.352 0.156 0.606 0.183 1.102l0.065 0.665c0.013 0.163 0.026 0.378 0.033 0.574 0.046 1.616-0.137 3.298-0.737 4.66-0.15 0.339-0.326 0.652-0.528 0.939-0.202 0.28-0.43 0.521-0.684 0.737-0.508 0.398-1.128 0.678-1.799 0.763-0.052 0.007-0.111 0.026-0.176 0.059s-0.117 0.078-0.215 0.124c-0.176 0.085-0.339 0.189-0.411 0.274-0.293 0.326 0.13 0.6 0.73 0.737 0.495 0.117 1.056 0.117 1.63 0.013 0.58-0.104 1.167-0.372 1.695-0.75 1.069-0.769 1.805-2.014 2.203-3.279 0.482-1.538 0.645-3.103 0.619-4.686 0-0.189-0.020-0.43-0.033-0.6l-0.039-0.554c0-0.339-0.111-0.821-0.189-1.245-0.033-0.222-0.111-0.424-0.176-0.632-0.072-0.209-0.13-0.411-0.215-0.619-0.202-0.398-0.372-0.808-0.652-1.173-0.508-0.75-1.206-1.401-2.001-1.838-0.789-0.443-1.649-0.724-2.509-0.841-0.43-0.065-0.867-0.091-1.291-0.085-0.456 0.007-0.88 0.059-1.31 0.143-0.854 0.169-1.708 0.489-2.464 0.991-0.769 0.456-1.48 1.075-1.981 1.838-0.821 1.193-1.167 2.575-1.271 3.872l-0.039 0.372c-0.007 0.065 0.007-0.085 0.007-0.072v0.026l-0.007 0.033-0.007 0.072c-0.013 0.169-0.026 0.326-0.033 0.489-0.013 0.319-0.020 0.632-0.020 0.945 0.007 0.632 0.052 1.258 0.143 1.89 0.176 1.264 0.521 2.549 1.212 3.741z"></path>
<path d="M29.727 24.958c-0.013-0.372-0.046-0.763-0.098-1.16-0.111-0.795-0.345-1.656-0.867-2.464s-1.382-1.447-2.262-1.74l-0.013-0.007c-0.026-0.007-0.059-0.020-0.085-0.026-1.467-0.378-2.907-1.017-4.237-1.805-0.319-0.183-0.926-0.3-1.16-0.267-0.111 0.020-0.189 0.059-0.228 0.124s-0.039 0.15-0.013 0.248c0.059 0.202 0.254 0.469 0.528 0.743 1.141 1.173 2.712 2.236 4.621 2.901l-0.059-0.020c0.769 0.365 1.232 0.978 1.454 1.858 0.183 0.658 0.196 1.44 0.183 2.236-0.013 0.391-0.039 0.795-0.078 1.173-0.020 0.189-0.046 0.378-0.085 0.547-0.007 0.026-0.007 0.046-0.013 0.065-0.033 0.020-0.065 0.033-0.091 0.046-0.15 0.072-0.293 0.15-0.443 0.215-0.3 0.143-0.613 0.267-0.919 0.398-0.626 0.248-1.264 0.469-1.916 0.658-1.297 0.385-2.633 0.665-3.982 0.847-0.332 0.059-0.678 0.078-1.017 0.117-0.339 0.046-0.678 0.065-1.017 0.085s-0.678 0.052-1.023 0.052l-0.997 0.026c-0.71-0.013-1.44-0.013-2.092-0.059l-0.502-0.026-0.508-0.046c-0.339-0.033-0.684-0.052-1.023-0.104-0.43-0.085-0.86-0.156-1.284-0.267l-0.639-0.15-0.632-0.176c-0.873-0.248-1.734-0.528-2.568-0.873-0.417-0.169-0.828-0.352-1.225-0.541-0.196-0.098-0.398-0.196-0.587-0.3-0.033-0.020-0.059-0.033-0.091-0.052-0.013-0.098-0.026-0.196-0.039-0.3-0.033-0.293-0.046-0.613-0.059-0.932-0.020-0.626 0.007-1.291 0.072-1.845 0.072-0.567 0.222-1.056 0.443-1.414 0.228-0.352 0.515-0.593 0.939-0.769l-0.098 0.026c1.193-0.339 2.314-0.815 3.37-1.375 1.532-0.815 2.562-1.89 2.112-2.307-0.404-0.378-1.538-0.072-3.024 0.561-0.978 0.417-1.988 0.75-3.005 0.971-0.013 0-0.026 0.007-0.039 0.013l-0.039 0.013c-0.58 0.189-1.16 0.508-1.63 0.965-0.469 0.45-0.802 1.010-1.023 1.564-0.222 0.561-0.339 1.121-0.404 1.662-0.033 0.274-0.052 0.534-0.065 0.795l-0.013 0.372-0.007 0.183v0.215c0.007 0.437 0.020 0.873 0.065 1.323 0.020 0.228 0.046 0.45 0.091 0.697s0.091 0.489 0.215 0.815l0.007 0.013c0.078 0.196 0.209 0.365 0.404 0.482 0.15 0.091 0.261 0.156 0.385 0.222 0.124 0.072 0.241 0.13 0.365 0.196 0.241 0.13 0.489 0.235 0.73 0.352 0.489 0.215 0.984 0.417 1.486 0.6 0.997 0.358 2.014 0.658 3.044 0.88 0.515 0.124 1.030 0.202 1.551 0.306 0.521 0.065 1.036 0.163 1.564 0.209 0.521 0.052 1.043 0.104 1.577 0.124l0.795 0.039 0.763 0.007c-0.039-0.020-0.078-0.046-0.117-0.065 0.039 0.020 0.078 0.046 0.117 0.065 1.141 0.13 2.281 0.143 3.435 0.111 1.147-0.065 2.307-0.176 3.455-0.404 1.147-0.222 2.281-0.515 3.396-0.906 0.554-0.196 1.108-0.411 1.656-0.658 0.274-0.117 0.541-0.254 0.815-0.391 0.137-0.072 0.267-0.137 0.404-0.215 0.143-0.078 0.261-0.143 0.437-0.254l0.020-0.013c0.215-0.137 0.391-0.339 0.482-0.6 0.209-0.58 0.241-0.952 0.287-1.349 0.039-0.391 0.059-0.763 0.072-1.134 0.007-0.183 0.007-0.365 0.007-0.561l-0.026-0.541z"></path>
</symbol>
</defs>
</svg>
