<?xml version="1.0" encoding="iso-8859-1"?>
<!-- Generator: Adobe Illustrator 19.0.0, SVG Export Plug-In . SVG Version: 6.00 Build 0)  -->
<svg version="1.1" id="Layer_1" xmlns="http://www.w3.org/2000/svg" xmlns:xlink="http://www.w3.org/1999/xlink" x="0px" y="0px"
	 viewBox="0 0 488.025 488.025" style="enable-background:new 0 0 488.025 488.025;" xml:space="preserve">
<g transform="translate(0 -540.36)">
	<g>
		<g>
			<path d="M132.029,784.922h-19.8c-5.5,0-10,4.5-10,10s4.5,10,10,10h19.8c5.5,0,10-4.5,10-10S137.529,784.922,132.029,784.922z"/>
			<path d="M202.829,784.922h-19.8c-5.5,0-10,4.5-10,10s4.5,10,10,10h19.8c5.6,0,10-4.5,10-10S208.329,784.922,202.829,784.922z"/>
			<path d="M274.529,784.922h-19.8c-5.5,0-10,4.5-10,10s4.5,10,10,10h19.8c5.5,0,10-4.5,10-10S280.029,784.922,274.529,784.922z"/>
			<path d="M345.429,784.922h-19.8c-5.5,0-10,4.5-10,10s4.5,10,10,10h19.8c5.5,0,10-4.5,10-10S350.929,784.922,345.429,784.922z"/>
			<path d="M177.729,722.022h-20.6c-5.5,0-10,4.5-10,10s4.5,10,10,10h20.6c5.5,0,10-4.5,10-10S183.229,722.022,177.729,722.022z"/>
			<path d="M248.629,722.022h-19.8c-5.5,0-10,4.5-10,10s4.5,10,10,10h19.8c5.5,0,10-4.5,10-10S254.129,722.022,248.629,722.022z"/>
			<path d="M487.529,823.222L487.529,823.222c-1.4-4-5.2-6.8-9.5-6.8h-61.2l-42.8-58.8c-1.9-2.6-4.9-4.1-8.1-4.1h-45.6l-37.4-58.3
				c-1.8-2.9-5-4.6-8.4-4.6h-35.7v-42.7c0-5.5-4.5-10-10-10h-51.1c-5.5,0-10,4.5-10,10v42.7h-45.7c-3.8,0-7.3,2.2-9,5.6l-27.8,57.3
				h-14.2c-3.4,0-6.6,1.7-8.4,4.6l-37.4,58.3h-15.2c-3.4,0-6.5,1.7-8.4,4.5c-1.9,2.8-2.1,6.4-0.8,9.5l41.2,94.4c1.6,3.6,5.2,6,9.2,6
				h304.8c2.2,0,4.4-0.7,6.1-2.1l122-94.4C487.529,831.722,488.829,827.222,487.529,823.222z M187.729,657.822h31.1v32.7h-31.1
				V657.822z M128.329,710.522h49.4h51.1h40.2l27.6,42.9h-189.1L128.329,710.522z M76.429,773.522h284.4l31.2,42.9h-343.1
				C48.929,816.422,76.429,773.522,76.429,773.522z M352.629,910.822h-294.9l-32.4-74.4h423.5L352.629,910.822z"/>
		</g>
	</g>
</g>
<g>
</g>
<g>
</g>
<g>
</g>
<g>
</g>
<g>
</g>
<g>
</g>
<g>
</g>
<g>
</g>
<g>
</g>
<g>
</g>
<g>
</g>
<g>
</g>
<g>
</g>
<g>
</g>
<g>
</g>
</svg>
