<?xml version="1.0" encoding="iso-8859-1"?>
<!-- Generator: Adobe Illustrator 19.0.0, SVG Export Plug-In . SVG Version: 6.00 Build 0)  -->
<svg version="1.1" id="Layer_1" xmlns="http://www.w3.org/2000/svg" xmlns:xlink="http://www.w3.org/1999/xlink" x="0px" y="0px"
	 viewBox="0 0 512 512" style="enable-background:new 0 0 512 512;" xml:space="preserve">
<g>
	<g>
		<path d="M429.161,85.511h-17.637V55.727l29.773-14.886c2.716-1.357,4.432-4.133,4.432-7.17V8.017c0-4.428-3.589-8.017-8.017-8.017
			h-76.96c-4.427,0-8.017,3.588-8.017,8.017v77.495H159.8c-39.784,0-72.15,32.366-72.15,72.15v21.912H52.91
			c-4.355,0-8.017,3.662-8.017,8.017v120.251H26.722v-17.637c0-4.428-3.589-8.017-8.017-8.017s-8.017,3.588-8.017,8.017v25.653
			c0,4.428,3.589,8.017,8.017,8.017h214.313v26.188c0,4.428,3.589,8.017,8.017,8.017c4.427,0,8.017-3.588,8.017-8.017v-26.188
			h18.171v172.092h-18.171V392.818c0-4.428-3.589-8.017-8.017-8.017c-4.427,0-8.017,3.588-8.017,8.017v111.165
			c0,4.428,3.589,8.017,8.017,8.017h119.716c4.427,0,8.017-3.588,8.017-8.017V323.875h124.526c4.427,0,8.017-3.588,8.017-8.017
			V157.662C501.311,117.878,468.945,85.511,429.161,85.511z M368.768,16.033h60.927v12.682l-29.773,14.886
			c-2.716,1.359-4.432,4.133-4.432,7.17v123.992c0,7.368-5.993,13.361-13.361,13.361c-7.368,0-13.361-5.993-13.361-13.361V16.033z
			 M218.577,195.608l-71.604,58.586l-71.604-58.586H218.577z M233.019,307.841H60.927V204.508l80.969,66.248
			c2.919,2.387,7.234,2.387,10.153,0l80.97-66.248V307.841z M352.735,495.967h-9.62v-43.29c0-4.428-3.589-8.017-8.017-8.017
			s-8.017,3.588-8.017,8.017v43.29h-43.825V323.875h43.825v86.046c0,4.428,3.589,8.017,8.017,8.017s8.017-3.588,8.017-8.017v-86.046
			h9.62V495.967z M485.278,307.841H283.257v-86.046c0-4.428-3.589-8.017-8.017-8.017c-4.427,0-8.017,3.588-8.017,8.017v86.046
			h-18.171V187.591c0-4.355-3.662-8.017-8.017-8.017H103.683v-21.912c0-30.942,25.174-56.117,56.117-56.117h51.307
			c30.943,0,56.117,25.175,56.117,56.117v21.378c0,4.428,3.589,8.017,8.017,8.017c4.427,0,8.017-3.588,8.017-8.017v-21.378
			c0-22.647-10.497-42.88-26.871-56.117h96.349v73.219c0,16.208,13.186,29.395,29.395,29.395c16.209,0,29.395-13.187,29.395-29.395
			v-73.219h17.637c30.943,0,56.117,25.175,56.117,56.117V307.841z"/>
	</g>
</g>
<g>
	<g>
		<path d="M300.894,342.046c-4.427,0-8.017,3.588-8.017,8.017v94.063c0,4.428,3.589,8.017,8.017,8.017
			c4.427,0,8.017-3.588,8.017-8.017v-94.063C308.91,345.634,305.321,342.046,300.894,342.046z"/>
	</g>
</g>
<g>
	<g>
		<path d="M382.129,153.921c-4.427,0-8.017,3.588-8.017,8.017v8.551c0,4.428,3.589,8.017,8.017,8.017s8.017-3.588,8.017-8.017
			v-8.551C390.146,157.509,386.557,153.921,382.129,153.921z"/>
	</g>
</g>
<g>
</g>
<g>
</g>
<g>
</g>
<g>
</g>
<g>
</g>
<g>
</g>
<g>
</g>
<g>
</g>
<g>
</g>
<g>
</g>
<g>
</g>
<g>
</g>
<g>
</g>
<g>
</g>
<g>
</g>
</svg>
