<svg aria-hidden="true" style="position: absolute; width: 0; height: 0; overflow: hidden;" version="1.1" xmlns="http://www.w3.org/2000/svg" xmlns:xlink="http://www.w3.org/1999/xlink">
<defs>
<symbol id="icon-add" viewBox="0 0 32 32">
<path d="M27.319 4.681c-6.242-6.241-16.397-6.241-22.638 0s-6.241 16.397 0 22.638c3.121 3.121 7.22 4.681 11.319 4.681s8.198-1.56 11.319-4.681c6.241-6.241 6.241-16.397-0-22.638zM6.298 25.702c-5.35-5.35-5.35-14.054 0-19.404 2.675-2.675 6.188-4.012 9.702-4.012s7.027 1.337 9.702 4.012c5.35 5.35 5.35 14.054 0 19.404s-14.054 5.35-19.404 0z"></path>
<path d="M24.751 14.857h-7.608v-7.608c0-0.632-0.512-1.143-1.143-1.143s-1.143 0.512-1.143 1.143v7.608h-7.608c-0.632 0-1.143 0.512-1.143 1.143s0.512 1.143 1.143 1.143h7.608v7.608c0 0.632 0.512 1.143 1.143 1.143s1.143-0.512 1.143-1.143v-7.608h7.608c0.632 0 1.143-0.512 1.143-1.143s-0.512-1.143-1.143-1.143z"></path>
</symbol>
<symbol id="icon-arrow-left" viewBox="0 0 32 32">
<path d="M29.944 16c0 1.106-0.837 2-1.944 2h-19.169l6.588 6.587c0.781 0.781 0.781 2.047 0 2.828-0.394 0.391-0.906 0.584-1.419 0.584s-1.024-0.195-1.414-0.586l-10-10c-0.781-0.781-0.781-2.047 0-2.828l10-10c0.781-0.781 2.047-0.781 2.828 0s0.781 2.047 0 2.828l-6.583 6.586h19.169c1.106 0 1.944 0.894 1.944 2z"></path>
</symbol>
<symbol id="icon-arrow-right" viewBox="0 0 32 32">
<path d="M29.413 17.413l-10 10c-0.387 0.394-0.9 0.587-1.413 0.587s-1.024-0.195-1.414-0.586c-0.781-0.781-0.781-2.047 0-2.828l6.589-6.586h-19.175c-1.104 0-2-0.894-2-2s0.896-2 2-2h19.175l-6.588-6.588c-0.781-0.781-0.781-2.047 0-2.828s2.047-0.781 2.828 0l10 10c0.778 0.784 0.778 2.047-0.003 2.828z"></path>
</symbol>
<symbol id="icon-backpack" viewBox="0 0 32 32">
<path d="M19.887 5.921h-8.284v4.215h8.284v-4.215zM18.554 8.803h-5.617v-1.549h5.617v1.549z"></path>
<path d="M29.659 25.728c-0.293-4.598-0.76-7.335-1.517-8.874-0.717-1.46-1.712-1.875-2.738-1.975l-0.341-6.666c-0.038-0.755-0.421-1.449-1.016-1.904l0.090-0.978c0.061-0.667-0.146-1.299-0.584-1.779s-1.049-0.745-1.718-0.745h-1.948v-0.336c0-1.363-1.108-2.471-2.471-2.471h-3.342c-1.362 0-2.471 1.108-2.471 2.471v0.336h-1.439c-0.67 0-1.28 0.265-1.718 0.745s-0.646 1.112-0.584 1.779l0.090 0.978c-0.603 0.46-0.978 1.154-1.016 1.904l-0.341 6.666c-1.026 0.099-2.020 0.515-2.738 1.975-0.756 1.539-1.224 4.276-1.517 8.874-0.053 0.829 0.12 1.444 0.53 1.88 0.63 0.671 1.651 0.765 3.035 0.778l-0.057 1.111c-0.034 0.664 0.196 1.291 0.648 1.766s1.066 0.737 1.73 0.737h15.548c0.664 0 1.279-0.262 1.73-0.737s0.681-1.102 0.648-1.766l-0.057-1.111c1.384-0.013 2.405-0.107 3.035-0.778 0.409-0.436 0.582-1.051 0.529-1.88zM12.937 2.471c0-0.627 0.51-1.138 1.138-1.138h3.342c0.627 0 1.138 0.51 1.138 1.138v0.336h-5.617v-0.336zM9.432 4.451c0.183-0.2 0.443-0.31 0.733-0.31h11.671c0.29 0 0.551 0.11 0.733 0.31s0.268 0.469 0.242 0.758l-0.684 7.43c-0.059 0.646-0.657 1.191-1.306 1.191h-9.643c-0.648 0-1.246-0.545-1.306-1.191l-0.683-7.43c-0.027-0.289 0.059-0.558 0.242-0.758zM11.5 24.559c-0.121 0-0.256-0.153-0.256-0.372v-2.543c0-0.219 0.135-0.372 0.256-0.372h1.541c0.121 0 0.256 0.153 0.256 0.372v2.543c0 0.219-0.135 0.372-0.256 0.372h-1.541zM12.561 19.939h-0.581v-4.775h0.581v4.775zM11.98 25.892h0.581v4.775h-0.581v-4.775zM13.894 25.624c0.442-0.303 0.736-0.834 0.736-1.438v-2.543c0-0.603-0.294-1.134-0.736-1.437v-5.043h3.703v5.042c-0.442 0.303-0.736 0.834-0.736 1.437v2.543c0 0.604 0.294 1.134 0.736 1.438v5.043h-3.703v-5.043zM18.45 24.559c-0.121 0-0.256-0.153-0.256-0.372v-2.543c0-0.219 0.135-0.372 0.256-0.372h1.541c0.121 0 0.256 0.153 0.256 0.372v2.543c0 0.219-0.135 0.372-0.256 0.372h-1.541zM18.931 15.164h0.581v4.775h-0.581v-4.775zM18.931 25.892h0.581v4.775h-0.581v-4.775zM3.842 26.696c-0.141-0.151-0.199-0.448-0.171-0.883 0.52-8.166 1.581-9.406 2.855-9.594l-0.554 10.835c-1.022-0.008-1.849-0.058-2.131-0.358zM7.462 30.345c-0.197-0.208-0.298-0.484-0.283-0.779l1.040-20.349 0.326 3.545c0.105 1.144 1.002 2.104 2.102 2.344v5.101c-0.442 0.303-0.736 0.834-0.736 1.438v2.543c0 0.604 0.294 1.135 0.736 1.438v5.042h-2.421c-0.295 0-0.567-0.114-0.764-0.322zM24.538 30.345c-0.197 0.208-0.469 0.322-0.764 0.322h-2.929v-5.042c0.442-0.303 0.736-0.834 0.736-1.438v-2.543c0-0.603-0.294-1.134-0.736-1.437v-5.043c1.321-0.012 2.489-1.085 2.61-2.402l0.326-3.543 1.040 20.347c0.015 0.295-0.085 0.572-0.283 0.779zM28.158 26.696c-0.281 0.3-1.109 0.349-2.131 0.358l-0.554-10.835c1.275 0.188 2.336 1.427 2.856 9.594 0.028 0.435-0.030 0.732-0.171 0.883z"></path>
</symbol>
<symbol id="icon-caravan" viewBox="0 0 32 32">
<path d="M5.574 14.409h5.649c1.060 0 1.922-0.862 1.922-1.922v-1.49c0-1.060-0.862-1.922-1.922-1.922h-5.649c-1.060 0-1.922 0.862-1.922 1.922v1.49c0 1.060 0.862 1.922 1.922 1.922zM5.014 10.997c0-0.309 0.251-0.56 0.56-0.56h5.649c0.309 0 0.56 0.251 0.56 0.56v1.49c0 0.309-0.251 0.56-0.56 0.56h-5.649c-0.309 0-0.56-0.251-0.56-0.56v-1.49z"></path>
<path d="M17.283 14.409h5.649c1.060 0 1.922-0.862 1.922-1.922v-1.49c0-1.060-0.862-1.922-1.922-1.922h-5.649c-1.060 0-1.922 0.862-1.922 1.922v1.49c0 1.060 0.862 1.922 1.922 1.922zM16.723 10.997c0-0.309 0.251-0.56 0.56-0.56h5.649c0.309 0 0.56 0.251 0.56 0.56v1.49c0 0.309-0.251 0.56-0.56 0.56h-5.649c-0.309 0-0.56-0.251-0.56-0.56v-1.49z"></path>
<path d="M32 18.011h-3.303v-8.944c0-1.744-1.419-3.162-3.162-3.162h-22.372c-1.744 0-3.162 1.419-3.162 3.162v10.892c0 1.744 1.419 3.163 3.162 3.163h1.647c0.32 1.691 1.807 2.974 3.589 2.974s3.27-1.283 3.589-2.974h4.53c0.32 1.691 1.807 2.974 3.589 2.974s3.27-1.283 3.589-2.974h1.837c1.744 0 3.162-1.419 3.162-3.163v-0.587h3.303v-1.362zM3.162 7.266h22.372c0.993 0 1.801 0.808 1.801 1.801v7.164h-25.973v-7.164c0-0.993 0.808-1.801 1.801-1.801zM8.399 24.734c-1.264 0-2.292-1.028-2.292-2.292s1.028-2.293 2.292-2.293c1.264 0 2.292 1.029 2.292 2.293s-1.028 2.292-2.292 2.292zM20.107 24.734c-1.264 0-2.292-1.028-2.292-2.292s1.028-2.293 2.292-2.293c1.264 0 2.292 1.029 2.292 2.293s-1.028 2.292-2.292 2.292zM25.534 21.76h-1.838c-0.32-1.691-1.807-2.974-3.589-2.974s-3.269 1.283-3.589 2.974h-4.53c-0.32-1.691-1.807-2.974-3.589-2.974s-3.269 1.283-3.589 2.974h-1.647c-0.993 0-1.801-0.808-1.801-1.801v-2.367h25.973v2.367c0 0.993-0.808 1.801-1.801 1.801z"></path>
</symbol>
<symbol id="icon-car-mini" viewBox="0 0 32 32">
<path d="M31.307 11.26h-2.347c-0.179 0-0.351 0.069-0.48 0.193l-0.501 0.48c-0.845-1.954-2.056-3.886-3.692-5.887-0.885-1.081-2.193-1.701-3.589-1.701h-9.396c-1.397 0-2.705 0.62-3.589 1.701-1.688 2.063-2.875 3.949-3.7 5.88l-0.494-0.473c-0.129-0.124-0.301-0.193-0.48-0.193h-2.347c-0.383 0-0.693 0.31-0.693 0.693v1.605c0 0.366 0.284 0.669 0.65 0.692l2.412 0.152c-0.364 1.065-0.649 2.652-0.649 4.89 0 1.942 0.388 3.218 1.063 4.045v3.739c0 0.321 0.26 0.58 0.58 0.58h2.67c0.321 0 0.581-0.26 0.581-0.58v-2.322h17.386v2.322c0 0.321 0.26 0.58 0.581 0.58h2.67c0.321 0 0.581-0.26 0.581-0.58v-3.739c0.675-0.826 1.063-2.103 1.063-4.045 0-2.238-0.285-3.825-0.649-4.89l2.412-0.152c0.365-0.023 0.649-0.326 0.649-0.692v-1.605c0-0.383-0.31-0.693-0.693-0.693zM9.694 7.666c0.396-0.484 0.982-0.762 1.608-0.762h9.396c0.626 0 1.212 0.278 1.608 0.762 1.145 1.399 2.049 2.739 2.748 4.073l-18.123 0.003c0.683-1.304 1.593-2.645 2.764-4.076zM7.719 21.914c-1.329 0-2.406-0.434-2.406-1.487s0.391-1.907 1.72-1.907 3.093 0.854 3.093 1.907-1.077 1.487-2.406 1.487zM18.522 21.694h-5.045c-0.761 0-1.379-0.619-1.379-1.379 0-0.213 0.173-0.386 0.386-0.386h7.030c0.213 0 0.386 0.173 0.386 0.386 0 0.761-0.619 1.379-1.379 1.379zM24.281 21.914c-1.329 0-2.406-0.434-2.406-1.487s1.764-1.907 3.093-1.907c1.329 0 1.72 0.854 1.72 1.907s-1.077 1.487-2.406 1.487z"></path>
</symbol>
<symbol id="icon-clock" viewBox="0 0 32 32">
<path d="M16 0c-8.822 0-16 7.178-16 16s7.178 16 16 16 16-7.178 16-16-7.178-16-16-16zM16 30.405c-7.943 0-14.405-6.462-14.405-14.405s6.462-14.405 14.405-14.405 14.405 6.462 14.405 14.405-6.462 14.405-14.405 14.405z"></path>
<path d="M15.203 15.203h-6.363v1.595h7.957v-12.132h-1.595z"></path>
</symbol>
<symbol id="icon-clock-mini" viewBox="0 0 32 32">
<path d="M16 0c-8.843 0-16 7.156-16 16s7.156 16 16 16c8.843 0 16-7.156 16-16s-7.156-16-16-16zM16.788 16.663l-4.361 5.185c-0.366 0.435-1.016 0.491-1.451 0.125s-0.491-1.016-0.125-1.451l4.119-4.898v-11.64c0-0.569 0.461-1.030 1.030-1.030s1.030 0.461 1.030 1.030v12.015c0 0.243-0.086 0.477-0.242 0.663z"></path>
</symbol>
<symbol id="icon-clock-svgrepo" viewBox="0 0 32 32">
<path d="M29.413 7.311c-0.4-0.613-1.27-0.695-1.788-0.177-0.383 0.383-0.452 0.982-0.156 1.435 1.571 2.409 2.412 5.334 2.177 8.47-0.492 6.56-5.734 11.942-12.282 12.58-8.615 0.839-15.822-6.368-14.982-14.982 0.622-6.39 5.77-11.568 12.154-12.243 3.296-0.348 6.377 0.498 8.895 2.139 0.454 0.296 1.053 0.227 1.435-0.156 0.518-0.518 0.436-1.388-0.177-1.788-3.14-2.046-7.031-3.029-11.173-2.398-6.814 1.040-12.281 6.484-13.324 13.298-1.65 10.778 7.54 19.968 18.318 18.319 6.814-1.042 12.26-6.509 13.299-13.323 0.632-4.142-0.351-8.033-2.397-11.174z"></path>
<path d="M15.768 18.381v-8.666c0-0.639-0.518-1.158-1.158-1.158s-1.158 0.518-1.158 1.158v9.823c0 0.639 0.518 1.158 1.158 1.158h9.823c0.639 0 1.157-0.518 1.157-1.158s-0.518-1.157-1.157-1.157h-8.665z"></path>
</symbol>
<symbol id="icon-credit-card-mini" viewBox="0 0 32 32">
<path d="M30.382 5.713h-28.764c-0.893 0-1.618 0.724-1.618 1.618v1.842h32v-1.842c0-0.893-0.724-1.618-1.618-1.618z"></path>
<path d="M0 24.669c0 0.893 0.724 1.618 1.618 1.618h28.764c0.893 0 1.618-0.724 1.618-1.618v-10.766h-32v10.766zM13.75 22.675h-2.033c-0.581 0-1.051-0.471-1.051-1.051s0.471-1.051 1.051-1.051h2.033c0.581 0 1.051 0.471 1.051 1.051s-0.471 1.051-1.051 1.051zM24.424 20.572h3.294c0.581 0 1.051 0.471 1.051 1.051s-0.471 1.051-1.051 1.051h-3.294c-0.581 0-1.051-0.471-1.051-1.051s0.471-1.051 1.051-1.051zM21.25 21.624c0 0.581-0.471 1.051-1.051 1.051h-2.033c-0.581 0-1.051-0.471-1.051-1.051s0.471-1.051 1.051-1.051h2.033c0.581 0 1.051 0.471 1.051 1.051zM4.127 16.577h15.7c0.581 0 1.051 0.471 1.051 1.051s-0.471 1.051-1.051 1.051h-15.7c-0.581 0-1.051-0.471-1.051-1.051s0.471-1.051 1.051-1.051zM4.127 20.572h3.294c0.581 0 1.051 0.471 1.051 1.051s-0.471 1.051-1.051 1.051h-3.294c-0.581 0-1.051-0.471-1.051-1.051s0.471-1.051 1.051-1.051z"></path>
</symbol>
<symbol id="icon-cruise" viewBox="0 0 32 32">
<path d="M8.657 16.036h-1.298c-0.361 0-0.656 0.295-0.656 0.656s0.295 0.656 0.656 0.656h1.298c0.361 0 0.656-0.295 0.656-0.656s-0.295-0.656-0.656-0.656z"></path>
<path d="M13.3 16.036h-1.298c-0.361 0-0.656 0.295-0.656 0.656s0.295 0.656 0.656 0.656h1.298c0.367 0 0.656-0.295 0.656-0.656s-0.295-0.656-0.656-0.656z"></path>
<path d="M18.001 16.036h-1.298c-0.361 0-0.656 0.295-0.656 0.656s0.295 0.656 0.656 0.656h1.298c0.361 0 0.656-0.295 0.656-0.656s-0.295-0.656-0.656-0.656z"></path>
<path d="M22.65 16.036h-1.298c-0.361 0-0.656 0.295-0.656 0.656s0.295 0.656 0.656 0.656h1.298c0.361 0 0.656-0.295 0.656-0.656s-0.295-0.656-0.656-0.656z"></path>
<path d="M11.654 11.912h-1.351c-0.361 0-0.656 0.295-0.656 0.656s0.295 0.656 0.656 0.656h1.351c0.361 0 0.656-0.295 0.656-0.656s-0.295-0.656-0.656-0.656z"></path>
<path d="M16.303 11.912h-1.298c-0.361 0-0.656 0.295-0.656 0.656s0.295 0.656 0.656 0.656h1.298c0.361 0 0.656-0.295 0.656-0.656s-0.295-0.656-0.656-0.656z"></path>
<path d="M31.967 18.547v0c-0.092-0.262-0.341-0.446-0.623-0.446h-4.013l-2.806-3.856c-0.125-0.17-0.321-0.269-0.531-0.269h-2.99l-2.452-3.823c-0.118-0.19-0.328-0.302-0.551-0.302h-2.341v-2.8c0-0.361-0.295-0.656-0.656-0.656h-3.351c-0.361 0-0.656 0.295-0.656 0.656v2.8h-2.997c-0.249 0-0.479 0.144-0.59 0.367l-1.823 3.757h-0.931c-0.223 0-0.433 0.111-0.551 0.302l-2.452 3.823h-0.997c-0.223 0-0.426 0.111-0.551 0.295s-0.138 0.42-0.052 0.623l2.701 6.19c0.105 0.236 0.341 0.393 0.603 0.393h19.986c0.144 0 0.288-0.046 0.4-0.138l8-6.19c0.223-0.17 0.308-0.466 0.223-0.728zM12.309 7.702h2.039v2.144h-2.039v-2.144zM8.415 11.158h9.226l1.81 2.813h-12.399l1.364-2.813zM5.011 15.289h18.648l2.046 2.813h-22.497c0 0 1.803-2.813 1.803-2.813zM23.122 24.291h-19.337l-2.124-4.878h27.769l-6.308 4.878z"></path>
</symbol>
<symbol id="icon-diving" viewBox="0 0 32 32">
<path d="M3.371 17.658l1.297 0.308c0.278-1.174 1.171-2.408 2.389-3.301l-0.789-1.075c-1.487 1.091-2.543 2.574-2.897 4.069z"></path>
<path d="M29.112 7.178c1.342-0.367 2.346-1.816 2.346-3.544 0-2.004-1.352-3.634-3.013-3.634s-3.013 1.63-3.013 3.634c0 1.728 1.005 3.177 2.346 3.544v9.367h-2.89c-0.195-1.325-0.958-2.686-2.159-3.82-1.281-1.21-2.858-1.962-4.117-1.962h-11.747c-1.258 0-2.835 0.752-4.116 1.962-1.403 1.326-2.208 2.961-2.208 4.487 0 2.394 0.684 4.373 1.979 5.723 1.21 1.261 2.877 1.928 4.823 1.928 2.586 0 4.463-1.205 5.397-2.766 0.933 1.561 2.81 2.766 5.395 2.766 1.945 0 3.613-0.667 4.823-1.928 1.173-1.222 1.845-2.961 1.961-5.056h2.858v1.413c0 1.020-0.515 3.287-1.932 5.354-1.106 1.612-3.087 3.534-6.248 3.534h-3.532c-0.307-1.42-1.572-2.487-3.082-2.487-1.739 0-3.154 1.415-3.154 3.154s1.415 3.154 3.154 3.154c1.51 0 2.775-1.067 3.082-2.487h3.532c3.741 0 6.060-2.237 7.347-4.113 1.488-2.17 2.166-4.688 2.166-6.109v-1.413h2.075v-1.333h-2.075v-9.367zM26.765 3.634c0-1.247 0.769-2.301 1.68-2.301s1.68 1.054 1.68 2.301c0 1.247-0.769 2.301-1.68 2.301s-1.68-1.054-1.68-2.301zM21.997 22.011c-0.953 0.993-2.288 1.517-3.861 1.517-2.324 0-4.729-1.41-4.729-3.77h-1.333c0 2.36-2.405 3.77-4.73 3.77-1.573 0-2.908-0.525-3.86-1.517-1.052-1.097-1.608-2.756-1.608-4.8 0-2.587 3.158-5.115 4.99-5.115h11.747c1.675 0 4.456 2.11 4.924 4.448h-1.056v1.333h1.103c-0.109 1.738-0.652 3.158-1.587 4.133zM12.984 30.667c-1.004 0-1.821-0.817-1.821-1.82s0.817-1.821 1.821-1.821c1.004 0 1.82 0.817 1.82 1.821s-0.817 1.82-1.82 1.82z"></path>
</symbol>
<symbol id="icon-envelope" viewBox="0 0 32 32">
<path d="M31.319 5.106h-30.638c-0.005 0-0.009 0-0.014 0.001l0 0c-0.37 0.007-0.667 0.308-0.667 0.68v20.426c0 0.376 0.305 0.681 0.681 0.681h30.638c0.376 0 0.681-0.305 0.681-0.681v-20.426c0-0.376-0.305-0.681-0.681-0.681zM29.676 6.468l-9.050 9.050c-0 0-0 0-0 0l-4.625 4.625-4.625-4.625c-0-0-0.001-0-0.001-0.001l-9.050-9.050h27.351zM1.362 7.431l8.569 8.569-8.569 8.569v-17.138zM2.325 25.532l8.569-8.569 4.625 4.625c0.237 0.237 0.608 0.355 0.963 0l4.625-4.625 8.569 8.569h-27.351zM30.638 24.569l-8.569-8.569 8.569-8.569v17.138z"></path>
</symbol>
<symbol id="icon-facebook" viewBox="0 0 32 32">
<path d="M31.5 16c0-8.563-6.938-15.5-15.5-15.5s-15.5 6.938-15.5 15.5c0 7.736 5.668 14.149 13.078 15.313v-10.832h-3.938v-4.481h3.938v-3.415c0-3.884 2.313-6.030 5.854-6.030 1.696 0 3.47 0.303 3.47 0.303v3.813h-1.955c-1.925 0-2.526 1.195-2.526 2.421v2.909h4.299l-0.688 4.481h-3.611v10.832c7.41-1.164 13.078-7.576 13.078-15.313z"></path>
</symbol>
<symbol id="icon-flip-flops" viewBox="0 0 32 32">
<path d="M15.263 24.695c-0.651-2.508-1.389-5.352-1.211-9.559 0.042-1-0.078-2.678-0.542-4.387-0.546-2.008-1.438-3.572-2.579-4.522-1.265-1.053-2.807-1.382-4.581-0.977-1.291 0.295-3.101 1.017-4.394 2.782-1.278 1.745-1.724 4.066-1.326 6.899 0.304 2.158 1.602 5.885 3.231 9.273 0.861 1.791 1.764 3.382 2.613 4.602 1.009 1.451 1.953 2.396 2.804 2.811 0.529 0.258 1.133 0.383 1.756 0.383 1.088 0 2.235-0.382 3.146-1.102 1.359-1.075 1.916-2.684 1.528-4.415-0.13-0.578-0.283-1.167-0.444-1.789zM13.353 29.853c-1.028 0.813-2.497 1.051-3.491 0.566-1.256-0.612-3.050-3.151-4.8-6.793-1.575-3.277-2.826-6.847-3.112-8.882-0.348-2.477 0.015-4.47 1.081-5.925 1.050-1.434 2.546-2.026 3.615-2.27 0.393-0.090 0.765-0.135 1.119-0.135 0.878 0 1.641 0.277 2.313 0.836 2.17 1.807 2.718 6.055 2.643 7.829-0.186 4.406 0.612 7.48 1.253 9.95 0.159 0.612 0.309 1.19 0.434 1.746 0.372 1.658-0.5 2.639-1.054 3.077z"></path>
<path d="M7.788 11.243v-1.676h-1.333v1.774c-2.325 3.013-2.161 5.587-1.614 9.421l1.32-0.188c-0.516-3.619-0.581-5.702 1.083-8.057 2.316 1.93 2.912 3.949 3.307 7.5l1.325-0.147c-0.435-3.912-1.199-6.356-4.088-8.627z"></path>
<path d="M30.044 2.95c-1.293-1.765-3.103-2.487-4.394-2.782-1.775-0.405-3.316-0.077-4.581 0.977-1.142 0.951-2.034 2.514-2.579 4.522-0.464 1.709-0.585 3.387-0.542 4.387 0.178 4.207-0.56 7.050-1.211 9.558-0.162 0.623-0.314 1.211-0.444 1.79-0.389 1.731 0.168 3.34 1.527 4.414 0.911 0.72 2.058 1.102 3.146 1.102 0.623 0 1.227-0.125 1.756-0.383 0.851-0.415 1.794-1.361 2.804-2.811 0.849-1.22 1.753-2.812 2.613-4.602 1.629-3.389 2.927-7.116 3.231-9.274 0.398-2.833-0.048-5.154-1.326-6.899zM30.050 9.663c-0.287 2.035-1.537 5.605-3.112 8.882-1.75 3.641-3.544 6.181-4.8 6.793-0.995 0.485-2.463 0.247-3.491-0.566-0.553-0.437-1.426-1.419-1.053-3.077 0.125-0.557 0.275-1.135 0.434-1.747 0.641-2.47 1.439-5.544 1.252-9.95-0.075-1.774 0.472-6.022 2.643-7.829 0.672-0.559 1.435-0.836 2.313-0.836 0.354 0 0.726 0.045 1.119 0.135 1.069 0.244 2.565 0.836 3.615 2.27 1.066 1.455 1.43 3.448 1.081 5.925z"></path>
<path d="M25.545 4.486h-1.333v1.676c-1.36 1.067-2.255 2.156-2.878 3.499-0.589 1.268-0.951 2.802-1.209 5.128l1.325 0.147c0.395-3.551 0.991-5.57 3.307-7.5 1.664 2.356 1.599 4.438 1.083 8.057l1.32 0.188c0.547-3.835 0.711-6.408-1.614-9.421v-1.774z"></path>
</symbol>
<symbol id="icon-instagram" viewBox="0 0 32 32">
<path d="M16.006 8.813c-3.975 0-7.181 3.206-7.181 7.181s3.206 7.181 7.181 7.181 7.181-3.206 7.181-7.181-3.206-7.181-7.181-7.181zM16.006 20.663c-2.569 0-4.669-2.094-4.669-4.669s2.094-4.669 4.669-4.669 4.669 2.094 4.669 4.669-2.1 4.669-4.669 4.669zM25.156 8.519c0 0.931-0.75 1.675-1.675 1.675-0.931 0-1.675-0.75-1.675-1.675s0.75-1.675 1.675-1.675 1.675 0.75 1.675 1.675zM29.913 10.219c-0.106-2.244-0.619-4.231-2.262-5.869-1.637-1.638-3.625-2.15-5.869-2.263-2.313-0.131-9.244-0.131-11.556 0-2.237 0.106-4.225 0.619-5.869 2.256s-2.15 3.625-2.263 5.869c-0.131 2.313-0.131 9.244 0 11.556 0.106 2.244 0.619 4.231 2.263 5.869s3.625 2.15 5.869 2.262c2.313 0.131 9.244 0.131 11.556 0 2.244-0.106 4.231-0.619 5.869-2.262 1.637-1.637 2.15-3.625 2.262-5.869 0.131-2.313 0.131-9.238 0-11.55zM26.925 24.25c-0.488 1.225-1.431 2.169-2.663 2.663-1.844 0.731-6.219 0.563-8.256 0.563s-6.419 0.163-8.256-0.563c-1.225-0.488-2.169-1.431-2.662-2.663-0.731-1.844-0.563-6.219-0.563-8.256s-0.162-6.419 0.563-8.256c0.487-1.225 1.431-2.169 2.662-2.662 1.844-0.731 6.219-0.563 8.256-0.563s6.419-0.162 8.256 0.563c1.225 0.487 2.169 1.431 2.663 2.662 0.731 1.844 0.563 6.219 0.563 8.256s0.169 6.419-0.563 8.256z"></path>
</symbol>
<symbol id="icon-linkedin" viewBox="0 0 32 32">
<path d="M28 2h-24.006c-1.1 0-1.994 0.906-1.994 2.019v23.962c0 1.113 0.894 2.019 1.994 2.019h24.006c1.1 0 2-0.906 2-2.019v-23.962c0-1.112-0.9-2.019-2-2.019zM10.463 26h-4.15v-13.363h4.156v13.363zM8.387 10.813c-1.331 0-2.406-1.081-2.406-2.406s1.075-2.406 2.406-2.406c1.325 0 2.406 1.081 2.406 2.406 0 1.331-1.075 2.406-2.406 2.406zM26.019 26h-4.15v-6.5c0-1.55-0.031-3.544-2.156-3.544-2.163 0-2.494 1.688-2.494 3.431v6.613h-4.15v-13.363h3.981v1.825h0.056c0.556-1.050 1.913-2.156 3.931-2.156 4.2 0 4.981 2.769 4.981 6.369v7.325z"></path>
</symbol>
<symbol id="icon-location" viewBox="0 0 32 32">
<path d="M16 0c-7.146 0-12.959 5.813-12.959 12.959 0 2.949 0.966 5.725 2.794 8.030 2.367 2.984 9.25 10.071 9.542 10.371l0.622 0.64 0.622-0.64c0.292-0.3 7.177-7.388 9.545-10.373 1.826-2.303 2.792-5.079 2.792-8.028 0-7.146-5.813-12.959-12.959-12.959zM24.807 19.908c-1.906 2.403-7.024 7.749-8.807 9.598-1.783-1.849-6.899-7.194-8.804-9.596-1.582-1.995-2.418-4.399-2.418-6.951 0-6.188 5.035-11.223 11.223-11.223s11.223 5.035 11.223 11.223c0 2.553-0.835 4.956-2.416 6.949z"></path>
<path d="M16 5.144c-4.23 0-7.671 3.441-7.671 7.671s3.441 7.671 7.671 7.671 7.671-3.441 7.671-7.671-3.441-7.671-7.671-7.671zM16 18.75c-3.273 0-5.935-2.662-5.935-5.935s2.662-5.935 5.935-5.935 5.935 2.662 5.935 5.935c0 3.273-2.662 5.935-5.935 5.935z"></path>
</symbol>
<symbol id="icon-mailbox" viewBox="0 0 32 32">
<path d="M26.823 5.344h-1.102v-1.861l1.861-0.93c0.17-0.085 0.277-0.258 0.277-0.448v-1.603c0-0.277-0.224-0.501-0.501-0.501h-4.81c-0.277 0-0.501 0.224-0.501 0.501v4.843h-12.058c-2.486 0-4.509 2.023-4.509 4.509v1.37h-2.171c-0.272 0-0.501 0.229-0.501 0.501v7.516h-1.136v-1.102c0-0.277-0.224-0.501-0.501-0.501s-0.501 0.224-0.501 0.501v1.603c0 0.277 0.224 0.501 0.501 0.501h13.395v1.637c0 0.277 0.224 0.501 0.501 0.501s0.501-0.224 0.501-0.501v-1.637h1.136v10.756h-1.136v-6.447c0-0.277-0.224-0.501-0.501-0.501s-0.501 0.224-0.501 0.501v6.948c0 0.277 0.224 0.501 0.501 0.501h7.482c0.277 0 0.501-0.224 0.501-0.501v-11.257h7.783c0.277 0 0.501-0.224 0.501-0.501v-9.887c0-2.486-2.023-4.509-4.509-4.509zM23.048 1.002h3.808v0.793l-1.861 0.93c-0.17 0.085-0.277 0.258-0.277 0.448v7.75c0 0.46-0.375 0.835-0.835 0.835s-0.835-0.375-0.835-0.835v-9.921zM13.661 12.226l-4.475 3.662-4.475-3.662h8.95zM14.564 19.24h-10.756v-6.458l5.061 4.141c0.182 0.149 0.452 0.149 0.635 0l5.061-4.14v6.458zM22.046 30.998h-0.601v-2.706c0-0.277-0.224-0.501-0.501-0.501s-0.501 0.224-0.501 0.501v2.706h-2.739v-10.756h2.739v5.378c0 0.277 0.224 0.501 0.501 0.501s0.501-0.224 0.501-0.501v-5.378h0.601v10.756zM30.33 19.24h-12.626v-5.378c0-0.277-0.224-0.501-0.501-0.501s-0.501 0.224-0.501 0.501v5.378h-1.136v-7.516c0-0.272-0.229-0.501-0.501-0.501h-8.585v-1.37c0-1.934 1.573-3.507 3.507-3.507h3.207c1.934 0 3.507 1.573 3.507 3.507v1.336c0 0.277 0.224 0.501 0.501 0.501s0.501-0.224 0.501-0.501v-1.336c0-1.415-0.656-2.68-1.679-3.507h6.022v4.576c0 1.013 0.824 1.837 1.837 1.837s1.837-0.824 1.837-1.837v-4.576h1.102c1.934 0 3.507 1.573 3.507 3.507v9.386z"></path>
<path d="M18.806 21.378c-0.277 0-0.501 0.224-0.501 0.501v5.879c0 0.277 0.224 0.501 0.501 0.501s0.501-0.224 0.501-0.501v-5.879c-0-0.277-0.224-0.501-0.501-0.501z"></path>
<path d="M23.883 9.62c-0.277 0-0.501 0.224-0.501 0.501v0.534c0 0.277 0.224 0.501 0.501 0.501s0.501-0.224 0.501-0.501v-0.534c0-0.277-0.224-0.501-0.501-0.501z"></path>
</symbol>
<symbol id="icon-phone" viewBox="0 0 32 32">
<path d="M31.282 25.289l-4.942-4.942c-0.984-0.98-2.614-0.95-3.633 0.068l-2.489 2.489c-0.157-0.087-0.32-0.178-0.491-0.274-1.572-0.871-3.724-2.065-5.989-4.331-2.271-2.271-3.466-4.426-4.34-5.999-0.093-0.167-0.181-0.327-0.268-0.48l2.492-2.491c1.020-1.020 1.049-2.65 0.066-3.633l-4.942-4.943c-0.982-0.982-2.613-0.952-3.633 0.068l-1.393 1.401 0.038 0.038c-0.467 0.596-0.858 1.283-1.148 2.024-0.268 0.705-0.435 1.379-0.511 2.053-0.652 5.41 1.82 10.354 8.528 17.063 9.274 9.273 16.747 8.573 17.069 8.538 0.703-0.084 1.375-0.252 2.059-0.517 0.735-0.287 1.422-0.677 2.017-1.142l0.030 0.027 1.411-1.382c1.018-1.020 1.048-2.65 0.066-3.635zM30.119 27.826l-0.622 0.621-0.248 0.238c-0.39 0.377-1.065 0.907-2.051 1.292-0.56 0.215-1.111 0.354-1.673 0.421-0.071 0.007-7.1 0.607-15.8-8.093-7.397-7.397-8.583-11.659-8.086-15.788 0.062-0.547 0.2-1.098 0.419-1.673 0.389-0.991 0.918-1.666 1.292-2.057l0.86-0.868c0.414-0.415 1.061-0.447 1.439-0.068l4.942 4.942c0.378 0.379 0.348 1.025-0.067 1.442l-3.337 3.334 0.308 0.518c0.171 0.289 0.352 0.613 0.546 0.964 0.918 1.656 2.174 3.922 4.6 6.345 2.419 2.421 4.682 3.676 6.333 4.591 0.357 0.197 0.682 0.379 0.975 0.553l0.52 0.308 3.335-3.336c0.416-0.414 1.064-0.445 1.443-0.067l4.939 4.941c0.378 0.379 0.348 1.025-0.067 1.44z"></path>
</symbol>
<symbol id="icon-phone1" viewBox="0 0 32 32">
<path d="M17.966 17.966c-2.533 2.531-5.467 4.954-6.627 3.794-1.659-1.659-2.683-3.106-6.344-0.163-3.659 2.941-0.848 4.902 0.76 6.509 1.856 1.856 8.774 0.099 15.613-6.738 6.837-6.838 8.589-13.757 6.731-15.613-1.608-1.61-3.56-4.419-6.501-0.76-2.942 3.659-1.498 4.683 0.165 6.344 1.155 1.16-1.266 4.094-3.797 6.627z"></path>
</symbol>
<symbol id="icon-pinterest" viewBox="0 0 32 32">
<path d="M31.5 16c0 8.563-6.938 15.5-15.5 15.5-1.6 0-3.137-0.244-4.588-0.694 0.631-1.031 1.575-2.719 1.925-4.063 0.188-0.725 0.963-3.688 0.963-3.688 0.506 0.962 1.981 1.781 3.55 1.781 4.675 0 8.044-4.3 8.044-9.644 0-5.119-4.181-8.95-9.556-8.95-6.688 0-10.244 4.488-10.244 9.381 0 2.275 1.213 5.106 3.144 6.006 0.294 0.137 0.45 0.075 0.519-0.206 0.050-0.212 0.313-1.269 0.431-1.756 0.037-0.156 0.019-0.294-0.106-0.444-0.631-0.781-1.144-2.206-1.144-3.537 0-3.419 2.588-6.725 7-6.725 3.806 0 6.475 2.594 6.475 6.306 0 4.194-2.119 7.1-4.875 7.1-1.519 0-2.662-1.256-2.294-2.8 0.438-1.844 1.281-3.831 1.281-5.162 0-1.188-0.637-2.181-1.963-2.181-1.556 0-2.806 1.606-2.806 3.762 0 1.375 0.463 2.3 0.463 2.3s-1.531 6.488-1.813 7.7c-0.313 1.337-0.188 3.225-0.056 4.45-5.763-2.256-9.85-7.869-9.85-14.438 0-8.563 6.938-15.5 15.5-15.5s15.5 6.938 15.5 15.5z"></path>
</symbol>
<symbol id="icon-running-mini" viewBox="0 0 32 32">
<path d="M20 6c1.657 0 3-1.343 3-3s-1.343-3-3-3-3 1.343-3 3 1.343 3 3 3zM10.106 19.842l-0.925 2.157h-4.181c-1.104 0-2 0.896-2 2s0.896 2 2 2h4.841c1.203 0 2.286-0.715 2.757-1.818l0.549-1.282-0.667-0.394c-1.082-0.639-1.879-1.586-2.374-2.663zM27 13.999h-2.752l-1.629-3.328c-0.781-1.597-2.216-2.764-3.861-3.184l-4.442-1.321c-1.769-0.425-3.611-0.034-5.053 1.071l-2.479 1.901c-0.877 0.672-1.043 1.927-0.37 2.804s1.928 1.041 2.804 0.37l2.481-1.901c0.479-0.368 1.090-0.5 1.579-0.384l0.919 0.273-2.341 5.462c-0.789 1.843-0.082 4.001 1.644 5.019l5.311 3.136-1.717 5.483c-0.33 1.054 0.257 2.176 1.311 2.506 0.199 0.063 0.401 0.093 0.599 0.093 0.851 0 1.639-0.548 1.907-1.403l1.977-6.316c0.369-1.298-0.181-2.692-1.352-3.399l-3.828-2.259 1.957-4.893 1.267 2.589c0.5 1.021 1.558 1.681 2.694 1.681h3.374c1.104 0 2-0.896 2-2s-0.896-1.999-2-1.999z"></path>
</symbol>
<symbol id="icon-search" viewBox="0 0 32 32">
<path d="M30.786 26.636c0.53 0.53 0.859 1.264 0.859 2.075 0 1.62-1.314 2.933-2.933 2.933-0.811 0-1.543-0.329-2.075-0.86v0l-8.597-8.596c-1.746 1.031-3.776 1.634-5.95 1.634-6.48 0-11.733-5.253-11.733-11.733s5.253-11.733 11.733-11.733c6.48 0 11.733 5.253 11.733 11.733 0 2.174-0.603 4.204-1.634 5.95l8.597 8.597zM12.089 3.287c-4.86 0-8.8 3.941-8.8 8.802s3.94 8.8 8.8 8.8c4.86 0 8.8-3.94 8.8-8.8s-3.94-8.802-8.8-8.802z"></path>
</symbol>
<symbol id="icon-shopping-cart" viewBox="0 0 32 32">
<path d="M3.557 6.119l-3.557-0.94 1.022-3.867 6.535 1.727v2.788h24.443l-4.175 13.595h-20.268v3.070h19.421l-1.088 3.867h-2.657c0.319 0.448 0.509 0.995 0.509 1.587 0 1.515-1.228 2.743-2.743 2.743s-2.743-1.228-2.743-2.743c0-0.592 0.19-1.139 0.509-1.587h-7.532c0.319 0.448 0.509 0.995 0.509 1.587 0 1.515-1.228 2.743-2.743 2.743s-2.743-1.228-2.743-2.743c0-0.592 0.19-1.139 0.509-1.587h-3.207v-20.238z"></path>
</symbol>
<symbol id="icon-tea" viewBox="0 0 32 32">
<path d="M24.395 16.994v-2.254h-20.061v13.406c0 2.125 1.729 3.855 3.855 3.855h12.352c2.125 0 3.855-1.729 3.855-3.855v-0.6c1.82-0.101 3.27-1.613 3.27-3.458v-3.635c0-1.845-1.45-3.357-3.27-3.458zM23.054 28.145c0 1.386-1.127 2.513-2.513 2.513h-12.352c-1.386 0-2.513-1.127-2.513-2.513l0-12.064h17.378v12.064zM26.324 24.087c0 1.105-0.849 2.015-1.929 2.113v-7.861c1.080 0.098 1.929 1.008 1.929 2.113v3.635z"></path>
<path d="M10.017 11.752l0.949 0.949c1.030-1.030 1.513-2.016 1.478-3.016-0.031-0.886-0.465-1.63-0.847-2.286-0.717-1.231-1.235-2.12 0.484-3.839l-0.949-0.949c-2.45 2.45-1.435 4.191-0.694 5.463 0.722 1.239 1.199 2.058-0.421 3.678z"></path>
<path d="M17.561 6.718c0.51 0.673 0.992 1.308 1.030 2.026 0.044 0.836-0.513 1.82-1.702 3.008l0.949 0.949c1.493-1.493 2.158-2.773 2.093-4.027-0.059-1.13-0.719-1.999-1.3-2.766-1.081-1.426-1.862-2.456 0.641-4.959l-0.949-0.949c-1.471 1.472-2.125 2.735-2.056 3.976 0.062 1.117 0.717 1.98 1.295 2.742z"></path>
</symbol>
<symbol id="icon-ticket" viewBox="0 0 32 32">
<path d="M31.645 5.005c0.196 0 0.356-0.159 0.356-0.356v-0.711c0-0.196-0.16-0.356-0.356-0.356h-31.289c-0.196-0-0.356 0.159-0.356 0.356v0.71c0 0.196 0.16 0.356 0.356 0.356 0.915 0.001 1.66 0.745 1.66 1.66s-0.744 1.658-1.66 1.659c-0.196 0-0.356 0.159-0.356 0.356v1.067c0 0.196 0.16 0.356 0.356 0.356 0.915 0 1.66 0.744 1.66 1.66 0 0.914-0.744 1.658-1.66 1.658-0.196-0-0.356 0.159-0.356 0.356v1.067c0 0.196 0.16 0.356 0.356 0.356 0.915 0.001 1.66 0.745 1.66 1.659s-0.744 1.659-1.66 1.66c-0.196-0-0.356 0.159-0.356 0.355v0.711c0 0.196 0.16 0.356 0.356 0.356h3.222l0.371 0.77c0.086 0.178 0.301 0.251 0.474 0.167 0.671-0.322 1.479-0.038 1.799 0.633 0.322 0.671 0.038 1.478-0.634 1.8-0.085 0.041-0.15 0.114-0.181 0.203s-0.026 0.188 0.015 0.272l0.392 0.814c0.085 0.178 0.299 0.251 0.474 0.167 0.67-0.322 1.479-0.038 1.799 0.633 0.321 0.669 0.038 1.478-0.634 1.8-0.176 0.085-0.252 0.297-0.166 0.474l0.26 0.543c0.061 0.127 0.189 0.202 0.321 0.202 0.052 0 0.104-0.011 0.153-0.035l17.607-8.444h6.016c0.196 0 0.356-0.159 0.356-0.356v-0.711c0-0.197-0.159-0.356-0.356-0.356-0.915 0-1.659-0.744-1.659-1.659s0.744-1.659 1.659-1.659c0.196 0 0.356-0.159 0.356-0.356v-1.067c0-0.196-0.159-0.356-0.356-0.356-0.915 0-1.659-0.744-1.659-1.659s0.744-1.66 1.659-1.66c0.196 0 0.356-0.159 0.356-0.356v-1.067c0-0.196-0.159-0.356-0.356-0.356-0.915 0-1.659-0.745-1.659-1.66 0.001-0.915 0.745-1.659 1.659-1.659zM8.297 27.462c0.621-0.6 0.825-1.552 0.432-2.371-0.439-0.915-1.469-1.36-2.415-1.093l-0.109-0.229c0.343-0.244 0.602-0.588 0.745-0.992 0.183-0.52 0.152-1.079-0.086-1.575s-0.655-0.87-1.174-1.053c-0.406-0.144-0.837-0.156-1.24-0.040l-0.082-0.17h3.072l2.408 4.719c0.063 0.123 0.187 0.194 0.317 0.194 0.049 0 0.1-0.011 0.147-0.032l10.71-4.881h2.965l-15.69 7.523zM10.425 22.166c0.054 0.143 0.189 0.231 0.333 0.231 0.042 0 0.083-0.007 0.125-0.023l6.499-2.434h1.925l-8.981 4.094-2.089-4.094h7.117l-4.722 1.768c-0.183 0.069-0.276 0.274-0.208 0.458zM31.289 9.008v0.409c-1.139 0.172-2.014 1.158-2.014 2.344s0.875 2.172 2.014 2.343v0.409c-1.139 0.172-2.014 1.157-2.014 2.343s0.875 2.172 2.014 2.343v0.027l-30.578-0.027c1.14-0.173 2.015-1.158 2.015-2.344s-0.875-2.171-2.015-2.343v-0.409c1.14-0.172 2.015-1.157 2.015-2.342s-0.875-2.173-2.015-2.344v-0.409c1.14-0.173 2.015-1.158 2.015-2.343s-0.875-2.172-2.015-2.344v-0.026l30.578 0.027c-1.139 0.172-2.014 1.157-2.014 2.343s0.876 2.171 2.014 2.344z"></path>
<path d="M27.615 6.31h-23.23c-0.196 0-0.356 0.159-0.356 0.356v10.192c0 0.196 0.159 0.356 0.356 0.356h23.23c0.196 0 0.356-0.159 0.356-0.356v-10.192c-0-0.197-0.16-0.356-0.356-0.356zM27.26 16.501h-22.519v-9.481h22.519v9.481z"></path>
<path d="M10.758 10.914v-1.1h-3.478v1.1h0.512v-0.645h0.946v2.985h-0.613v0.454h1.79v-0.454h-0.614v-2.985h0.941v0.645z"></path>
<path d="M12.836 10.269v-0.455h-1.707v0.455h0.575v2.985h-0.575v0.454h1.707v-0.454h-0.569v-2.985z"></path>
<path d="M17.318 13.707v-0.454h-0.589l-1.336-1.528 1.375-1.457h0.492v-0.455h-1.636v0.448h0.505l-1.414 1.477v0.039l1.669 1.93z"></path>
<path d="M13.323 13.254v0.454h1.745v-0.454h-0.608v-2.985h0.556v-0.455h-1.693v0.455h0.575v2.985z"></path>
<path d="M17.645 13.254v0.454h3.171v-1.112h-0.525v0.659h-1.508v-1.279h1.61v-0.455h-1.61v-1.252h1.496v0.638h0.517v-1.093h-3.15v0.455h0.575v2.985z"></path>
<path d="M24.721 10.914v-1.1h-3.478v1.1h0.511v-0.645h0.946v2.985h-0.613v0.454h1.789v-0.454h-0.613v-2.985h0.94v0.645z"></path>
<path d="M6.045 13.124c0.556 0 1.008-0.452 1.008-1.008s-0.452-1.007-1.008-1.007c-0.556 0-1.007 0.451-1.007 1.007s0.451 1.008 1.007 1.008zM6.045 11.819c0.164 0 0.297 0.133 0.297 0.296s-0.134 0.297-0.297 0.297c-0.163 0-0.296-0.134-0.296-0.297s0.133-0.296 0.296-0.296z"></path>
<path d="M25.72 13.124c0.555 0 1.007-0.452 1.007-1.008s-0.451-1.007-1.007-1.007c-0.556 0-1.009 0.451-1.009 1.007s0.452 1.008 1.009 1.008zM25.72 11.819c0.163 0 0.296 0.133 0.296 0.296s-0.133 0.297-0.296 0.297c-0.164 0-0.297-0.134-0.297-0.297s0.133-0.296 0.297-0.296z"></path>
<path d="M5.393 8.679h20.978c0.196 0 0.356-0.159 0.356-0.356s-0.16-0.356-0.356-0.356h-20.978c-0.196 0-0.356 0.159-0.356 0.356s0.159 0.356 0.356 0.356z"></path>
<path d="M5.393 15.613h20.978c0.196 0 0.356-0.159 0.356-0.356s-0.16-0.356-0.356-0.356h-20.978c-0.196 0-0.356 0.159-0.356 0.356s0.159 0.356 0.356 0.356z"></path>
</symbol>
<symbol id="icon-ticket-mini" viewBox="0 0 32 32">
<path d="M7.111 10.667h17.778v10.667h-17.778v-10.667zM29.333 16c0 1.473 1.194 2.667 2.667 2.667v5.333c0 1.473-1.194 2.667-2.667 2.667h-26.667c-1.473 0-2.667-1.194-2.667-2.667v-5.333c1.473 0 2.667-1.194 2.667-2.667s-1.194-2.667-2.667-2.667v-5.333c0-1.473 1.194-2.667 2.667-2.667h26.667c1.473 0 2.667 1.194 2.667 2.667v5.333c-1.473 0-2.667 1.194-2.667 2.667zM26.667 10.222c0-0.736-0.597-1.333-1.333-1.333h-18.667c-0.736 0-1.333 0.597-1.333 1.333v11.556c0 0.736 0.597 1.333 1.333 1.333h18.667c0.736 0 1.333-0.597 1.333-1.333v-11.556z"></path>
</symbol>
<symbol id="icon-twitter" viewBox="0 0 32 32">
<path d="M28.711 9.482c0.020 0.284 0.020 0.569 0.020 0.853 0 8.67-6.599 18.66-18.66 18.66-3.716 0-7.168-1.076-10.071-2.944 0.528 0.061 1.036 0.081 1.584 0.081 3.066 0 5.888-1.035 8.142-2.802-2.883-0.061-5.3-1.949-6.132-4.548 0.406 0.061 0.812 0.102 1.239 0.102 0.589 0 1.178-0.081 1.726-0.223-3.005-0.609-5.259-3.249-5.259-6.437v-0.081c0.873 0.487 1.888 0.792 2.964 0.832-1.766-1.178-2.924-3.188-2.924-5.462 0-1.218 0.325-2.335 0.893-3.31 3.228 3.98 8.081 6.579 13.523 6.863-0.101-0.487-0.162-0.995-0.162-1.502 0-3.614 2.924-6.558 6.558-6.558 1.888 0 3.594 0.792 4.792 2.071 1.482-0.284 2.904-0.832 4.162-1.584-0.487 1.523-1.523 2.802-2.883 3.614 1.32-0.142 2.599-0.508 3.777-1.015-0.893 1.299-2.010 2.457-3.289 3.391z"></path>
</symbol>
<symbol id="icon-user" viewBox="0 0 32 32">
<path d="M16.001 12.968c3.58 0 6.483-2.904 6.483-6.481-0-3.583-2.903-6.487-6.483-6.487-3.582 0-6.482 2.904-6.482 6.487 0 3.577 2.9 6.481 6.482 6.481z"></path>
<path d="M6.408 25.888l-1.001 4.338c-0.226 0.98 0.405 1.773 1.411 1.773h18.365c1.005 0 1.637-0.794 1.411-1.773l-1.001-4.338c-0.226-0.98-0.391-2.596-0.587-3.582-0.84-4.205-4.551-7.371-9.003-7.371-4.451 0-8.165 3.166-9.006 7.371-0.198 0.985-0.362 2.602-0.588 3.582z"></path>
</symbol>
<symbol id="icon-vespa" viewBox="0 0 32 32">
<path d="M29.658 16.809l0.901-0.892-0.511-0.47c-0.878-0.807-1.912-1.277-3.081-1.405v-1.919l-1.035-0.986v-4.319h-0.662c-1.085 0-2.012 0.594-2.375 1.427l-2.996-2.853h-2.21v1.323h1.681l1.901 1.81v5.878c-0.034 0.108-0.143 0.395-0.403 0.684-0.491 0.545-1.254 0.822-2.267 0.822-1.891 0-3.329-1.59-3.923-2.375 0.399-0.379 0.648-0.914 0.648-1.507v-1.325c0-1.148-0.934-2.081-2.081-2.081h-7.503c-1.148 0-2.081 0.934-2.081 2.081v1.325c0 0.389 0.108 0.753 0.294 1.065-0.797 0.487-1.586 1.559-2.39 3.241-0.769 1.609-1.272 3.191-1.293 3.257l-0.272 0.861h2.756c-0.038 0.26-0.059 0.523-0.059 0.789 0 2.958 2.406 5.364 5.364 5.364s5.364-2.406 5.364-5.364c0-0.265-0.020-0.529-0.059-0.789h6.378v0.542h1.532c-0.004 0.082-0.006 0.164-0.006 0.247 0 2.958 2.406 5.364 5.364 5.364s5.364-2.406 5.364-5.364c0-1.8-0.893-3.447-2.342-4.433zM24.609 8.29v1.466c-0.33-0.159-0.553-0.431-0.553-0.733s0.223-0.574 0.553-0.733zM22.595 14.556v-4.768l3.049 2.904v1.349c-1.251 0.131-2.43 0.631-3.426 1.451 0.198-0.316 0.314-0.624 0.364-0.872l0.013-0.064zM4.984 10.705c0-0.418 0.34-0.758 0.758-0.758h7.502c0.418 0 0.758 0.34 0.758 0.758v1.325c0 0.418-0.34 0.758-0.758 0.758h-7.502c-0.418 0-0.758-0.34-0.758-0.758v-1.325zM2.765 16.895c1.269-2.649 2.054-2.784 2.199-2.784h8.495c0.23 0.325 0.639 0.854 1.203 1.383 1.215 1.139 2.577 1.741 3.94 1.741 1.13 0 1.974-0.292 2.589-0.698-0.629 0.788-1.078 1.692-1.296 2.594h-18.062c0.217-0.593 0.541-1.418 0.932-2.235zM9.206 21.242c0 0.631-0.513 1.144-1.144 1.144s-1.144-0.513-1.144-1.144c0-0.299 0.113-0.578 0.315-0.789h1.658c0.202 0.211 0.315 0.49 0.315 0.789zM12.103 21.242c0 2.228-1.813 4.041-4.041 4.041s-4.041-1.813-4.041-4.041c0-0.267 0.026-0.53 0.077-0.789h1.628c-0.085 0.252-0.132 0.518-0.132 0.789 0 1.36 1.107 2.467 2.467 2.467s2.467-1.107 2.467-2.467c0-0.271-0.046-0.537-0.132-0.789h1.628c0.051 0.258 0.077 0.522 0.077 0.789zM22.519 17.021c1.020-1.091 2.365-1.691 3.787-1.691 0.856 0 1.626 0.222 2.297 0.662l-0.947 0.938c-2.281 0.063-3.798 0.919-4.847 2.743l-1.676-0c0.169-0.915 0.669-1.884 1.387-2.651zM26.636 25.283c-2.228 0-4.041-1.813-4.041-4.041 0-0.082 0.003-0.164 0.008-0.247h1.005l0.184-0.362c0.861-1.694 2.060-2.385 4.139-2.385h0.272l0.491-0.485c1.22 0.721 1.983 2.034 1.983 3.479-0 2.228-1.813 4.041-4.041 4.041z"></path>
<path d="M26.636 18.775c-1.36 0-2.467 1.107-2.467 2.467s1.107 2.467 2.467 2.467c1.36 0 2.467-1.107 2.467-2.467s-1.107-2.467-2.467-2.467zM26.636 22.386c-0.631 0-1.144-0.513-1.144-1.144s0.513-1.144 1.144-1.144c0.631 0 1.144 0.513 1.144 1.144s-0.513 1.144-1.144 1.144z"></path>
</symbol>
<symbol id="icon-youtube" viewBox="0 0 32 32">
<path d="M30.536 8.671c-0.349-1.314-1.377-2.349-2.682-2.7-2.366-0.638-11.854-0.638-11.854-0.638s-9.488 0-11.854 0.638c-1.305 0.351-2.333 1.386-2.682 2.7-0.634 2.381-0.634 7.35-0.634 7.35s0 4.969 0.634 7.35c0.349 1.314 1.377 2.306 2.682 2.657 2.366 0.638 11.854 0.638 11.854 0.638s9.488 0 11.854-0.638c1.305-0.351 2.334-1.343 2.682-2.657 0.634-2.381 0.634-7.35 0.634-7.35s0-4.969-0.634-7.35zM12.897 20.533v-9.023l7.93 4.511-7.93 4.511z"></path>
</symbol>
</defs>
</svg>
